<?xml version="1.0" encoding="utf-8"?>
<!-- Generator: Adobe Illustrator 22.0.0, SVG Export Plug-In . SVG Version: 6.00 Build 0)  -->
<svg version="1.1" id="Layer_1" xmlns="http://www.w3.org/2000/svg" xmlns:xlink="http://www.w3.org/1999/xlink" x="0px" y="0px"
	 viewBox="0 0 2299.5 2299.5" style="enable-background:new 0 0 2299.5 2299.5;" xml:space="preserve">
<style type="text/css">
	.st0{opacity:0.2;}
	.st1{fill:none;stroke:#FF3200;stroke-width:2;stroke-miterlimit:10;}
</style>
<g class="st0">
	<g>
		<g>
			<path class="st1" d="M845.8,731.5C845.8,731.5,845.8,731.4,845.8,731.5"/>
			<path class="st1" d="M1398.3,1914.8l-17.8-54.6c-72.7,23.6-150.3,36.3-230.8,36.3s-158.1-12.7-230.8-36.3l-17.8,54.6
				c78.3,25.4,161.8,39.1,248.6,39.1S1320.1,1940.2,1398.3,1914.8z M603.3,972.2l-54.6-17.8L494,936.7
				c-21.7,67.1-33.5,138.7-33.5,213.1h114.9C575.4,1087.8,585.2,1028.1,603.3,972.2z M901.2,1914.8c78.3,25.4,161.8,39.1,248.6,39.1
				s170.3-13.7,248.6-39.1l-17.8-54.6c-72.7,23.6-150.3,36.3-230.8,36.3s-158.1-12.7-230.8-36.3l17.8-54.6
				c-69.6-22.5-134.3-55.9-192.2-98l-33.8,46.5c-63.4-46.1-119.2-101.9-165.2-165.2L592,1555c-42.1-57.9-75.4-122.6-98-192.2
				l54.6-17.8l54.6-17.8c-18.1-55.9-27.9-115.6-27.9-177.6s9.8-121.7,27.9-177.6l-54.6-17.8L494,936.7
				c-21.7,67.1-33.5,138.7-33.5,213.1H345.6c0,86.8,13.7,170.3,39.1,248.6l-54.7,17.8l-54.6,17.8c30.1,92.8,74.5,179.1,130.6,256.2
				l46.5-33.8c53.2,73.1,117.6,137.5,190.7,190.7l33.8-46.5h0C744.5,1849.6,820,1888.5,901.2,1914.8z M359.6,1723.9
				c-59.7-82-106.9-173.7-138.8-272.3l-54.6,17.8c33.8,104.4,83.8,201.4,147,288.3L359.6,1723.9z M901.2,1914.8
				c78.3,25.4,161.8,39.1,248.6,39.1s170.3-13.7,248.6-39.1l-17.8-54.6c-72.7,23.6-150.3,36.3-230.8,36.3s-158.1-12.7-230.8-36.3
				l17.8-54.6c-69.6-22.5-134.3-55.9-192.2-98l-33.8,46.5c-63.4-46.1-119.2-101.9-165.2-165.2L592,1555
				c-42.1-57.9-75.4-122.6-98-192.2l54.6-17.8l54.6-17.8c-18.1-55.9-27.9-115.6-27.9-177.6s9.8-121.7,27.9-177.6l-54.6-17.8
				L494,936.7c-21.7,67.1-33.5,138.7-33.5,213.1H345.6c0,86.8,13.7,170.3,39.1,248.6l-54.7,17.8l-54.6,17.8
				c30.1,92.8,74.5,179.1,130.6,256.2l46.5-33.8c53.2,73.1,117.6,137.5,190.7,190.7l33.8-46.5h0
				C744.5,1849.6,820,1888.5,901.2,1914.8z M359.6,1723.9c-59.7-82-106.9-173.7-138.8-272.3l-54.6,17.8
				c33.8,104.4,83.8,201.4,147,288.3L359.6,1723.9z M901.2,1914.8c78.3,25.4,161.8,39.1,248.6,39.1s170.3-13.7,248.6-39.1
				l-17.8-54.6c-72.7,23.6-150.3,36.3-230.8,36.3s-158.1-12.7-230.8-36.3l17.8-54.6c-69.6-22.5-134.3-55.9-192.2-98l-33.8,46.5
				c-63.4-46.1-119.2-101.9-165.2-165.2L592,1555c-42.1-57.9-75.4-122.6-98-192.2l54.6-17.8l54.6-17.8
				c-18.1-55.9-27.9-115.6-27.9-177.6s9.8-121.7,27.9-177.6l-54.6-17.8L494,936.7c-21.7,67.1-33.5,138.7-33.5,213.1H345.6
				c0,86.8,13.7,170.3,39.1,248.6l-54.7,17.8l-54.6,17.8c30.1,92.8,74.5,179.1,130.6,256.2l46.5-33.8
				c53.2,73.1,117.6,137.5,190.7,190.7l33.8-46.5h0C744.5,1849.6,820,1888.5,901.2,1914.8z M359.6,1723.9
				c-59.7-82-106.9-173.7-138.8-272.3l-54.6,17.8c33.8,104.4,83.8,201.4,147,288.3L359.6,1723.9z M901.2,1914.8
				c78.3,25.4,161.8,39.1,248.6,39.1s170.3-13.7,248.6-39.1l-17.8-54.6c-72.7,23.6-150.3,36.3-230.8,36.3s-158.1-12.7-230.8-36.3
				l17.8-54.6c-69.6-22.5-134.3-55.9-192.2-98l-33.8,46.5c-63.4-46.1-119.2-101.9-165.2-165.2L592,1555
				c-42.1-57.9-75.4-122.6-98-192.2l54.6-17.8l54.6-17.8c-18.1-55.9-27.9-115.6-27.9-177.6s9.8-121.7,27.9-177.6l-54.6-17.8
				L494,936.7c-21.7,67.1-33.5,138.7-33.5,213.1H345.6c0,86.8,13.7,170.3,39.1,248.6l-54.7,17.8l-54.6,17.8
				c30.1,92.8,74.5,179.1,130.6,256.2l46.5-33.8c53.2,73.1,117.6,137.5,190.7,190.7l33.8-46.5h0
				C744.5,1849.6,820,1888.5,901.2,1914.8z M359.6,1723.9c-59.7-82-106.9-173.7-138.8-272.3l-54.6,17.8
				c33.8,104.4,83.8,201.4,147,288.3L359.6,1723.9z M359.6,1723.9c-59.7-82-106.9-173.7-138.8-272.3l-54.6,17.8
				c33.8,104.4,83.8,201.4,147,288.3L359.6,1723.9z M901.2,1914.8c78.3,25.4,161.8,39.1,248.6,39.1s170.3-13.7,248.6-39.1
				l-17.8-54.6c-72.7,23.6-150.3,36.3-230.8,36.3s-158.1-12.7-230.8-36.3l17.8-54.6c-69.6-22.5-134.3-55.9-192.2-98l-33.8,46.5
				c-63.4-46.1-119.2-101.9-165.2-165.2L592,1555c-42.1-57.9-75.4-122.6-98-192.2l54.6-17.8l54.6-17.8
				c-18.1-55.9-27.9-115.6-27.9-177.6s9.8-121.7,27.9-177.6l-54.6-17.8L494,936.7c-21.7,67.1-33.5,138.7-33.5,213.1H345.6
				c0,86.8,13.7,170.3,39.1,248.6l-54.7,17.8l-54.6,17.8c30.1,92.8,74.5,179.1,130.6,256.2l46.5-33.8
				c53.2,73.1,117.6,137.5,190.7,190.7l33.8-46.5h0C744.5,1849.6,820,1888.5,901.2,1914.8z M901.2,1914.8
				c78.3,25.4,161.8,39.1,248.6,39.1s170.3-13.7,248.6-39.1l-17.8-54.6c-72.7,23.6-150.3,36.3-230.8,36.3s-158.1-12.7-230.8-36.3
				l17.8-54.6c-69.6-22.5-134.3-55.9-192.2-98l-33.8,46.5c-63.4-46.1-119.2-101.9-165.2-165.2L592,1555
				c-42.1-57.9-75.4-122.6-98-192.2l54.6-17.8l54.6-17.8c-18.1-55.9-27.9-115.6-27.9-177.6s9.8-121.7,27.9-177.6l-54.6-17.8
				L494,936.7c-21.7,67.1-33.5,138.7-33.5,213.1H345.6c0,86.8,13.7,170.3,39.1,248.6l-54.7,17.8l-54.6,17.8
				c30.1,92.8,74.5,179.1,130.6,256.2l46.5-33.8c53.2,73.1,117.6,137.5,190.7,190.7l33.8-46.5h0
				C744.5,1849.6,820,1888.5,901.2,1914.8z M359.6,1723.9c-59.7-82-106.9-173.7-138.8-272.3l-54.6,17.8
				c33.8,104.4,83.8,201.4,147,288.3L359.6,1723.9z M359.6,1723.9c-59.7-82-106.9-173.7-138.8-272.3l-54.6,17.8
				c33.8,104.4,83.8,201.4,147,288.3L359.6,1723.9z M901.2,1914.8c78.3,25.4,161.8,39.1,248.6,39.1s170.3-13.7,248.6-39.1
				l-17.8-54.6c-72.7,23.6-150.3,36.3-230.8,36.3s-158.1-12.7-230.8-36.3l17.8-54.6c-69.6-22.5-134.3-55.9-192.2-98l-33.8,46.5
				c-63.4-46.1-119.2-101.9-165.2-165.2L592,1555c-42.1-57.9-75.4-122.6-98-192.2l54.6-17.8l54.6-17.8
				c-18.1-55.9-27.9-115.6-27.9-177.6s9.8-121.7,27.9-177.6l-54.6-17.8L494,936.7c-21.7,67.1-33.5,138.7-33.5,213.1H345.6
				c0,86.8,13.7,170.3,39.1,248.6l-54.7,17.8l-54.6,17.8c30.1,92.8,74.5,179.1,130.6,256.2l46.5-33.8
				c53.2,73.1,117.6,137.5,190.7,190.7l33.8-46.5h0C744.5,1849.6,820,1888.5,901.2,1914.8z M901.2,1914.8
				c78.3,25.4,161.8,39.1,248.6,39.1s170.3-13.7,248.6-39.1l-17.8-54.6c-72.7,23.6-150.3,36.3-230.8,36.3s-158.1-12.7-230.8-36.3
				l17.8-54.6c-69.6-22.5-134.3-55.9-192.2-98l-33.8,46.5c-63.4-46.1-119.2-101.9-165.2-165.2L592,1555
				c-42.1-57.9-75.4-122.6-98-192.2l54.6-17.8l54.6-17.8c-18.1-55.9-27.9-115.6-27.9-177.6s9.8-121.7,27.9-177.6l-54.6-17.8
				L494,936.7c-21.7,67.1-33.5,138.7-33.5,213.1H345.6c0,86.8,13.7,170.3,39.1,248.6l-54.7,17.8l-54.6,17.8
				c30.1,92.8,74.5,179.1,130.6,256.2l46.5-33.8c53.2,73.1,117.6,137.5,190.7,190.7l33.8-46.5h0
				C744.5,1849.6,820,1888.5,901.2,1914.8z M359.6,1723.9c-59.7-82-106.9-173.7-138.8-272.3l-54.6,17.8
				c33.8,104.4,83.8,201.4,147,288.3L359.6,1723.9z M359.6,1723.9c-59.7-82-106.9-173.7-138.8-272.3l-54.6,17.8
				c33.8,104.4,83.8,201.4,147,288.3L359.6,1723.9z M901.2,1914.8c78.3,25.4,161.8,39.1,248.6,39.1s170.3-13.7,248.6-39.1
				l-17.8-54.6c-72.7,23.6-150.3,36.3-230.8,36.3s-158.1-12.7-230.8-36.3l17.8-54.6c-69.6-22.5-134.3-55.9-192.2-98l-33.8,46.5
				c-63.4-46.1-119.2-101.9-165.2-165.2L592,1555c-42.1-57.9-75.4-122.6-98-192.2l54.6-17.8l54.6-17.8
				c-18.1-55.9-27.9-115.6-27.9-177.6s9.8-121.7,27.9-177.6l-54.6-17.8L494,936.7c-21.7,67.1-33.5,138.7-33.5,213.1H345.6
				c0,86.8,13.7,170.3,39.1,248.6l-54.7,17.8l-54.6,17.8c30.1,92.8,74.5,179.1,130.6,256.2l46.5-33.8
				c53.2,73.1,117.6,137.5,190.7,190.7l33.8-46.5h0C744.5,1849.6,820,1888.5,901.2,1914.8z M901.2,1914.8
				c78.3,25.4,161.8,39.1,248.6,39.1s170.3-13.7,248.6-39.1l-17.8-54.6c-72.7,23.6-150.3,36.3-230.8,36.3s-158.1-12.7-230.8-36.3
				l17.8-54.6c-69.6-22.5-134.3-55.9-192.2-98l-33.8,46.5c-63.4-46.1-119.2-101.9-165.2-165.2L592,1555
				c-42.1-57.9-75.4-122.6-98-192.2l54.6-17.8l54.6-17.8c-18.1-55.9-27.9-115.6-27.9-177.6s9.8-121.7,27.9-177.6l-54.6-17.8
				L494,936.7c-21.7,67.1-33.5,138.7-33.5,213.1H345.6c0,86.8,13.7,170.3,39.1,248.6l-54.7,17.8l-54.6,17.8
				c30.1,92.8,74.5,179.1,130.6,256.2l46.5-33.8c53.2,73.1,117.6,137.5,190.7,190.7l33.8-46.5h0
				C744.5,1849.6,820,1888.5,901.2,1914.8z M359.6,1723.9c-59.7-82-106.9-173.7-138.8-272.3l-54.6,17.8
				c33.8,104.4,83.8,201.4,147,288.3L359.6,1723.9z M2298.5,1149.8h-57.4c0-117.8-18.6-231.1-53-337.4l-54.6,17.8
				c-33.8-104.4-83.8-201.4-147-288.3l46.5-33.8c-67.3-92.6-148.9-174.2-241.5-241.5c-91.7-66.7-194.1-119.4-304.3-155.1l-17.8,54.6
				l-17.8,54.6l-17.8,54.7c-89.5-29-184.9-44.7-284.1-44.7v172.3c80.6,0,158.1,12.7,230.8,36.3l17.8-54.6l17.8-54.7
				c87,28.2,167.9,69.8,240.2,122.5l67.5-93c82.8,60.3,155.8,133.2,216.1,216.1c59.7,82,106.9,173.7,138.8,272.3
				c30.8,95,47.5,196.5,47.5,301.8s-16.6,206.8-47.5,301.8l-54.6-17.8l-54.6-17.8l-54.7-17.8l-54.6-17.8
				c-24.4,75.4-60.5,145.5-106.1,208.2l46.5,33.8c-49.6,68.2-109.7,128.3-177.9,177.9l33.8,46.5c-72.4,52.6-153.3,94.3-240.2,122.5
				l17.8,54.6c-89.5,29-184.9,44.7-284.1,44.7v-57.4c-3.4,0-6.8,0-10.2-0.1c-3.4,0-6.8-0.1-10.2-0.2c-1.7,0-3.4-0.1-5.1-0.1
				c-2.1-0.1-4.2-0.1-6.3-0.2c-6.3-0.2-12.7-0.5-19-0.9c-8.4-0.5-16.8-1.1-25.1-1.8c-1.7-0.1-3.3-0.3-5-0.5
				c-7.3-0.7-14.5-1.4-21.7-2.3c-4.8-0.6-9.6-1.2-14.4-1.8c-0.5-0.1-1-0.1-1.5-0.2c-11.3-1.5-22.5-3.3-33.7-5.3
				c-1.9-0.3-3.8-0.7-5.7-1c-3.8-0.7-7.6-1.4-11.4-2.2c-5.6-1.1-11.3-2.3-16.9-3.5c0,0,0,0,0,0c-5.4-1.2-10.9-2.4-16.3-3.7
				c-8.1-1.9-16.2-4-24.2-6.2c-5.4-1.5-10.7-2.9-16-4.5c-4-1.2-7.9-2.4-11.9-3.6c-4-1.2-7.9-2.5-11.8-3.7v0l-17.8,54.6
				c-92.8-30.1-179.1-74.5-256.2-130.6l-67.5,93l-33.8,46.5c-92.6-67.3-174.2-148.9-241.5-241.5c-66.7-91.7-119.4-194.1-155.1-304.3
				l54.6-17.8c-32.6-100.6-50.3-208-50.3-319.6s17.6-219,50.3-319.6c33.8-104.4,83.8-201.4,147-288.3
				c63.8-87.7,141.1-165,228.8-228.8l33.8,46.5c82-59.7,173.7-106.9,272.3-138.8c95-30.8,196.5-47.5,301.8-47.5V1
				C514.8,1,1,514.8,1,1149.8s513.8,1148.8,1148.8,1148.8S2298.5,1784.7,2298.5,1149.8z M901.2,1914.8
				c78.3,25.4,161.8,39.1,248.6,39.1s170.3-13.7,248.6-39.1l-17.8-54.6c-72.7,23.6-150.3,36.3-230.8,36.3s-158.1-12.7-230.8-36.3
				l17.8-54.6c-69.6-22.5-134.3-55.9-192.2-98l-33.8,46.5c-63.4-46.1-119.2-101.9-165.2-165.2L592,1555
				c-42.1-57.9-75.4-122.6-98-192.2l54.6-17.8l54.6-17.8c-18.1-55.9-27.9-115.6-27.9-177.6s9.8-121.7,27.9-177.6l-54.6-17.8
				L494,936.7c-21.7,67.1-33.5,138.7-33.5,213.1H345.6c0,86.8,13.7,170.3,39.1,248.6l-54.7,17.8l-54.6,17.8
				c30.1,92.8,74.5,179.1,130.6,256.2l46.5-33.8c53.2,73.1,117.6,137.5,190.7,190.7l33.8-46.5h0
				C744.5,1849.6,820,1888.5,901.2,1914.8z M359.6,1723.9c-59.7-82-106.9-173.7-138.8-272.3l-54.6,17.8
				c33.8,104.4,83.8,201.4,147,288.3L359.6,1723.9z M359.6,1723.9c-59.7-82-106.9-173.7-138.8-272.3l-54.6,17.8
				c33.8,104.4,83.8,201.4,147,288.3L359.6,1723.9z M901.2,1914.8c78.3,25.4,161.8,39.1,248.6,39.1s170.3-13.7,248.6-39.1
				l-17.8-54.6c-72.7,23.6-150.3,36.3-230.8,36.3s-158.1-12.7-230.8-36.3l17.8-54.6c-69.6-22.5-134.3-55.9-192.2-98l-33.8,46.5
				c-63.4-46.1-119.2-101.9-165.2-165.2L592,1555c-42.1-57.9-75.4-122.6-98-192.2l54.6-17.8l54.6-17.8
				c-18.1-55.9-27.9-115.6-27.9-177.6s9.8-121.7,27.9-177.6l-54.6-17.8L494,936.7c-21.7,67.1-33.5,138.7-33.5,213.1H345.6
				c0,86.8,13.7,170.3,39.1,248.6l-54.7,17.8l-54.6,17.8c30.1,92.8,74.5,179.1,130.6,256.2l46.5-33.8
				c53.2,73.1,117.6,137.5,190.7,190.7l33.8-46.5h0C744.5,1849.6,820,1888.5,901.2,1914.8z M901.2,1914.8
				c78.3,25.4,161.8,39.1,248.6,39.1s170.3-13.7,248.6-39.1l-17.8-54.6c-72.7,23.6-150.3,36.3-230.8,36.3s-158.1-12.7-230.8-36.3
				l17.8-54.6c-69.6-22.5-134.3-55.9-192.2-98l-33.8,46.5c-63.4-46.1-119.2-101.9-165.2-165.2L592,1555
				c-42.1-57.9-75.4-122.6-98-192.2l54.6-17.8l54.6-17.8c-18.1-55.9-27.9-115.6-27.9-177.6s9.8-121.7,27.9-177.6l-54.6-17.8
				L494,936.7c-21.7,67.1-33.5,138.7-33.5,213.1H345.6c0,86.8,13.7,170.3,39.1,248.6l-54.7,17.8l-54.6,17.8
				c30.1,92.8,74.5,179.1,130.6,256.2l46.5-33.8c53.2,73.1,117.6,137.5,190.7,190.7l33.8-46.5h0
				C744.5,1849.6,820,1888.5,901.2,1914.8z M359.6,1723.9c-59.7-82-106.9-173.7-138.8-272.3l-54.6,17.8
				c33.8,104.4,83.8,201.4,147,288.3L359.6,1723.9z M359.6,1723.9c-59.7-82-106.9-173.7-138.8-272.3l-54.6,17.8
				c33.8,104.4,83.8,201.4,147,288.3L359.6,1723.9z M901.2,1914.8c78.3,25.4,161.8,39.1,248.6,39.1s170.3-13.7,248.6-39.1
				l-17.8-54.6c-72.7,23.6-150.3,36.3-230.8,36.3s-158.1-12.7-230.8-36.3l17.8-54.6c-69.6-22.5-134.3-55.9-192.2-98l-33.8,46.5
				c-63.4-46.1-119.2-101.9-165.2-165.2L592,1555c-42.1-57.9-75.4-122.6-98-192.2l54.6-17.8l54.6-17.8
				c-18.1-55.9-27.9-115.6-27.9-177.6s9.8-121.7,27.9-177.6l-54.6-17.8L494,936.7c-21.7,67.1-33.5,138.7-33.5,213.1H345.6
				c0,86.8,13.7,170.3,39.1,248.6l-54.7,17.8l-54.6,17.8c30.1,92.8,74.5,179.1,130.6,256.2l46.5-33.8
				c53.2,73.1,117.6,137.5,190.7,190.7l33.8-46.5h0C744.5,1849.6,820,1888.5,901.2,1914.8z M901.2,1914.8
				c78.3,25.4,161.8,39.1,248.6,39.1s170.3-13.7,248.6-39.1l-17.8-54.6c-72.7,23.6-150.3,36.3-230.8,36.3s-158.1-12.7-230.8-36.3
				l17.8-54.6c-69.6-22.5-134.3-55.9-192.2-98l-33.8,46.5c-63.4-46.1-119.2-101.9-165.2-165.2L592,1555
				c-42.1-57.9-75.4-122.6-98-192.2l54.6-17.8l54.6-17.8c-18.1-55.9-27.9-115.6-27.9-177.6s9.8-121.7,27.9-177.6l-54.6-17.8
				L494,936.7c-21.7,67.1-33.5,138.7-33.5,213.1H345.6c0,86.8,13.7,170.3,39.1,248.6l-54.7,17.8l-54.6,17.8
				c30.1,92.8,74.5,179.1,130.6,256.2l46.5-33.8c53.2,73.1,117.6,137.5,190.7,190.7l33.8-46.5h0
				C744.5,1849.6,820,1888.5,901.2,1914.8z M359.6,1723.9c-59.7-82-106.9-173.7-138.8-272.3l-54.6,17.8
				c33.8,104.4,83.8,201.4,147,288.3L359.6,1723.9z M359.6,1723.9c-59.7-82-106.9-173.7-138.8-272.3l-54.6,17.8
				c33.8,104.4,83.8,201.4,147,288.3L359.6,1723.9z M901.2,1914.8c78.3,25.4,161.8,39.1,248.6,39.1s170.3-13.7,248.6-39.1
				l-17.8-54.6c-72.7,23.6-150.3,36.3-230.8,36.3s-158.1-12.7-230.8-36.3l17.8-54.6c-69.6-22.5-134.3-55.9-192.2-98l-33.8,46.5
				c-63.4-46.1-119.2-101.9-165.2-165.2L592,1555c-42.1-57.9-75.4-122.6-98-192.2l54.6-17.8l54.6-17.8
				c-18.1-55.9-27.9-115.6-27.9-177.6s9.8-121.7,27.9-177.6l-54.6-17.8L494,936.7c-21.7,67.1-33.5,138.7-33.5,213.1H345.6
				c0,86.8,13.7,170.3,39.1,248.6l-54.7,17.8l-54.6,17.8c30.1,92.8,74.5,179.1,130.6,256.2l46.5-33.8
				c53.2,73.1,117.6,137.5,190.7,190.7l33.8-46.5h0C744.5,1849.6,820,1888.5,901.2,1914.8z M901.2,1914.8
				c78.3,25.4,161.8,39.1,248.6,39.1s170.3-13.7,248.6-39.1l-17.8-54.6c-72.7,23.6-150.3,36.3-230.8,36.3s-158.1-12.7-230.8-36.3
				l17.8-54.6c-69.6-22.5-134.3-55.9-192.2-98l-33.8,46.5c-63.4-46.1-119.2-101.9-165.2-165.2L592,1555
				c-42.1-57.9-75.4-122.6-98-192.2l54.6-17.8l54.6-17.8c-18.1-55.9-27.9-115.6-27.9-177.6s9.8-121.7,27.9-177.6l-54.6-17.8
				L494,936.7c-21.7,67.1-33.5,138.7-33.5,213.1H345.6c0,86.8,13.7,170.3,39.1,248.6l-54.7,17.8l-54.6,17.8
				c30.1,92.8,74.5,179.1,130.6,256.2l46.5-33.8c53.2,73.1,117.6,137.5,190.7,190.7l33.8-46.5h0
				C744.5,1849.6,820,1888.5,901.2,1914.8z M359.6,1723.9c-59.7-82-106.9-173.7-138.8-272.3l-54.6,17.8
				c33.8,104.4,83.8,201.4,147,288.3L359.6,1723.9z M901.2,1914.8c78.3,25.4,161.8,39.1,248.6,39.1s170.3-13.7,248.6-39.1
				l-17.8-54.6c-72.7,23.6-150.3,36.3-230.8,36.3s-158.1-12.7-230.8-36.3l17.8-54.6c-69.6-22.5-134.3-55.9-192.2-98l-33.8,46.5
				c-63.4-46.1-119.2-101.9-165.2-165.2L592,1555c-42.1-57.9-75.4-122.6-98-192.2l54.6-17.8l54.6-17.8
				c-18.1-55.9-27.9-115.6-27.9-177.6s9.8-121.7,27.9-177.6l-54.6-17.8L494,936.7c-21.7,67.1-33.5,138.7-33.5,213.1H345.6
				c0,86.8,13.7,170.3,39.1,248.6l-54.7,17.8l-54.6,17.8c30.1,92.8,74.5,179.1,130.6,256.2l46.5-33.8
				c53.2,73.1,117.6,137.5,190.7,190.7l33.8-46.5h0C744.5,1849.6,820,1888.5,901.2,1914.8z M359.6,1723.9
				c-59.7-82-106.9-173.7-138.8-272.3l-54.6,17.8c33.8,104.4,83.8,201.4,147,288.3L359.6,1723.9z M901.2,1914.8
				c78.3,25.4,161.8,39.1,248.6,39.1s170.3-13.7,248.6-39.1l-17.8-54.6c-72.7,23.6-150.3,36.3-230.8,36.3s-158.1-12.7-230.8-36.3
				l17.8-54.6c-69.6-22.5-134.3-55.9-192.2-98l-33.8,46.5c-63.4-46.1-119.2-101.9-165.2-165.2L592,1555
				c-42.1-57.9-75.4-122.6-98-192.2l54.6-17.8l54.6-17.8c-18.1-55.9-27.9-115.6-27.9-177.6s9.8-121.7,27.9-177.6l-54.6-17.8
				L494,936.7c-21.7,67.1-33.5,138.7-33.5,213.1H345.6c0,86.8,13.7,170.3,39.1,248.6l-54.7,17.8l-54.6,17.8
				c30.1,92.8,74.5,179.1,130.6,256.2l46.5-33.8c53.2,73.1,117.6,137.5,190.7,190.7l33.8-46.5h0
				C744.5,1849.6,820,1888.5,901.2,1914.8z M359.6,1723.9c-59.7-82-106.9-173.7-138.8-272.3l-54.6,17.8
				c33.8,104.4,83.8,201.4,147,288.3L359.6,1723.9z M901.2,1914.8c78.3,25.4,161.8,39.1,248.6,39.1s170.3-13.7,248.6-39.1
				l-17.8-54.6c-72.7,23.6-150.3,36.3-230.8,36.3s-158.1-12.7-230.8-36.3l17.8-54.6c-69.6-22.5-134.3-55.9-192.2-98l-33.8,46.5
				c-63.4-46.1-119.2-101.9-165.2-165.2L592,1555c-42.1-57.9-75.4-122.6-98-192.2l54.6-17.8l54.6-17.8
				c-18.1-55.9-27.9-115.6-27.9-177.6s9.8-121.7,27.9-177.6l-54.6-17.8L494,936.7c-21.7,67.1-33.5,138.7-33.5,213.1H345.6
				c0,86.8,13.7,170.3,39.1,248.6l-54.7,17.8l-54.6,17.8c30.1,92.8,74.5,179.1,130.6,256.2l46.5-33.8
				c53.2,73.1,117.6,137.5,190.7,190.7l33.8-46.5h0C744.5,1849.6,820,1888.5,901.2,1914.8z M359.6,1723.9
				c-59.7-82-106.9-173.7-138.8-272.3l-54.6,17.8c33.8,104.4,83.8,201.4,147,288.3L359.6,1723.9z M901.2,1914.8
				c78.3,25.4,161.8,39.1,248.6,39.1s170.3-13.7,248.6-39.1l-17.8-54.6c-72.7,23.6-150.3,36.3-230.8,36.3s-158.1-12.7-230.8-36.3
				l17.8-54.6c-69.6-22.5-134.3-55.9-192.2-98l-33.8,46.5c-63.4-46.1-119.2-101.9-165.2-165.2L592,1555
				c-42.1-57.9-75.4-122.6-98-192.2l54.6-17.8l54.6-17.8c-18.1-55.9-27.9-115.6-27.9-177.6s9.8-121.7,27.9-177.6l-54.6-17.8
				L494,936.7c-21.7,67.1-33.5,138.7-33.5,213.1H345.6c0,86.8,13.7,170.3,39.1,248.6l-54.7,17.8l-54.6,17.8
				c30.1,92.8,74.5,179.1,130.6,256.2l46.5-33.8c53.2,73.1,117.6,137.5,190.7,190.7l33.8-46.5h0
				C744.5,1849.6,820,1888.5,901.2,1914.8z M359.6,1723.9c-59.7-82-106.9-173.7-138.8-272.3l-54.6,17.8
				c33.8,104.4,83.8,201.4,147,288.3L359.6,1723.9z"/>
			<path class="st1" d="M845.8,731.5C845.8,731.5,845.8,731.4,845.8,731.5"/>
			<path class="st1" d="M111.5,1487.1c-34.4-106.2-53-219.6-53-337.4s18.6-231.1,53-337.4c35.7-110.2,88.5-212.6,155.1-304.3
				c67.3-92.6,148.9-174.2,241.5-241.5c91.7-66.7,194.1-119.4,304.3-155.1c106.2-34.4,219.6-53,337.4-53v114.9
				c-105.4,0-206.8,16.6-301.8,47.5c-98.6,32-190.2,79.1-272.3,138.8l-33.8-46.5c-87.7,63.8-165,141.1-228.8,228.8
				c-63.2,86.8-113.1,183.9-147,288.3c-32.6,100.6-50.3,208-50.3,319.6s17.6,219,50.3,319.6L111.5,1487.1z"/>
			<path class="st1" d="M313.1,1757.6c-63.2-86.8-113.1-183.9-147-288.3l54.6-17.8c32,98.6,79.1,190.2,138.8,272.3L313.1,1757.6z"/>
			<path class="st1" d="M677,1800.5L677,1800.5l-33.8,46.5c-73.1-53.2-137.5-117.6-190.7-190.7l-46.5,33.8
				c-56.1-77.2-100.6-163.5-130.6-256.2l54.6-17.8l54.7-17.8c-25.4-78.3-39.1-161.8-39.1-248.6h114.9c0-74.4,11.8-146,33.5-213.1
				l54.6,17.8l54.6,17.8c-18.1,55.9-27.9,115.6-27.9,177.6s9.8,121.7,27.9,177.6l-54.6,17.8l-54.6,17.8
				c22.5,69.6,55.9,134.3,98,192.2l-46.5,33.8c46.1,63.4,101.9,119.2,165.2,165.2l33.8-46.5c57.9,42.1,122.6,75.4,192.2,98
				l-17.8,54.6c72.7,23.6,150.3,36.3,230.8,36.3s158.1-12.7,230.8-36.3l17.8,54.6c-78.3,25.4-161.8,39.1-248.6,39.1
				s-170.3-13.7-248.6-39.1C820,1888.5,744.5,1849.6,677,1800.5z"/>
			<path class="st1" d="M1149.8,2241.1c-117.8,0-231.1-18.6-337.4-53c-110.2-35.7-212.6-88.5-304.3-155.1l33.8-46.5l67.5-93
				c77.2,56.1,163.5,100.6,256.2,130.6l17.8-54.6v0c3.9,1.3,7.9,2.5,11.8,3.7c4,1.2,7.9,2.4,11.9,3.6c5.3,1.6,10.6,3,16,4.5
				c8,2.2,16.1,4.3,24.2,6.2c5.4,1.3,10.8,2.5,16.3,3.7c0,0,0,0,0,0c5.6,1.2,11.3,2.4,16.9,3.5c3.8,0.8,7.6,1.5,11.4,2.2
				c1.9,0.3,3.8,0.7,5.7,1c11.2,2,22.4,3.8,33.7,5.3c0.5,0.1,1,0.1,1.5,0.2c4.8,0.6,9.6,1.3,14.4,1.8c7.2,0.9,14.4,1.6,21.7,2.3
				c1.7,0.2,3.3,0.3,5,0.5c8.3,0.7,16.7,1.3,25.1,1.8c6.3,0.4,12.6,0.7,19,0.9c2.1,0.1,4.2,0.1,6.3,0.2c1.7,0.1,3.4,0.1,5.1,0.1
				c3.4,0.1,6.8,0.1,10.2,0.2c3.4,0,6.8,0.1,10.2,0.1v57.4c99.2,0,194.6-15.7,284.1-44.7l-17.8-54.6c87-28.2,167.9-69.8,240.2-122.5
				l-33.8-46.5c68.2-49.6,128.3-109.7,177.9-177.9l-46.5-33.8c45.6-62.7,81.7-132.8,106.1-208.2l54.6,17.8l54.7,17.8l54.6,17.8
				l54.6,17.8c30.8-95,47.5-196.5,47.5-301.8s-16.6-206.8-47.5-301.8c-32-98.6-79.1-190.2-138.8-272.3
				c-60.3-82.8-133.2-155.8-216.1-216.1l-67.5,93c-72.4-52.6-153.3-94.3-240.2-122.5l-17.8,54.7l-17.8,54.6
				c-72.7-23.6-150.3-36.3-230.8-36.3V230.8c99.2,0,194.6,15.7,284.1,44.7l17.8-54.7l17.8-54.6l17.8-54.6
				c110.2,35.7,212.6,88.5,304.3,155.1c92.6,67.3,174.2,148.9,241.5,241.5l-46.5,33.8c63.2,86.8,113.1,183.9,147,288.3l54.6-17.8
				c34.4,106.2,53,219.6,53,337.4s-18.6,231.1-53,337.4c-35.7,110.2-88.5,212.6-155.1,304.3c-67.3,92.6-148.9,174.2-241.5,241.5
				c-91.7,66.7-194.1,119.4-304.3,155.1C1380.9,2222.4,1267.5,2241.1,1149.8,2241.1z"/>
			<path class="st1" d="M575.6,359.6l-33.8-46.5c86.8-63.2,183.9-113.1,288.3-147c100.6-32.6,208-50.3,319.6-50.3v57.4
				c-105.4,0-206.8,16.6-301.8,47.5C749.3,252.7,657.7,299.9,575.6,359.6z"/>
			<path class="st1" d="M845.8,731.5C845.8,731.5,845.8,731.4,845.8,731.5"/>
			<path class="st1" d="M313.1,1757.6c-63.2-86.8-113.1-183.9-147-288.3l54.6-17.8c32,98.6,79.1,190.2,138.8,272.3L313.1,1757.6z"/>
			<path class="st1" d="M677,1800.5L677,1800.5l-33.8,46.5c-73.1-53.2-137.5-117.6-190.7-190.7l-46.5,33.8
				c-56.1-77.2-100.6-163.5-130.6-256.2l54.6-17.8l54.7-17.8c-25.4-78.3-39.1-161.8-39.1-248.6h114.9c0-74.4,11.8-146,33.5-213.1
				l54.6,17.8l54.6,17.8c-18.1,55.9-27.9,115.6-27.9,177.6s9.8,121.7,27.9,177.6l-54.6,17.8l-54.6,17.8
				c22.5,69.6,55.9,134.3,98,192.2l-46.5,33.8c46.1,63.4,101.9,119.2,165.2,165.2l33.8-46.5c57.9,42.1,122.6,75.4,192.2,98
				l-17.8,54.6c72.7,23.6,150.3,36.3,230.8,36.3s158.1-12.7,230.8-36.3l17.8,54.6c-78.3,25.4-161.8,39.1-248.6,39.1
				s-170.3-13.7-248.6-39.1C820,1888.5,744.5,1849.6,677,1800.5z"/>
			<path class="st1" d="M1149.8,2183.6c-111.6,0-219-17.6-319.6-50.3c-104.4-33.8-201.4-83.8-288.3-147l67.5-93
				c77.2,56.1,163.5,100.6,256.2,130.6l17.8-54.6v0c3.9,1.3,7.9,2.5,11.8,3.7c4,1.2,7.9,2.4,11.9,3.6c5.3,1.6,10.6,3,16,4.5
				c8,2.2,16.1,4.3,24.2,6.2c5.4,1.3,10.8,2.5,16.3,3.7c0,0,0,0,0,0c5.6,1.2,11.3,2.4,16.9,3.5c3.8,0.8,7.6,1.5,11.4,2.2
				c1.9,0.3,3.8,0.7,5.7,1c11.2,2,22.4,3.8,33.7,5.3c0.5,0.1,1,0.1,1.5,0.2c4.8,0.6,9.6,1.3,14.4,1.8c7.2,0.9,14.4,1.6,21.7,2.3
				c1.7,0.2,3.3,0.3,5,0.5c8.3,0.7,16.7,1.3,25.1,1.8c6.3,0.4,12.6,0.7,19,0.9c2.1,0.1,4.2,0.1,6.3,0.2c1.7,0.1,3.4,0.1,5.1,0.1
				c3.4,0.1,6.8,0.1,10.2,0.2c3.4,0,6.8,0.1,10.2,0.1v57.4c99.2,0,194.6-15.7,284.1-44.7l-17.8-54.6c87-28.2,167.9-69.8,240.2-122.5
				l-33.8-46.5c68.2-49.6,128.3-109.7,177.9-177.9l-46.5-33.8c45.6-62.7,81.7-132.8,106.1-208.2l54.6,17.8l54.7,17.8l54.6,17.8
				l54.6,17.8c30.8-95,47.5-196.5,47.5-301.8s-16.6-206.8-47.5-301.8c-32-98.6-79.1-190.2-138.8-272.3
				c-60.3-82.8-133.2-155.8-216.1-216.1l-67.5,93c-72.4-52.6-153.3-94.3-240.2-122.5l-17.8,54.7l-17.8,54.6
				c-72.7-23.6-150.3-36.3-230.8-36.3V230.8c99.2,0,194.6,15.7,284.1,44.7l17.8-54.7l17.8-54.6c104.4,33.8,201.4,83.8,288.3,147
				c87.7,63.8,165,141.1,228.8,228.8c63.2,86.8,113.1,183.9,147,288.3c32.6,100.6,50.3,208,50.3,319.6s-17.6,219-50.3,319.6
				c-33.8,104.4-83.8,201.4-147,288.3c-63.8,87.7-141.1,165-228.8,228.8c-86.8,63.2-183.9,113.1-288.3,147
				C1368.7,2166,1261.3,2183.6,1149.8,2183.6z"/>
			<path class="st1" d="M1398.3,384.7l-17.8,54.6c-72.7-23.6-150.3-36.3-230.8-36.3V230.8c99.2,0,194.6,15.7,284.1,44.7l17.8-54.7
				c98.6,32,190.2,79.1,272.3,138.8l-67.5,93c-72.4-52.6-153.3-94.3-240.2-122.5L1398.3,384.7z"/>
			<path class="st1" d="M845.8,731.5C845.8,731.5,845.8,731.4,845.8,731.5"/>
			<path class="st1" d="M677,1800.5L677,1800.5l-33.8,46.5c-73.1-53.2-137.5-117.6-190.7-190.7l-46.5,33.8
				c-56.1-77.2-100.6-163.5-130.6-256.2l54.6-17.8l54.7-17.8c-25.4-78.3-39.1-161.8-39.1-248.6h114.9c0-74.4,11.8-146,33.5-213.1
				l54.6,17.8l54.6,17.8c-18.1,55.9-27.9,115.6-27.9,177.6s9.8,121.7,27.9,177.6l-54.6,17.8l-54.6,17.8
				c22.5,69.6,55.9,134.3,98,192.2l-46.5,33.8c46.1,63.4,101.9,119.2,165.2,165.2l33.8-46.5c57.9,42.1,122.6,75.4,192.2,98
				l-17.8,54.6c72.7,23.6,150.3,36.3,230.8,36.3s158.1-12.7,230.8-36.3l17.8,54.6c-78.3,25.4-161.8,39.1-248.6,39.1
				s-170.3-13.7-248.6-39.1C820,1888.5,744.5,1849.6,677,1800.5z"/>
			<path class="st1" d="M1149.8,2126.2c-105.4,0-206.8-16.6-301.8-47.5c-98.6-32-190.2-79.1-272.3-138.8l33.8-46.5
				c77.2,56.1,163.5,100.6,256.2,130.6l17.8-54.6v0c3.9,1.3,7.9,2.5,11.8,3.7c4,1.2,7.9,2.4,11.9,3.6c5.3,1.6,10.6,3,16,4.5
				c8,2.2,16.1,4.3,24.2,6.2c5.4,1.3,10.8,2.5,16.3,3.7c0,0,0,0,0,0c5.6,1.2,11.3,2.4,16.9,3.5c3.8,0.8,7.6,1.5,11.4,2.2
				c1.9,0.3,3.8,0.7,5.7,1c11.2,2,22.4,3.8,33.7,5.3c0.5,0.1,1,0.1,1.5,0.2c4.8,0.6,9.6,1.3,14.4,1.8c7.2,0.9,14.4,1.6,21.7,2.3
				c1.7,0.2,3.3,0.3,5,0.5c8.3,0.7,16.7,1.3,25.1,1.8c6.3,0.4,12.6,0.7,19,0.9c2.1,0.1,4.2,0.1,6.3,0.2c1.7,0.1,3.4,0.1,5.1,0.1
				c3.4,0.1,6.8,0.1,10.2,0.2c3.4,0,6.8,0.1,10.2,0.1v57.4c99.2,0,194.6-15.7,284.1-44.7l-17.8-54.6c87-28.2,167.9-69.8,240.2-122.5
				l-33.8-46.5c68.2-49.6,128.3-109.7,177.9-177.9l-46.5-33.8c45.6-62.7,81.7-132.8,106.1-208.2l54.6,17.8l54.7,17.8l54.6,17.8
				l54.6,17.8c-32,98.6-79.1,190.2-138.8,272.3c-60.3,82.8-133.2,155.8-216.1,216.1c-82,59.7-173.7,106.9-272.3,138.8
				C1356.6,2109.6,1255.1,2126.2,1149.8,2126.2z"/>
			<path class="st1" d="M1398.3,384.7l-17.8,54.6c-72.7-23.6-150.3-36.3-230.8-36.3V230.8c99.2,0,194.6,15.7,284.1,44.7
				c92.8,30.1,179.1,74.5,256.2,130.6l-33.8,46.5c-72.4-52.6-153.3-94.3-240.2-122.5L1398.3,384.7z"/>
			<path class="st1" d="M845.8,731.5C845.8,731.5,845.8,731.4,845.8,731.5"/>
			<path class="st1" d="M1433.8,2024.1l-17.8-54.6c87-28.2,167.9-69.8,240.2-122.5l-33.8-46.5c68.2-49.6,128.3-109.7,177.9-177.9
				l-46.5-33.8c45.6-62.7,81.7-132.8,106.1-208.2l54.6,17.8l54.7,17.8l54.6,17.8c-30.1,92.8-74.5,179.1-130.6,256.2
				c-56.7,78-125.4,146.6-203.4,203.4C1612.9,1949.6,1526.6,1994,1433.8,2024.1z"/>
			<path class="st1" d="M677,1800.5L677,1800.5l-33.8,46.5c-73.1-53.2-137.5-117.6-190.7-190.7l-46.5,33.8
				c-56.1-77.2-100.6-163.5-130.6-256.2l54.6-17.8l54.7-17.8c-25.4-78.3-39.1-161.8-39.1-248.6h114.9c0-74.4,11.8-146,33.5-213.1
				l54.6,17.8l54.6,17.8c-18.1,55.9-27.9,115.6-27.9,177.6s9.8,121.7,27.9,177.6l-54.6,17.8l-54.6,17.8
				c22.5,69.6,55.9,134.3,98,192.2l-46.5,33.8c46.1,63.4,101.9,119.2,165.2,165.2l33.8-46.5c57.9,42.1,122.6,75.4,192.2,98
				l-17.8,54.6c72.7,23.6,150.3,36.3,230.8,36.3s158.1-12.7,230.8-36.3l17.8,54.6c-78.3,25.4-161.8,39.1-248.6,39.1
				s-170.3-13.7-248.6-39.1C820,1888.5,744.5,1849.6,677,1800.5z"/>
			<path class="st1" d="M1149.8,2068.8c-99.2,0-194.6-15.7-284.1-44.7l17.8-54.6v0c3.9,1.3,7.9,2.5,11.8,3.7c4,1.2,7.9,2.4,11.9,3.6
				c5.3,1.6,10.6,3,16,4.5c8,2.2,16.1,4.3,24.2,6.2c5.4,1.3,10.8,2.5,16.3,3.7c0,0,0,0,0,0c5.6,1.2,11.3,2.4,16.9,3.5
				c3.8,0.8,7.6,1.5,11.4,2.2c1.9,0.3,3.8,0.7,5.7,1c11.2,2,22.4,3.8,33.7,5.3c0.5,0.1,1,0.1,1.5,0.2c4.8,0.6,9.6,1.3,14.4,1.8
				c7.2,0.9,14.4,1.6,21.7,2.3c1.7,0.2,3.3,0.3,5,0.5c8.3,0.7,16.7,1.3,25.1,1.8c6.3,0.4,12.6,0.7,19,0.9c2.1,0.1,4.2,0.1,6.3,0.2
				c1.7,0.1,3.4,0.1,5.1,0.1c3.4,0.1,6.8,0.1,10.2,0.2c3.4,0,6.8,0.1,10.2,0.1V2068.8z"/>
			<path class="st1" d="M1380.6,439.4c-72.7-23.6-150.3-36.3-230.8-36.3V288.2c93,0,182.5,14.7,266.3,41.9l-17.8,54.7L1380.6,439.4z
				"/>
			<path class="st1" d="M452.5,643.2c53.2-73.1,117.6-137.5,190.7-190.7c72.4-52.6,153.3-94.3,240.2-122.5"/>
			<path class="st1" d="M845.8,731.5C845.8,731.5,845.8,731.4,845.8,731.5"/>
			<path class="st1" d="M1656.3,1847l-33.8-46.5c68.2-49.6,128.3-109.7,177.9-177.9l-46.5-33.8c45.6-62.7,81.7-132.8,106.1-208.2
				l54.6,17.8l54.7,17.8c-28.2,87-69.8,167.9-122.5,240.2C1793.8,1729.4,1729.4,1793.8,1656.3,1847z"/>
			<path class="st1" d="M677,1800.5L677,1800.5l-33.8,46.5c-73.1-53.2-137.5-117.6-190.7-190.7c-52.6-72.4-94.3-153.3-122.5-240.2
				l54.7-17.8c-25.4-78.3-39.1-161.8-39.1-248.6h114.9c0-74.4,11.8-146,33.5-213.1l54.6,17.8l54.6,17.8
				c-18.1,55.9-27.9,115.6-27.9,177.6s9.8,121.7,27.9,177.6l-54.6,17.8l-54.6,17.8c22.5,69.6,55.9,134.3,98,192.2l-46.5,33.8
				c46.1,63.4,101.9,119.2,165.2,165.2l33.8-46.5c57.9,42.1,122.6,75.4,192.2,98l-17.8,54.6c72.7,23.6,150.3,36.3,230.8,36.3
				s158.1-12.7,230.8-36.3l17.8,54.6c-78.3,25.4-161.8,39.1-248.6,39.1s-170.3-13.7-248.6-39.1C820,1888.5,744.5,1849.6,677,1800.5z
				"/>
			<path class="st1" d="M1380.6,439.4c-72.7-23.6-150.3-36.3-230.8-36.3v-57.4c86.8,0,170.3,13.7,248.6,39.1L1380.6,439.4z"/>
			<path class="st1" d="M499,677C548.6,608.7,608.7,548.6,677,499c67.5-49.1,143-88,224.2-114.3"/>
			<path class="st1" d="M845.8,731.5C845.8,731.5,845.8,731.4,845.8,731.5"/>
			<path class="st1" d="M1800.5,1622.5l-46.5-33.8c45.6-62.7,81.7-132.8,106.1-208.2l54.6,17.8
				C1888.5,1479.5,1849.6,1555,1800.5,1622.5z"/>
			<path class="st1" d="M1149.8,1953.9c-86.8,0-170.3-13.7-248.6-39.1c-81.2-26.3-156.7-65.2-224.2-114.3h0
				c-68.2-49.6-128.3-109.7-177.9-177.9c-49.1-67.5-88-143-114.3-224.2c-25.4-78.3-39.1-161.8-39.1-248.6h114.9
				c0-74.4,11.8-146,33.5-213.1l54.6,17.8l54.6,17.8c-18.1,55.9-27.9,115.6-27.9,177.6s9.8,121.7,27.9,177.6l-54.6,17.8l-54.6,17.8
				c22.5,69.6,55.9,134.3,98,192.2l-46.5,33.8c46.1,63.4,101.9,119.2,165.2,165.2l33.8-46.5c57.9,42.1,122.6,75.4,192.2,98
				l-17.8,54.6c72.7,23.6,150.3,36.3,230.8,36.3s158.1-12.7,230.8-36.3l17.8,54.6C1320.1,1940.2,1236.5,1953.9,1149.8,1953.9z"/>
			<path class="st1" d="M1588.8,545.5c63.4,46.1,119.2,101.9,165.2,165.2"/>
			<path class="st1" d="M1860.1,918.9c23.6,72.7,36.3,150.2,36.3,230.8"/>
			<path class="st1" d="M918.9,439.4c-75.4,24.4-145.5,60.5-208.2,106.1"/>
			<path class="st1" d="M845.8,731.5C845.8,731.5,845.8,731.4,845.8,731.5"/>
			<path class="st1" d="M545.5,1588.8c-45.6-62.7-81.7-132.8-106.1-208.2c-23.6-72.7-36.3-150.2-36.3-230.8h57.4
				c0-74.4,11.8-146,33.5-213.1l54.6,17.8l54.6,17.8c-18.1,55.9-27.9,115.6-27.9,177.6s9.8,121.7,27.9,177.6l-54.6,17.8l-54.6,17.8
				c22.5,69.6,55.9,134.3,98,192.2L545.5,1588.8z"/>
			<path class="st1" d="M918.9,1860.1c-75.4-24.4-145.5-60.5-208.2-106.1l33.8-46.5c57.9,42.1,122.6,75.4,192.2,98L918.9,1860.1z"/>
			<path class="st1" d="M494,1362.8c-21.7-67.1-33.5-138.7-33.5-213.1s11.8-146,33.5-213.1l54.6,17.8l54.6,17.8
				c-18.1,55.9-27.9,115.6-27.9,177.6s9.8,121.7,27.9,177.6l-54.6,17.8L494,1362.8z"/>
			<path class="st1" d="M1555,592c58.5,42.5,110,94.1,152.5,152.5"/>
			<path class="st1" d="M1805.5,936.7c21.7,67.1,33.5,138.7,33.5,213.1"/>
			<path class="st1" d="M845.8,731.5C845.8,731.5,845.8,731.4,845.8,731.5"/>
			<path class="st1" d="M548.6,1345.1c-19.9-61.5-30.7-127.1-30.7-195.3s10.8-133.8,30.7-195.3l54.6,17.8
				c-18.1,55.9-27.9,115.6-27.9,177.6s9.8,121.7,27.9,177.6L548.6,1345.1z"/>
			<path class="st1" d="M1345.1,548.6c63.8,20.7,123.1,51.2,176.2,89.8c53.6,39,100.8,86.2,139.8,139.8"/>
			<path class="st1" d="M1661,1521.2c-39,53.6-86.2,100.8-139.8,139.8"/>
			<path class="st1" d="M1750.9,954.4c19.9,61.5,30.7,127.1,30.7,195.3"/>
			<path class="st1" d="M845.8,731.5C845.8,731.5,845.8,731.4,845.8,731.5"/>
			<path class="st1" d="M1327.3,1696.2"/>
			<path class="st1" d="M1327.3,603.3c58,18.8,111.9,46.6,160.2,81.7c48.7,35.5,91.7,78.4,127.1,127.1"/>
			<path class="st1" d="M1614.6,1487.5c-35.5,48.7-78.4,91.7-127.1,127.1"/>
			<path class="st1" d="M1696.2,972.2c9.1,28,16,56.8,20.7,86.5c4.7,29.6,7.2,60.1,7.2,91.1"/>
			<path class="st1" d="M845.8,731.5C845.8,731.5,845.8,731.4,845.8,731.5"/>
			<path class="st1" d="M1309.6,657.9c52.2,16.9,100.7,41.9,144.1,73.5c43.9,31.9,82.5,70.5,114.4,114.4
				c31.6,43.4,56.6,92,73.5,144.1c16.3,50.3,25.1,104,25.1,159.8"/>
			<path class="st1" d="M845.8,731.5C845.8,731.5,845.8,731.4,845.8,731.5"/>
			<path class="st1" d="M1609.3,1149.8c0-49.6-7.8-97.3-22.3-142c-15-46.4-37.2-89.5-65.3-128.1"/>
			<path class="st1" d="M1291.8,712.6c46.4,15,89.5,37.2,128.1,65.3"/>
			<path class="st1" d="M690.3,1149.8c0-49.6,7.8-97.3,22.3-142c15-46.4,37.2-89.5,65.3-128.1"/>
			<path class="st1" d="M712.6,1291.8c15,46.4,37.2,89.5,65.3,128.1"/>
			<line class="st1" x1="1025.5" y1="767.2" x2="1025.5" y2="767.2"/>
			<path class="st1" d="M1494.4,1149.8"/>
		</g>
		<g>
			<polyline class="st1" points="1,1149.8 58.4,1149.8 115.9,1149.8 			"/>
			<polyline class="st1" points="575.4,1149.8 517.9,1149.8 460.5,1149.8 			"/>
			<polyline class="st1" points="632.8,1149.8 690.3,1149.8 747.7,1149.8 			"/>
			<polyline class="st1" points="384.7,1398.3 439.4,1380.6 494,1362.8 548.6,1345.1 603.3,1327.3 			"/>
			<polyline class="st1" points="166.1,1469.4 111.5,1487.1 57.2,1504.7 			"/>
			<line class="st1" x1="313.1" y1="1757.6" x2="359.6" y2="1723.9"/>
			<polyline class="st1" points="545.5,1588.8 499,1622.5 452.5,1656.3 406,1690.1 			"/>
			<line class="st1" x1="220.4" y1="1825" x2="266.6" y2="1791.4"/>
			<polyline class="st1" points="710.7,1754 677,1800.5 643.2,1847 			"/>
			<polyline class="st1" points="474.5,2079.1 508.1,2032.9 541.9,1986.4 575.6,1939.9 609.4,1893.5 			"/>
			<polyline class="st1" points="794.8,2242.3 812.4,2188 830.1,2133.4 847.9,2078.7 865.7,2024.1 883.4,1969.5 883.4,1969.4 			"/>
			<line class="st1" x1="901.2" y1="1914.8" x2="918.9" y2="1860.1"/>
			<polyline class="st1" points="1149.8,2068.8 1149.8,2126.2 1149.8,2183.6 1149.8,2241.1 1149.8,2298.5 			"/>
			<line class="st1" x1="1149.8" y1="1953.9" x2="1149.8" y2="1896.4"/>
			<polyline class="st1" points="1433.8,2024.1 1451.6,2078.7 1469.4,2133.4 1487.1,2188 1504.7,2242.3 			"/>
			<polyline class="st1" points="1656.3,1847 1690.1,1893.5 1723.9,1939.9 1757.6,1986.4 1791.4,2032.9 1825,2079.1 			"/>
			<polyline class="st1" points="1800.5,1622.5 1847,1656.3 1893.5,1690.1 1939.9,1723.9 1986.4,1757.6 2032.9,1791.4 2079.1,1825 
							"/>
			<polyline class="st1" points="2078.7,1451.6 2133.4,1469.4 2188,1487.1 2242.3,1504.7 			"/>
			<path class="st1" d="M1707.5,1555l-139.4-101.3c31.6-43.4,56.6-92,73.5-144.1l54.6,17.8l54.6,17.8l54.6,17.8
				C1783,1432.4,1749.6,1497.1,1707.5,1555z"/>
			<polyline class="st1" points="2126.2,1149.8 2183.6,1149.8 2241.1,1149.8 2298.5,1149.8 			"/>
			<polyline class="st1" points="1839,1149.8 1781.6,1149.8 1724.1,1149.8 1666.7,1149.8 1609.3,1149.8 			"/>
			<polyline class="st1" points="2078.7,847.9 2133.4,830.1 2188,812.4 			"/>
			<polyline class="st1" points="1860.1,918.9 1805.5,936.7 1750.9,954.4 1696.2,972.2 1641.6,989.9 1586.9,1007.7 			"/>
			<polyline class="st1" points="1939.9,575.6 1986.4,541.9 2032.9,508.1 			"/>
			<polyline class="st1" points="1800.5,677 1754,710.7 1707.5,744.5 1661,778.3 1614.6,812 			"/>
			<line class="st1" x1="1521.6" y1="879.6" x2="1568.1" y2="845.8"/>
			<polyline class="st1" points="1723.9,359.6 1757.6,313.1 1791.4,266.6 			"/>
			<polyline class="st1" points="1555,592 1521.2,638.5 1487.5,684.9 			"/>
			<line class="st1" x1="1419.9" y1="777.9" x2="1453.7" y2="731.4"/>
			<line class="st1" x1="1416.1" y1="330.1" x2="1433.8" y2="275.4"/>
			<path class="st1" d="M1487.1,111.5"/>
			<line class="st1" x1="1291.8" y1="712.6" x2="1309.6" y2="657.9"/>
			<line class="st1" x1="1149.8" y1="58.4" x2="1149.8" y2="1"/>
			<polyline class="st1" points="794.8,57.2 812.4,111.5 830.1,166.1 847.9,220.8 			"/>
			<polyline class="st1" points="541.9,313.1 508.1,266.6 474.5,220.4 			"/>
			<polyline class="st1" points="710.7,545.5 677,499 643.2,452.5 609.4,406 			"/>
			<polyline class="st1" points="220.4,474.5 266.6,508.1 313.1,541.9 			"/>
			<polyline class="st1" points="57.2,794.8 111.5,812.4 166.1,830.1 			"/>
			<line class="st1" x1="275.4" y1="865.7" x2="220.8" y2="847.9"/>
			<polyline class="st1" points="767.2,1025.5 712.6,1007.7 657.9,989.9 			"/>
		</g>
	</g>
	<g>
		<path class="st1" d="M1641.6,989.9c-16.9-52.2-41.9-100.7-73.5-144.1c-31.9-43.9-70.5-82.5-114.4-114.4
			c-43.4-31.6-92-56.6-144.1-73.5l-17.8,54.7c46.4,15,89.5,37.2,128.1,65.3c39,28.4,73.3,62.7,101.7,101.7
			c28.1,38.6,50.3,81.7,65.3,128.1c14.5,44.7,22.3,92.5,22.3,142h57.4C1666.7,1094,1657.9,1040.3,1641.6,989.9z M1860.1,918.9
			l-54.6,17.8l-54.6,17.8l-54.6,17.8c9.1,28,16,56.8,20.7,86.5s7.2,60.1,7.2,91.1h172.3C1896.4,1069.2,1883.7,991.6,1860.1,918.9z
			 M1707.5,1555l-93-67.5c-35.5,48.7-78.4,91.7-127.1,127.1l33.8,46.5l33.8,46.5C1613.5,1665,1665,1613.5,1707.5,1555z M1754,710.7
			l46.5-33.8c-49.6-68.2-109.7-128.3-177.9-177.9l-33.8,46.5L1555,592c-57.9-42.1-122.6-75.4-192.2-98l-35.5,109.3
			c58,18.8,111.9,46.6,160.2,81.7c48.7,35.5,91.7,78.4,127.1,127.1L1754,710.7z M275.4,865.7c30.1-92.8,74.5-179.1,130.6-256.2
			l-46.5-33.8c-59.7,82-106.9,173.7-138.8,272.3c-30.8,95-47.5,196.5-47.5,301.8h57.4C230.8,1050.6,246.4,955.1,275.4,865.7z
			 M710.7,545.5l33.8,46.5c57.9-42.1,122.6-75.4,192.2-98l-17.8-54.6l-17.8-54.6l-17.8-54.7l-17.8-54.6
			c-92.8,30.1-179.1,74.5-256.2,130.6c-78,56.7-146.6,125.4-203.4,203.4l46.5,33.8L499,677l46.5,33.8
			C591.6,647.4,647.4,591.6,710.7,545.5z M870.9,947.1c21.3-29.2,47-55,76.3-76.3c28.9-21.1,61.3-37.7,96.1-49l-0.1-0.2l-8.8-27.1
			l-8.9-27.3l-17.8-54.6h0c-46.4,15-89.5,37.2-128.1,65.3l33.8,46.5c-34.1,24.8-64.2,54.9-89,89l-46.5-33.8
			c-28.1,38.6-50.3,81.7-65.3,128.1l54.6,17.8l54.7,17.8C833.2,1008.4,849.8,976.1,870.9,947.1z M1398.3,1914.8l-17.8-54.6
			c-72.7,23.6-150.3,36.3-230.8,36.3v57.4C1236.5,1953.9,1320.1,1940.2,1398.3,1914.8z M1398.3,1914.8l-17.8-54.6
			c-72.7,23.6-150.3,36.3-230.8,36.3v57.4C1236.5,1953.9,1320.1,1940.2,1398.3,1914.8z M1641.6,989.9
			c-16.9-52.2-41.9-100.7-73.5-144.1c-31.9-43.9-70.5-82.5-114.4-114.4c-43.4-31.6-92-56.6-144.1-73.5l-17.8,54.7
			c46.4,15,89.5,37.2,128.1,65.3c39,28.4,73.3,62.7,101.7,101.7c28.1,38.6,50.3,81.7,65.3,128.1c14.5,44.7,22.3,92.5,22.3,142h57.4
			C1666.7,1094,1657.9,1040.3,1641.6,989.9z M1860.1,918.9l-54.6,17.8l-54.6,17.8l-54.6,17.8c9.1,28,16,56.8,20.7,86.5
			s7.2,60.1,7.2,91.1h172.3C1896.4,1069.2,1883.7,991.6,1860.1,918.9z M1707.5,1555l-93-67.5c-35.5,48.7-78.4,91.7-127.1,127.1
			l33.8,46.5l33.8,46.5C1613.5,1665,1665,1613.5,1707.5,1555z M1754,710.7l46.5-33.8c-49.6-68.2-109.7-128.3-177.9-177.9l-33.8,46.5
			L1555,592c-57.9-42.1-122.6-75.4-192.2-98l-35.5,109.3c58,18.8,111.9,46.6,160.2,81.7c48.7,35.5,91.7,78.4,127.1,127.1L1754,710.7
			z M870.9,947.1c21.3-29.2,47-55,76.3-76.3c28.9-21.1,61.3-37.7,96.1-49l-0.1-0.2l-8.8-27.1l-8.9-27.3l-17.8-54.6h0
			c-46.4,15-89.5,37.2-128.1,65.3l33.8,46.5c-34.1,24.8-64.2,54.9-89,89l-46.5-33.8c-28.1,38.6-50.3,81.7-65.3,128.1l54.6,17.8
			l54.7,17.8C833.2,1008.4,849.8,976.1,870.9,947.1z M275.4,865.7c30.1-92.8,74.5-179.1,130.6-256.2l-46.5-33.8
			c-59.7,82-106.9,173.7-138.8,272.3c-30.8,95-47.5,196.5-47.5,301.8h57.4C230.8,1050.6,246.4,955.1,275.4,865.7z M710.7,545.5
			l33.8,46.5c57.9-42.1,122.6-75.4,192.2-98l-17.8-54.6l-17.8-54.6l-17.8-54.7l-17.8-54.6c-92.8,30.1-179.1,74.5-256.2,130.6
			c-78,56.7-146.6,125.4-203.4,203.4l46.5,33.8L499,677l46.5,33.8C591.6,647.4,647.4,591.6,710.7,545.5z M1641.6,989.9
			c-16.9-52.2-41.9-100.7-73.5-144.1c-31.9-43.9-70.5-82.5-114.4-114.4c-43.4-31.6-92-56.6-144.1-73.5l-17.8,54.7
			c46.4,15,89.5,37.2,128.1,65.3c39,28.4,73.3,62.7,101.7,101.7c28.1,38.6,50.3,81.7,65.3,128.1c14.5,44.7,22.3,92.5,22.3,142h57.4
			C1666.7,1094,1657.9,1040.3,1641.6,989.9z M1860.1,918.9l-54.6,17.8l-54.6,17.8l-54.6,17.8c9.1,28,16,56.8,20.7,86.5
			s7.2,60.1,7.2,91.1h172.3C1896.4,1069.2,1883.7,991.6,1860.1,918.9z M1707.5,1555l-93-67.5c-35.5,48.7-78.4,91.7-127.1,127.1
			l33.8,46.5l33.8,46.5C1613.5,1665,1665,1613.5,1707.5,1555z M1754,710.7l46.5-33.8c-49.6-68.2-109.7-128.3-177.9-177.9l-33.8,46.5
			L1555,592c-57.9-42.1-122.6-75.4-192.2-98l-35.5,109.3c58,18.8,111.9,46.6,160.2,81.7c48.7,35.5,91.7,78.4,127.1,127.1L1754,710.7
			z M275.4,865.7c30.1-92.8,74.5-179.1,130.6-256.2l-46.5-33.8c-59.7,82-106.9,173.7-138.8,272.3c-30.8,95-47.5,196.5-47.5,301.8
			h57.4C230.8,1050.6,246.4,955.1,275.4,865.7z M710.7,545.5l33.8,46.5c57.9-42.1,122.6-75.4,192.2-98l-17.8-54.6l-17.8-54.6
			l-17.8-54.7l-17.8-54.6c-92.8,30.1-179.1,74.5-256.2,130.6c-78,56.7-146.6,125.4-203.4,203.4l46.5,33.8L499,677l46.5,33.8
			C591.6,647.4,647.4,591.6,710.7,545.5z M870.9,947.1c21.3-29.2,47-55,76.3-76.3c28.9-21.1,61.3-37.7,96.1-49l-0.1-0.2l-8.8-27.1
			l-8.9-27.3l-17.8-54.6h0c-46.4,15-89.5,37.2-128.1,65.3l33.8,46.5c-34.1,24.8-64.2,54.9-89,89l-46.5-33.8
			c-28.1,38.6-50.3,81.7-65.3,128.1l54.6,17.8l54.7,17.8C833.2,1008.4,849.8,976.1,870.9,947.1z M359.6,1723.9
			c-59.7-82-106.9-173.7-138.8-272.3l-54.6,17.8c33.8,104.4,83.8,201.4,147,288.3L359.6,1723.9z M643.2,1847l33.8-46.5h0l33.8-46.5
			c-63.4-46.1-119.2-101.9-165.2-165.2c-45.6-62.7-81.7-132.8-106.1-208.2l54.6-17.8l54.6-17.8c-19.9-61.5-30.7-127.1-30.7-195.3
			s10.8-133.8,30.7-195.3L494,936.7c-21.7,67.1-33.5,138.7-33.5,213.1H345.6c0,86.8,13.7,170.3,39.1,248.6l-54.7,17.8l-54.6,17.8
			c30.1,92.8,74.5,179.1,130.6,256.2l46.5-33.8C505.7,1729.4,570.1,1793.8,643.2,1847z M1398.3,1914.8l-17.8-54.6
			c-72.7,23.6-150.3,36.3-230.8,36.3v57.4C1236.5,1953.9,1320.1,1940.2,1398.3,1914.8z M1398.3,1914.8l-17.8-54.6
			c-72.7,23.6-150.3,36.3-230.8,36.3v57.4C1236.5,1953.9,1320.1,1940.2,1398.3,1914.8z M643.2,1847l33.8-46.5h0l33.8-46.5
			c-63.4-46.1-119.2-101.9-165.2-165.2c-45.6-62.7-81.7-132.8-106.1-208.2l54.6-17.8l54.6-17.8c-19.9-61.5-30.7-127.1-30.7-195.3
			s10.8-133.8,30.7-195.3L494,936.7c-21.7,67.1-33.5,138.7-33.5,213.1H345.6c0,86.8,13.7,170.3,39.1,248.6l-54.7,17.8l-54.6,17.8
			c30.1,92.8,74.5,179.1,130.6,256.2l46.5-33.8C505.7,1729.4,570.1,1793.8,643.2,1847z M359.6,1723.9
			c-59.7-82-106.9-173.7-138.8-272.3l-54.6,17.8c33.8,104.4,83.8,201.4,147,288.3L359.6,1723.9z M1641.6,989.9
			c-16.9-52.2-41.9-100.7-73.5-144.1c-31.9-43.9-70.5-82.5-114.4-114.4c-43.4-31.6-92-56.6-144.1-73.5l-17.8,54.7
			c46.4,15,89.5,37.2,128.1,65.3c39,28.4,73.3,62.7,101.7,101.7c28.1,38.6,50.3,81.7,65.3,128.1c14.5,44.7,22.3,92.5,22.3,142h57.4
			C1666.7,1094,1657.9,1040.3,1641.6,989.9z M1860.1,918.9l-54.6,17.8l-54.6,17.8l-54.6,17.8c9.1,28,16,56.8,20.7,86.5
			s7.2,60.1,7.2,91.1h172.3C1896.4,1069.2,1883.7,991.6,1860.1,918.9z M1707.5,1555l-93-67.5c-35.5,48.7-78.4,91.7-127.1,127.1
			l33.8,46.5l33.8,46.5C1613.5,1665,1665,1613.5,1707.5,1555z M870.9,947.1c21.3-29.2,47-55,76.3-76.3c28.9-21.1,61.3-37.7,96.1-49
			l-0.1-0.2l-8.8-27.1l-8.9-27.3l-17.8-54.6h0c-46.4,15-89.5,37.2-128.1,65.3l33.8,46.5c-34.1,24.8-64.2,54.9-89,89l-46.5-33.8
			c-28.1,38.6-50.3,81.7-65.3,128.1l54.6,17.8l54.7,17.8C833.2,1008.4,849.8,976.1,870.9,947.1z M275.4,865.7
			c30.1-92.8,74.5-179.1,130.6-256.2l-46.5-33.8c-59.7,82-106.9,173.7-138.8,272.3c-30.8,95-47.5,196.5-47.5,301.8h57.4
			C230.8,1050.6,246.4,955.1,275.4,865.7z M710.7,545.5l33.8,46.5c57.9-42.1,122.6-75.4,192.2-98l-17.8-54.6l-17.8-54.6l-17.8-54.7
			l-17.8-54.6c-92.8,30.1-179.1,74.5-256.2,130.6c-78,56.7-146.6,125.4-203.4,203.4l46.5,33.8L499,677l46.5,33.8
			C591.6,647.4,647.4,591.6,710.7,545.5z M1754,710.7l46.5-33.8c-49.6-68.2-109.7-128.3-177.9-177.9l-33.8,46.5L1555,592
			c-57.9-42.1-122.6-75.4-192.2-98l-35.5,109.3c58,18.8,111.9,46.6,160.2,81.7c48.7,35.5,91.7,78.4,127.1,127.1L1754,710.7z
			 M1754,710.7l46.5-33.8c-49.6-68.2-109.7-128.3-177.9-177.9l-33.8,46.5L1555,592c-57.9-42.1-122.6-75.4-192.2-98l-35.5,109.3
			c58,18.8,111.9,46.6,160.2,81.7c48.7,35.5,91.7,78.4,127.1,127.1L1754,710.7z M275.4,865.7c30.1-92.8,74.5-179.1,130.6-256.2
			l-46.5-33.8c-59.7,82-106.9,173.7-138.8,272.3c-30.8,95-47.5,196.5-47.5,301.8h57.4C230.8,1050.6,246.4,955.1,275.4,865.7z
			 M710.7,545.5l33.8,46.5c57.9-42.1,122.6-75.4,192.2-98l-17.8-54.6l-17.8-54.6l-17.8-54.7l-17.8-54.6
			c-92.8,30.1-179.1,74.5-256.2,130.6c-78,56.7-146.6,125.4-203.4,203.4l46.5,33.8L499,677l46.5,33.8
			C591.6,647.4,647.4,591.6,710.7,545.5z M870.9,947.1c21.3-29.2,47-55,76.3-76.3c28.9-21.1,61.3-37.7,96.1-49l-0.1-0.2l-8.8-27.1
			l-8.9-27.3l-17.8-54.6h0c-46.4,15-89.5,37.2-128.1,65.3l33.8,46.5c-34.1,24.8-64.2,54.9-89,89l-46.5-33.8
			c-28.1,38.6-50.3,81.7-65.3,128.1l54.6,17.8l54.7,17.8C833.2,1008.4,849.8,976.1,870.9,947.1z M1860.1,918.9l-54.6,17.8
			l-54.6,17.8l-54.6,17.8c9.1,28,16,56.8,20.7,86.5s7.2,60.1,7.2,91.1h172.3C1896.4,1069.2,1883.7,991.6,1860.1,918.9z
			 M1641.6,989.9c-16.9-52.2-41.9-100.7-73.5-144.1c-31.9-43.9-70.5-82.5-114.4-114.4c-43.4-31.6-92-56.6-144.1-73.5l-17.8,54.7
			c46.4,15,89.5,37.2,128.1,65.3c39,28.4,73.3,62.7,101.7,101.7c28.1,38.6,50.3,81.7,65.3,128.1c14.5,44.7,22.3,92.5,22.3,142h57.4
			C1666.7,1094,1657.9,1040.3,1641.6,989.9z M1707.5,1555l-93-67.5c-35.5,48.7-78.4,91.7-127.1,127.1l33.8,46.5l33.8,46.5
			C1613.5,1665,1665,1613.5,1707.5,1555z M359.6,1723.9c-59.7-82-106.9-173.7-138.8-272.3l-54.6,17.8
			c33.8,104.4,83.8,201.4,147,288.3L359.6,1723.9z M643.2,1847l33.8-46.5h0l33.8-46.5c-63.4-46.1-119.2-101.9-165.2-165.2
			c-45.6-62.7-81.7-132.8-106.1-208.2l54.6-17.8l54.6-17.8c-19.9-61.5-30.7-127.1-30.7-195.3s10.8-133.8,30.7-195.3L494,936.7
			c-21.7,67.1-33.5,138.7-33.5,213.1H345.6c0,86.8,13.7,170.3,39.1,248.6l-54.7,17.8l-54.6,17.8c30.1,92.8,74.5,179.1,130.6,256.2
			l46.5-33.8C505.7,1729.4,570.1,1793.8,643.2,1847z M1398.3,1914.8l-17.8-54.6c-72.7,23.6-150.3,36.3-230.8,36.3v57.4
			C1236.5,1953.9,1320.1,1940.2,1398.3,1914.8z M1398.3,1914.8l-17.8-54.6c-72.7,23.6-150.3,36.3-230.8,36.3v57.4
			C1236.5,1953.9,1320.1,1940.2,1398.3,1914.8z M643.2,1847l33.8-46.5h0l33.8-46.5c-63.4-46.1-119.2-101.9-165.2-165.2
			c-45.6-62.7-81.7-132.8-106.1-208.2l54.6-17.8l54.6-17.8c-19.9-61.5-30.7-127.1-30.7-195.3s10.8-133.8,30.7-195.3L494,936.7
			c-21.7,67.1-33.5,138.7-33.5,213.1H345.6c0,86.8,13.7,170.3,39.1,248.6l-54.7,17.8l-54.6,17.8c30.1,92.8,74.5,179.1,130.6,256.2
			l46.5-33.8C505.7,1729.4,570.1,1793.8,643.2,1847z M359.6,1723.9c-59.7-82-106.9-173.7-138.8-272.3l-54.6,17.8
			c33.8,104.4,83.8,201.4,147,288.3L359.6,1723.9z M1707.5,1555l-93-67.5c-35.5,48.7-78.4,91.7-127.1,127.1l33.8,46.5l33.8,46.5
			C1613.5,1665,1665,1613.5,1707.5,1555z M1860.1,918.9l-54.6,17.8l-54.6,17.8l-54.6,17.8c9.1,28,16,56.8,20.7,86.5
			s7.2,60.1,7.2,91.1h172.3C1896.4,1069.2,1883.7,991.6,1860.1,918.9z M870.9,947.1c21.3-29.2,47-55,76.3-76.3
			c28.9-21.1,61.3-37.7,96.1-49l-0.1-0.2l-8.8-27.1l-8.9-27.3l-17.8-54.6h0c-46.4,15-89.5,37.2-128.1,65.3l33.8,46.5
			c-34.1,24.8-64.2,54.9-89,89l-46.5-33.8c-28.1,38.6-50.3,81.7-65.3,128.1l54.6,17.8l54.7,17.8
			C833.2,1008.4,849.8,976.1,870.9,947.1z M275.4,865.7c30.1-92.8,74.5-179.1,130.6-256.2l-46.5-33.8
			c-59.7,82-106.9,173.7-138.8,272.3c-30.8,95-47.5,196.5-47.5,301.8h57.4C230.8,1050.6,246.4,955.1,275.4,865.7z M710.7,545.5
			l33.8,46.5c57.9-42.1,122.6-75.4,192.2-98l-17.8-54.6l-17.8-54.6l-17.8-54.7l-17.8-54.6c-92.8,30.1-179.1,74.5-256.2,130.6
			c-78,56.7-146.6,125.4-203.4,203.4l46.5,33.8L499,677l46.5,33.8C591.6,647.4,647.4,591.6,710.7,545.5z M1641.6,989.9
			c-16.9-52.2-41.9-100.7-73.5-144.1c-31.9-43.9-70.5-82.5-114.4-114.4c-43.4-31.6-92-56.6-144.1-73.5l-17.8,54.7
			c46.4,15,89.5,37.2,128.1,65.3c39,28.4,73.3,62.7,101.7,101.7c28.1,38.6,50.3,81.7,65.3,128.1c14.5,44.7,22.3,92.5,22.3,142h57.4
			C1666.7,1094,1657.9,1040.3,1641.6,989.9z M1754,710.7l46.5-33.8c-49.6-68.2-109.7-128.3-177.9-177.9l-33.8,46.5L1555,592
			c-57.9-42.1-122.6-75.4-192.2-98l-35.5,109.3c58,18.8,111.9,46.6,160.2,81.7c48.7,35.5,91.7,78.4,127.1,127.1L1754,710.7z
			 M1754,710.7l46.5-33.8c-49.6-68.2-109.7-128.3-177.9-177.9l-33.8,46.5L1555,592c-57.9-42.1-122.6-75.4-192.2-98l-35.5,109.3
			c58,18.8,111.9,46.6,160.2,81.7c48.7,35.5,91.7,78.4,127.1,127.1L1754,710.7z M1641.6,989.9c-16.9-52.2-41.9-100.7-73.5-144.1
			c-31.9-43.9-70.5-82.5-114.4-114.4c-43.4-31.6-92-56.6-144.1-73.5l-17.8,54.7c46.4,15,89.5,37.2,128.1,65.3
			c39,28.4,73.3,62.7,101.7,101.7c28.1,38.6,50.3,81.7,65.3,128.1c14.5,44.7,22.3,92.5,22.3,142h57.4
			C1666.7,1094,1657.9,1040.3,1641.6,989.9z M275.4,865.7c30.1-92.8,74.5-179.1,130.6-256.2l-46.5-33.8
			c-59.7,82-106.9,173.7-138.8,272.3c-30.8,95-47.5,196.5-47.5,301.8h57.4C230.8,1050.6,246.4,955.1,275.4,865.7z M710.7,545.5
			l33.8,46.5c57.9-42.1,122.6-75.4,192.2-98l-17.8-54.6l-17.8-54.6l-17.8-54.7l-17.8-54.6c-92.8,30.1-179.1,74.5-256.2,130.6
			c-78,56.7-146.6,125.4-203.4,203.4l46.5,33.8L499,677l46.5,33.8C591.6,647.4,647.4,591.6,710.7,545.5z M870.9,947.1
			c21.3-29.2,47-55,76.3-76.3c28.9-21.1,61.3-37.7,96.1-49l-0.1-0.2l-8.8-27.1l-8.9-27.3l-17.8-54.6h0
			c-46.4,15-89.5,37.2-128.1,65.3l33.8,46.5c-34.1,24.8-64.2,54.9-89,89l-46.5-33.8c-28.1,38.6-50.3,81.7-65.3,128.1l54.6,17.8
			l54.7,17.8C833.2,1008.4,849.8,976.1,870.9,947.1z M1860.1,918.9l-54.6,17.8l-54.6,17.8l-54.6,17.8c9.1,28,16,56.8,20.7,86.5
			s7.2,60.1,7.2,91.1h172.3C1896.4,1069.2,1883.7,991.6,1860.1,918.9z M1707.5,1555l-93-67.5c-35.5,48.7-78.4,91.7-127.1,127.1
			l33.8,46.5l33.8,46.5C1613.5,1665,1665,1613.5,1707.5,1555z M359.6,1723.9c-59.7-82-106.9-173.7-138.8-272.3l-54.6,17.8
			c33.8,104.4,83.8,201.4,147,288.3L359.6,1723.9z M643.2,1847l33.8-46.5h0l33.8-46.5c-63.4-46.1-119.2-101.9-165.2-165.2
			c-45.6-62.7-81.7-132.8-106.1-208.2l54.6-17.8l54.6-17.8c-19.9-61.5-30.7-127.1-30.7-195.3s10.8-133.8,30.7-195.3L494,936.7
			c-21.7,67.1-33.5,138.7-33.5,213.1H345.6c0,86.8,13.7,170.3,39.1,248.6l-54.7,17.8l-54.6,17.8c30.1,92.8,74.5,179.1,130.6,256.2
			l46.5-33.8C505.7,1729.4,570.1,1793.8,643.2,1847z M1398.3,1914.8l-17.8-54.6c-72.7,23.6-150.3,36.3-230.8,36.3v57.4
			C1236.5,1953.9,1320.1,1940.2,1398.3,1914.8z M1398.3,1914.8l-17.8-54.6c-72.7,23.6-150.3,36.3-230.8,36.3v57.4
			C1236.5,1953.9,1320.1,1940.2,1398.3,1914.8z M643.2,1847l33.8-46.5h0l33.8-46.5c-63.4-46.1-119.2-101.9-165.2-165.2
			c-45.6-62.7-81.7-132.8-106.1-208.2l54.6-17.8l54.6-17.8c-19.9-61.5-30.7-127.1-30.7-195.3s10.8-133.8,30.7-195.3L494,936.7
			c-21.7,67.1-33.5,138.7-33.5,213.1H345.6c0,86.8,13.7,170.3,39.1,248.6l-54.7,17.8l-54.6,17.8c30.1,92.8,74.5,179.1,130.6,256.2
			l46.5-33.8C505.7,1729.4,570.1,1793.8,643.2,1847z M359.6,1723.9c-59.7-82-106.9-173.7-138.8-272.3l-54.6,17.8
			c33.8,104.4,83.8,201.4,147,288.3L359.6,1723.9z M1707.5,1555l-93-67.5c-35.5,48.7-78.4,91.7-127.1,127.1l33.8,46.5l33.8,46.5
			C1613.5,1665,1665,1613.5,1707.5,1555z M1860.1,918.9l-54.6,17.8l-54.6,17.8l-54.6,17.8c9.1,28,16,56.8,20.7,86.5
			s7.2,60.1,7.2,91.1h172.3C1896.4,1069.2,1883.7,991.6,1860.1,918.9z M870.9,947.1c21.3-29.2,47-55,76.3-76.3
			c28.9-21.1,61.3-37.7,96.1-49l-0.1-0.2l-8.8-27.1l-8.9-27.3l-17.8-54.6h0c-46.4,15-89.5,37.2-128.1,65.3l33.8,46.5
			c-34.1,24.8-64.2,54.9-89,89l-46.5-33.8c-28.1,38.6-50.3,81.7-65.3,128.1l54.6,17.8l54.7,17.8
			C833.2,1008.4,849.8,976.1,870.9,947.1z M275.4,865.7c30.1-92.8,74.5-179.1,130.6-256.2l-46.5-33.8
			c-59.7,82-106.9,173.7-138.8,272.3c-30.8,95-47.5,196.5-47.5,301.8h57.4C230.8,1050.6,246.4,955.1,275.4,865.7z M710.7,545.5
			l33.8,46.5c57.9-42.1,122.6-75.4,192.2-98l-17.8-54.6l-17.8-54.6l-17.8-54.7l-17.8-54.6c-92.8,30.1-179.1,74.5-256.2,130.6
			c-78,56.7-146.6,125.4-203.4,203.4l46.5,33.8L499,677l46.5,33.8C591.6,647.4,647.4,591.6,710.7,545.5z M1641.6,989.9
			c-16.9-52.2-41.9-100.7-73.5-144.1c-31.9-43.9-70.5-82.5-114.4-114.4c-43.4-31.6-92-56.6-144.1-73.5l-17.8,54.7
			c46.4,15,89.5,37.2,128.1,65.3c39,28.4,73.3,62.7,101.7,101.7c28.1,38.6,50.3,81.7,65.3,128.1c14.5,44.7,22.3,92.5,22.3,142h57.4
			C1666.7,1094,1657.9,1040.3,1641.6,989.9z M1754,710.7l46.5-33.8c-49.6-68.2-109.7-128.3-177.9-177.9l-33.8,46.5L1555,592
			c-57.9-42.1-122.6-75.4-192.2-98l-35.5,109.3c58,18.8,111.9,46.6,160.2,81.7c48.7,35.5,91.7,78.4,127.1,127.1L1754,710.7z
			 M275.4,865.7c30.1-92.8,74.5-179.1,130.6-256.2l-46.5-33.8c-59.7,82-106.9,173.7-138.8,272.3c-30.8,95-47.5,196.5-47.5,301.8
			h57.4C230.8,1050.6,246.4,955.1,275.4,865.7z M710.7,545.5l33.8,46.5c57.9-42.1,122.6-75.4,192.2-98l-17.8-54.6l-17.8-54.6
			l-17.8-54.7l-17.8-54.6c-92.8,30.1-179.1,74.5-256.2,130.6c-78,56.7-146.6,125.4-203.4,203.4l46.5,33.8L499,677l46.5,33.8
			C591.6,647.4,647.4,591.6,710.7,545.5z M1754,710.7l46.5-33.8c-49.6-68.2-109.7-128.3-177.9-177.9l-33.8,46.5L1555,592
			c-57.9-42.1-122.6-75.4-192.2-98l-35.5,109.3c58,18.8,111.9,46.6,160.2,81.7c48.7,35.5,91.7,78.4,127.1,127.1L1754,710.7z
			 M1641.6,989.9c-16.9-52.2-41.9-100.7-73.5-144.1c-31.9-43.9-70.5-82.5-114.4-114.4c-43.4-31.6-92-56.6-144.1-73.5l-17.8,54.7
			c46.4,15,89.5,37.2,128.1,65.3c39,28.4,73.3,62.7,101.7,101.7c28.1,38.6,50.3,81.7,65.3,128.1c14.5,44.7,22.3,92.5,22.3,142h57.4
			C1666.7,1094,1657.9,1040.3,1641.6,989.9z M870.9,947.1c21.3-29.2,47-55,76.3-76.3c28.9-21.1,61.3-37.7,96.1-49l-0.1-0.2
			l-8.8-27.1l-8.9-27.3l-17.8-54.6h0c-46.4,15-89.5,37.2-128.1,65.3l33.8,46.5c-34.1,24.8-64.2,54.9-89,89l-46.5-33.8
			c-28.1,38.6-50.3,81.7-65.3,128.1l54.6,17.8l54.7,17.8C833.2,1008.4,849.8,976.1,870.9,947.1z M1860.1,918.9l-54.6,17.8
			l-54.6,17.8l-54.6,17.8c9.1,28,16,56.8,20.7,86.5s7.2,60.1,7.2,91.1h172.3C1896.4,1069.2,1883.7,991.6,1860.1,918.9z M643.2,1847
			l33.8-46.5h0l33.8-46.5c-63.4-46.1-119.2-101.9-165.2-165.2c-45.6-62.7-81.7-132.8-106.1-208.2l54.6-17.8l54.6-17.8
			c-19.9-61.5-30.7-127.1-30.7-195.3s10.8-133.8,30.7-195.3L494,936.7c-21.7,67.1-33.5,138.7-33.5,213.1H345.6
			c0,86.8,13.7,170.3,39.1,248.6l-54.7,17.8l-54.6,17.8c30.1,92.8,74.5,179.1,130.6,256.2l46.5-33.8
			C505.7,1729.4,570.1,1793.8,643.2,1847z M1707.5,1555l-93-67.5c-35.5,48.7-78.4,91.7-127.1,127.1l33.8,46.5l33.8,46.5
			C1613.5,1665,1665,1613.5,1707.5,1555z M359.6,1723.9c-59.7-82-106.9-173.7-138.8-272.3l-54.6,17.8
			c33.8,104.4,83.8,201.4,147,288.3L359.6,1723.9z M1398.3,1914.8l-17.8-54.6c-72.7,23.6-150.3,36.3-230.8,36.3v57.4
			C1236.5,1953.9,1320.1,1940.2,1398.3,1914.8z M2298.5,1149.8h-57.4c0-117.8-18.6-231.1-53-337.4l-54.6,17.8
			c-33.8-104.4-83.8-201.4-147-288.3l46.5-33.8c-67.3-92.6-148.9-174.2-241.5-241.5c-91.7-66.7-194.1-119.4-304.3-155.1l-17.8,54.6
			l-17.8,54.6l-17.8,54.7c-89.5-29-184.9-44.7-284.1-44.7v172.3c80.6,0,158.1,12.7,230.8,36.3l17.8-54.6l17.8-54.7
			c87,28.2,167.9,69.8,240.2,122.5l67.5-93c82.8,60.3,155.8,133.2,216.1,216.1c59.7,82,106.9,173.7,138.8,272.3
			c30.8,95,47.5,196.5,47.5,301.8s-16.6,206.8-47.5,301.8l-54.6-17.8l-54.6-17.8l-54.7-17.8l-54.6-17.8
			c-24.4,75.4-60.5,145.5-106.1,208.2l46.5,33.8c-49.6,68.2-109.7,128.3-177.9,177.9l33.8,46.5c-72.4,52.6-153.3,94.3-240.2,122.5
			l17.8,54.6c-89.5,29-184.9,44.7-284.1,44.7v-57.4c-3.4,0-6.8,0-10.2-0.1c-3.4,0-6.8-0.1-10.2-0.2c-1.7,0-3.4-0.1-5.1-0.1
			c-2.1-0.1-4.2-0.1-6.3-0.2c-6.3-0.2-12.7-0.5-19-0.9c-8.4-0.5-16.8-1.1-25.1-1.8c-1.7-0.1-3.3-0.3-5-0.5
			c-7.3-0.7-14.5-1.4-21.7-2.3c-4.8-0.6-9.6-1.2-14.4-1.8c-0.5-0.1-1-0.1-1.5-0.2c-11.3-1.5-22.5-3.3-33.7-5.3
			c-1.9-0.3-3.8-0.7-5.7-1c-3.8-0.7-7.6-1.4-11.4-2.2c-5.6-1.1-11.3-2.3-16.9-3.5c0,0,0,0,0,0c-5.4-1.2-10.9-2.4-16.3-3.7
			c-8.1-1.9-16.2-4-24.2-6.2c-5.4-1.5-10.7-2.9-16-4.5c-4-1.2-7.9-2.4-11.9-3.6c-4-1.2-7.9-2.5-11.8-3.7l-17.8,54.6
			c-92.8-30.1-179.1-74.5-256.2-130.6l-67.5,93l-33.8,46.5c-92.6-67.3-174.2-148.9-241.5-241.5c-66.7-91.7-119.4-194.1-155.1-304.3
			l54.6-17.8c-32.6-100.6-50.3-208-50.3-319.6s17.6-219,50.3-319.6c33.8-104.4,83.8-201.4,147-288.3
			c63.8-87.7,141.1-165,228.8-228.8l33.8,46.5c82-59.7,173.7-106.9,272.3-138.8c95-30.8,196.5-47.5,301.8-47.5V1
			C514.8,1,1,514.8,1,1149.8s513.8,1148.8,1148.8,1148.8S2298.5,1784.7,2298.5,1149.8z M1754,710.7l46.5-33.8
			c-49.6-68.2-109.7-128.3-177.9-177.9l-33.8,46.5L1555,592c-57.9-42.1-122.6-75.4-192.2-98l-35.5,109.3
			c58,18.8,111.9,46.6,160.2,81.7c48.7,35.5,91.7,78.4,127.1,127.1L1754,710.7z M275.4,865.7c30.1-92.8,74.5-179.1,130.6-256.2
			l-46.5-33.8c-59.7,82-106.9,173.7-138.8,272.3c-30.8,95-47.5,196.5-47.5,301.8h57.4C230.8,1050.6,246.4,955.1,275.4,865.7z
			 M710.7,545.5l33.8,46.5c57.9-42.1,122.6-75.4,192.2-98l-17.8-54.6l-17.8-54.6l-17.8-54.7l-17.8-54.6
			c-92.8,30.1-179.1,74.5-256.2,130.6c-78,56.7-146.6,125.4-203.4,203.4l46.5,33.8L499,677l46.5,33.8
			C591.6,647.4,647.4,591.6,710.7,545.5z M870.9,947.1c21.3-29.2,47-55,76.3-76.3c28.9-21.1,61.3-37.7,96.1-49l-0.1-0.2l-8.8-27.1
			l-8.9-27.3l-17.8-54.6h0c-46.4,15-89.5,37.2-128.1,65.3l33.8,46.5c-34.1,24.8-64.2,54.9-89,89l-46.5-33.8
			c-28.1,38.6-50.3,81.7-65.3,128.1l54.6,17.8l54.7,17.8C833.2,1008.4,849.8,976.1,870.9,947.1z M1860.1,918.9l-54.6,17.8
			l-54.6,17.8l-54.6,17.8c9.1,28,16,56.8,20.7,86.5s7.2,60.1,7.2,91.1h172.3C1896.4,1069.2,1883.7,991.6,1860.1,918.9z
			 M1641.6,989.9c-16.9-52.2-41.9-100.7-73.5-144.1c-31.9-43.9-70.5-82.5-114.4-114.4c-43.4-31.6-92-56.6-144.1-73.5l-17.8,54.7
			c46.4,15,89.5,37.2,128.1,65.3c39,28.4,73.3,62.7,101.7,101.7c28.1,38.6,50.3,81.7,65.3,128.1c14.5,44.7,22.3,92.5,22.3,142h57.4
			C1666.7,1094,1657.9,1040.3,1641.6,989.9z M1707.5,1555l-93-67.5c-35.5,48.7-78.4,91.7-127.1,127.1l33.8,46.5l33.8,46.5
			C1613.5,1665,1665,1613.5,1707.5,1555z M359.6,1723.9c-59.7-82-106.9-173.7-138.8-272.3l-54.6,17.8
			c33.8,104.4,83.8,201.4,147,288.3L359.6,1723.9z M643.2,1847l33.8-46.5h0l33.8-46.5c-63.4-46.1-119.2-101.9-165.2-165.2
			c-45.6-62.7-81.7-132.8-106.1-208.2l54.6-17.8l54.6-17.8c-19.9-61.5-30.7-127.1-30.7-195.3s10.8-133.8,30.7-195.3L494,936.7
			c-21.7,67.1-33.5,138.7-33.5,213.1H345.6c0,86.8,13.7,170.3,39.1,248.6l-54.7,17.8l-54.6,17.8c30.1,92.8,74.5,179.1,130.6,256.2
			l46.5-33.8C505.7,1729.4,570.1,1793.8,643.2,1847z M1398.3,1914.8l-17.8-54.6c-72.7,23.6-150.3,36.3-230.8,36.3v57.4
			C1236.5,1953.9,1320.1,1940.2,1398.3,1914.8z M1398.3,1914.8l-17.8-54.6c-72.7,23.6-150.3,36.3-230.8,36.3v57.4
			C1236.5,1953.9,1320.1,1940.2,1398.3,1914.8z M643.2,1847l33.8-46.5h0l33.8-46.5c-63.4-46.1-119.2-101.9-165.2-165.2
			c-45.6-62.7-81.7-132.8-106.1-208.2l54.6-17.8l54.6-17.8c-19.9-61.5-30.7-127.1-30.7-195.3s10.8-133.8,30.7-195.3L494,936.7
			c-21.7,67.1-33.5,138.7-33.5,213.1H345.6c0,86.8,13.7,170.3,39.1,248.6l-54.7,17.8l-54.6,17.8c30.1,92.8,74.5,179.1,130.6,256.2
			l46.5-33.8C505.7,1729.4,570.1,1793.8,643.2,1847z M359.6,1723.9c-59.7-82-106.9-173.7-138.8-272.3l-54.6,17.8
			c33.8,104.4,83.8,201.4,147,288.3L359.6,1723.9z M1707.5,1555l-93-67.5c-35.5,48.7-78.4,91.7-127.1,127.1l33.8,46.5l33.8,46.5
			C1613.5,1665,1665,1613.5,1707.5,1555z M1860.1,918.9l-54.6,17.8l-54.6,17.8l-54.6,17.8c9.1,28,16,56.8,20.7,86.5
			s7.2,60.1,7.2,91.1h172.3C1896.4,1069.2,1883.7,991.6,1860.1,918.9z M870.9,947.1c21.3-29.2,47-55,76.3-76.3
			c28.9-21.1,61.3-37.7,96.1-49l-0.1-0.2l-8.8-27.1l-8.9-27.3l-17.8-54.6h0c-46.4,15-89.5,37.2-128.1,65.3l33.8,46.5
			c-34.1,24.8-64.2,54.9-89,89l-46.5-33.8c-28.1,38.6-50.3,81.7-65.3,128.1l54.6,17.8l54.7,17.8
			C833.2,1008.4,849.8,976.1,870.9,947.1z M275.4,865.7c30.1-92.8,74.5-179.1,130.6-256.2l-46.5-33.8
			c-59.7,82-106.9,173.7-138.8,272.3c-30.8,95-47.5,196.5-47.5,301.8h57.4C230.8,1050.6,246.4,955.1,275.4,865.7z M710.7,545.5
			l33.8,46.5c57.9-42.1,122.6-75.4,192.2-98l-17.8-54.6l-17.8-54.6l-17.8-54.7l-17.8-54.6c-92.8,30.1-179.1,74.5-256.2,130.6
			c-78,56.7-146.6,125.4-203.4,203.4l46.5,33.8L499,677l46.5,33.8C591.6,647.4,647.4,591.6,710.7,545.5z M1641.6,989.9
			c-16.9-52.2-41.9-100.7-73.5-144.1c-31.9-43.9-70.5-82.5-114.4-114.4c-43.4-31.6-92-56.6-144.1-73.5l-17.8,54.7
			c46.4,15,89.5,37.2,128.1,65.3c39,28.4,73.3,62.7,101.7,101.7c28.1,38.6,50.3,81.7,65.3,128.1c14.5,44.7,22.3,92.5,22.3,142h57.4
			C1666.7,1094,1657.9,1040.3,1641.6,989.9z M1754,710.7l46.5-33.8c-49.6-68.2-109.7-128.3-177.9-177.9l-33.8,46.5L1555,592
			c-57.9-42.1-122.6-75.4-192.2-98l-35.5,109.3c58,18.8,111.9,46.6,160.2,81.7c48.7,35.5,91.7,78.4,127.1,127.1L1754,710.7z
			 M1754,710.7l46.5-33.8c-49.6-68.2-109.7-128.3-177.9-177.9l-33.8,46.5L1555,592c-57.9-42.1-122.6-75.4-192.2-98l-35.5,109.3
			c58,18.8,111.9,46.6,160.2,81.7c48.7,35.5,91.7,78.4,127.1,127.1L1754,710.7z M1641.6,989.9c-16.9-52.2-41.9-100.7-73.5-144.1
			c-31.9-43.9-70.5-82.5-114.4-114.4c-43.4-31.6-92-56.6-144.1-73.5l-17.8,54.7c46.4,15,89.5,37.2,128.1,65.3
			c39,28.4,73.3,62.7,101.7,101.7c28.1,38.6,50.3,81.7,65.3,128.1c14.5,44.7,22.3,92.5,22.3,142h57.4
			C1666.7,1094,1657.9,1040.3,1641.6,989.9z M275.4,865.7c30.1-92.8,74.5-179.1,130.6-256.2l-46.5-33.8
			c-59.7,82-106.9,173.7-138.8,272.3c-30.8,95-47.5,196.5-47.5,301.8h57.4C230.8,1050.6,246.4,955.1,275.4,865.7z M710.7,545.5
			l33.8,46.5c57.9-42.1,122.6-75.4,192.2-98l-17.8-54.6l-17.8-54.6l-17.8-54.7l-17.8-54.6c-92.8,30.1-179.1,74.5-256.2,130.6
			c-78,56.7-146.6,125.4-203.4,203.4l46.5,33.8L499,677l46.5,33.8C591.6,647.4,647.4,591.6,710.7,545.5z M870.9,947.1
			c21.3-29.2,47-55,76.3-76.3c28.9-21.1,61.3-37.7,96.1-49l-0.1-0.2l-8.8-27.1l-8.9-27.3l-17.8-54.6h0
			c-46.4,15-89.5,37.2-128.1,65.3l33.8,46.5c-34.1,24.8-64.2,54.9-89,89l-46.5-33.8c-28.1,38.6-50.3,81.7-65.3,128.1l54.6,17.8
			l54.7,17.8C833.2,1008.4,849.8,976.1,870.9,947.1z M1860.1,918.9l-54.6,17.8l-54.6,17.8l-54.6,17.8c9.1,28,16,56.8,20.7,86.5
			s7.2,60.1,7.2,91.1h172.3C1896.4,1069.2,1883.7,991.6,1860.1,918.9z M1707.5,1555l-93-67.5c-35.5,48.7-78.4,91.7-127.1,127.1
			l33.8,46.5l33.8,46.5C1613.5,1665,1665,1613.5,1707.5,1555z M359.6,1723.9c-59.7-82-106.9-173.7-138.8-272.3l-54.6,17.8
			c33.8,104.4,83.8,201.4,147,288.3L359.6,1723.9z M643.2,1847l33.8-46.5h0l33.8-46.5c-63.4-46.1-119.2-101.9-165.2-165.2
			c-45.6-62.7-81.7-132.8-106.1-208.2l54.6-17.8l54.6-17.8c-19.9-61.5-30.7-127.1-30.7-195.3s10.8-133.8,30.7-195.3L494,936.7
			c-21.7,67.1-33.5,138.7-33.5,213.1H345.6c0,86.8,13.7,170.3,39.1,248.6l-54.7,17.8l-54.6,17.8c30.1,92.8,74.5,179.1,130.6,256.2
			l46.5-33.8C505.7,1729.4,570.1,1793.8,643.2,1847z M1398.3,1914.8l-17.8-54.6c-72.7,23.6-150.3,36.3-230.8,36.3v57.4
			C1236.5,1953.9,1320.1,1940.2,1398.3,1914.8z M1398.3,1914.8l-17.8-54.6c-72.7,23.6-150.3,36.3-230.8,36.3v57.4
			C1236.5,1953.9,1320.1,1940.2,1398.3,1914.8z M643.2,1847l33.8-46.5h0l33.8-46.5c-63.4-46.1-119.2-101.9-165.2-165.2
			c-45.6-62.7-81.7-132.8-106.1-208.2l54.6-17.8l54.6-17.8c-19.9-61.5-30.7-127.1-30.7-195.3s10.8-133.8,30.7-195.3L494,936.7
			c-21.7,67.1-33.5,138.7-33.5,213.1H345.6c0,86.8,13.7,170.3,39.1,248.6l-54.7,17.8l-54.6,17.8c30.1,92.8,74.5,179.1,130.6,256.2
			l46.5-33.8C505.7,1729.4,570.1,1793.8,643.2,1847z M359.6,1723.9c-59.7-82-106.9-173.7-138.8-272.3l-54.6,17.8
			c33.8,104.4,83.8,201.4,147,288.3L359.6,1723.9z M1707.5,1555l-93-67.5c-35.5,48.7-78.4,91.7-127.1,127.1l33.8,46.5l33.8,46.5
			C1613.5,1665,1665,1613.5,1707.5,1555z M1860.1,918.9l-54.6,17.8l-54.6,17.8l-54.6,17.8c9.1,28,16,56.8,20.7,86.5
			s7.2,60.1,7.2,91.1h172.3C1896.4,1069.2,1883.7,991.6,1860.1,918.9z M870.9,947.1c21.3-29.2,47-55,76.3-76.3
			c28.9-21.1,61.3-37.7,96.1-49l-0.1-0.2l-8.8-27.1l-8.9-27.3l-17.8-54.6h0c-46.4,15-89.5,37.2-128.1,65.3l33.8,46.5
			c-34.1,24.8-64.2,54.9-89,89l-46.5-33.8c-28.1,38.6-50.3,81.7-65.3,128.1l54.6,17.8l54.7,17.8
			C833.2,1008.4,849.8,976.1,870.9,947.1z M275.4,865.7c30.1-92.8,74.5-179.1,130.6-256.2l-46.5-33.8
			c-59.7,82-106.9,173.7-138.8,272.3c-30.8,95-47.5,196.5-47.5,301.8h57.4C230.8,1050.6,246.4,955.1,275.4,865.7z M710.7,545.5
			l33.8,46.5c57.9-42.1,122.6-75.4,192.2-98l-17.8-54.6l-17.8-54.6l-17.8-54.7l-17.8-54.6c-92.8,30.1-179.1,74.5-256.2,130.6
			c-78,56.7-146.6,125.4-203.4,203.4l46.5,33.8L499,677l46.5,33.8C591.6,647.4,647.4,591.6,710.7,545.5z M1641.6,989.9
			c-16.9-52.2-41.9-100.7-73.5-144.1c-31.9-43.9-70.5-82.5-114.4-114.4c-43.4-31.6-92-56.6-144.1-73.5l-17.8,54.7
			c46.4,15,89.5,37.2,128.1,65.3c39,28.4,73.3,62.7,101.7,101.7c28.1,38.6,50.3,81.7,65.3,128.1c14.5,44.7,22.3,92.5,22.3,142h57.4
			C1666.7,1094,1657.9,1040.3,1641.6,989.9z M1754,710.7l46.5-33.8c-49.6-68.2-109.7-128.3-177.9-177.9l-33.8,46.5L1555,592
			c-57.9-42.1-122.6-75.4-192.2-98l-35.5,109.3c58,18.8,111.9,46.6,160.2,81.7c48.7,35.5,91.7,78.4,127.1,127.1L1754,710.7z
			 M1754,710.7l46.5-33.8c-49.6-68.2-109.7-128.3-177.9-177.9l-33.8,46.5L1555,592c-57.9-42.1-122.6-75.4-192.2-98l-35.5,109.3
			c58,18.8,111.9,46.6,160.2,81.7c48.7,35.5,91.7,78.4,127.1,127.1L1754,710.7z M275.4,865.7c30.1-92.8,74.5-179.1,130.6-256.2
			l-46.5-33.8c-59.7,82-106.9,173.7-138.8,272.3c-30.8,95-47.5,196.5-47.5,301.8h57.4C230.8,1050.6,246.4,955.1,275.4,865.7z
			 M710.7,545.5l33.8,46.5c57.9-42.1,122.6-75.4,192.2-98l-17.8-54.6l-17.8-54.6l-17.8-54.7l-17.8-54.6
			c-92.8,30.1-179.1,74.5-256.2,130.6c-78,56.7-146.6,125.4-203.4,203.4l46.5,33.8L499,677l46.5,33.8
			C591.6,647.4,647.4,591.6,710.7,545.5z M870.9,947.1c21.3-29.2,47-55,76.3-76.3c28.9-21.1,61.3-37.7,96.1-49l-0.1-0.2l-8.8-27.1
			l-8.9-27.3l-17.8-54.6h0c-46.4,15-89.5,37.2-128.1,65.3l33.8,46.5c-34.1,24.8-64.2,54.9-89,89l-46.5-33.8
			c-28.1,38.6-50.3,81.7-65.3,128.1l54.6,17.8l54.7,17.8C833.2,1008.4,849.8,976.1,870.9,947.1z M1860.1,918.9l-54.6,17.8
			l-54.6,17.8l-54.6,17.8c9.1,28,16,56.8,20.7,86.5s7.2,60.1,7.2,91.1h172.3C1896.4,1069.2,1883.7,991.6,1860.1,918.9z
			 M1641.6,989.9c-16.9-52.2-41.9-100.7-73.5-144.1c-31.9-43.9-70.5-82.5-114.4-114.4c-43.4-31.6-92-56.6-144.1-73.5l-17.8,54.7
			c46.4,15,89.5,37.2,128.1,65.3c39,28.4,73.3,62.7,101.7,101.7c28.1,38.6,50.3,81.7,65.3,128.1c14.5,44.7,22.3,92.5,22.3,142h57.4
			C1666.7,1094,1657.9,1040.3,1641.6,989.9z M1707.5,1555l-93-67.5c-35.5,48.7-78.4,91.7-127.1,127.1l33.8,46.5l33.8,46.5
			C1613.5,1665,1665,1613.5,1707.5,1555z M359.6,1723.9c-59.7-82-106.9-173.7-138.8-272.3l-54.6,17.8
			c33.8,104.4,83.8,201.4,147,288.3L359.6,1723.9z M643.2,1847l33.8-46.5h0l33.8-46.5c-63.4-46.1-119.2-101.9-165.2-165.2
			c-45.6-62.7-81.7-132.8-106.1-208.2l54.6-17.8l54.6-17.8c-19.9-61.5-30.7-127.1-30.7-195.3s10.8-133.8,30.7-195.3L494,936.7
			c-21.7,67.1-33.5,138.7-33.5,213.1H345.6c0,86.8,13.7,170.3,39.1,248.6l-54.7,17.8l-54.6,17.8c30.1,92.8,74.5,179.1,130.6,256.2
			l46.5-33.8C505.7,1729.4,570.1,1793.8,643.2,1847z M1398.3,1914.8l-17.8-54.6c-72.7,23.6-150.3,36.3-230.8,36.3v57.4
			C1236.5,1953.9,1320.1,1940.2,1398.3,1914.8z M1398.3,1914.8l-17.8-54.6c-72.7,23.6-150.3,36.3-230.8,36.3v57.4
			C1236.5,1953.9,1320.1,1940.2,1398.3,1914.8z M643.2,1847l33.8-46.5h0l33.8-46.5c-63.4-46.1-119.2-101.9-165.2-165.2
			c-45.6-62.7-81.7-132.8-106.1-208.2l54.6-17.8l54.6-17.8c-19.9-61.5-30.7-127.1-30.7-195.3s10.8-133.8,30.7-195.3L494,936.7
			c-21.7,67.1-33.5,138.7-33.5,213.1H345.6c0,86.8,13.7,170.3,39.1,248.6l-54.7,17.8l-54.6,17.8c30.1,92.8,74.5,179.1,130.6,256.2
			l46.5-33.8C505.7,1729.4,570.1,1793.8,643.2,1847z M359.6,1723.9c-59.7-82-106.9-173.7-138.8-272.3l-54.6,17.8
			c33.8,104.4,83.8,201.4,147,288.3L359.6,1723.9z M1641.6,989.9c-16.9-52.2-41.9-100.7-73.5-144.1
			c-31.9-43.9-70.5-82.5-114.4-114.4c-43.4-31.6-92-56.6-144.1-73.5l-17.8,54.7c46.4,15,89.5,37.2,128.1,65.3
			c39,28.4,73.3,62.7,101.7,101.7c28.1,38.6,50.3,81.7,65.3,128.1c14.5,44.7,22.3,92.5,22.3,142h57.4
			C1666.7,1094,1657.9,1040.3,1641.6,989.9z M1860.1,918.9l-54.6,17.8l-54.6,17.8l-54.6,17.8c9.1,28,16,56.8,20.7,86.5
			s7.2,60.1,7.2,91.1h172.3C1896.4,1069.2,1883.7,991.6,1860.1,918.9z M1707.5,1555l-93-67.5c-35.5,48.7-78.4,91.7-127.1,127.1
			l33.8,46.5l33.8,46.5C1613.5,1665,1665,1613.5,1707.5,1555z M870.9,947.1c21.3-29.2,47-55,76.3-76.3c28.9-21.1,61.3-37.7,96.1-49
			l-0.1-0.2l-8.8-27.1l-8.9-27.3l-17.8-54.6h0c-46.4,15-89.5,37.2-128.1,65.3l33.8,46.5c-34.1,24.8-64.2,54.9-89,89l-46.5-33.8
			c-28.1,38.6-50.3,81.7-65.3,128.1l54.6,17.8l54.7,17.8C833.2,1008.4,849.8,976.1,870.9,947.1z M275.4,865.7
			c30.1-92.8,74.5-179.1,130.6-256.2l-46.5-33.8c-59.7,82-106.9,173.7-138.8,272.3c-30.8,95-47.5,196.5-47.5,301.8h57.4
			C230.8,1050.6,246.4,955.1,275.4,865.7z M710.7,545.5l33.8,46.5c57.9-42.1,122.6-75.4,192.2-98l-17.8-54.6l-17.8-54.6l-17.8-54.7
			l-17.8-54.6c-92.8,30.1-179.1,74.5-256.2,130.6c-78,56.7-146.6,125.4-203.4,203.4l46.5,33.8L499,677l46.5,33.8
			C591.6,647.4,647.4,591.6,710.7,545.5z M1754,710.7l46.5-33.8c-49.6-68.2-109.7-128.3-177.9-177.9l-33.8,46.5L1555,592
			c-57.9-42.1-122.6-75.4-192.2-98l-35.5,109.3c58,18.8,111.9,46.6,160.2,81.7c48.7,35.5,91.7,78.4,127.1,127.1L1754,710.7z
			 M275.4,865.7c30.1-92.8,74.5-179.1,130.6-256.2l-46.5-33.8c-59.7,82-106.9,173.7-138.8,272.3c-30.8,95-47.5,196.5-47.5,301.8
			h57.4C230.8,1050.6,246.4,955.1,275.4,865.7z M710.7,545.5l33.8,46.5c57.9-42.1,122.6-75.4,192.2-98l-17.8-54.6l-17.8-54.6
			l-17.8-54.7l-17.8-54.6c-92.8,30.1-179.1,74.5-256.2,130.6c-78,56.7-146.6,125.4-203.4,203.4l46.5,33.8L499,677l46.5,33.8
			C591.6,647.4,647.4,591.6,710.7,545.5z M870.9,947.1c21.3-29.2,47-55,76.3-76.3c28.9-21.1,61.3-37.7,96.1-49l-0.1-0.2l-8.8-27.1
			l-8.9-27.3l-17.8-54.6h0c-46.4,15-89.5,37.2-128.1,65.3l33.8,46.5c-34.1,24.8-64.2,54.9-89,89l-46.5-33.8
			c-28.1,38.6-50.3,81.7-65.3,128.1l54.6,17.8l54.7,17.8C833.2,1008.4,849.8,976.1,870.9,947.1z M1641.6,989.9
			c-16.9-52.2-41.9-100.7-73.5-144.1c-31.9-43.9-70.5-82.5-114.4-114.4c-43.4-31.6-92-56.6-144.1-73.5l-17.8,54.7
			c46.4,15,89.5,37.2,128.1,65.3c39,28.4,73.3,62.7,101.7,101.7c28.1,38.6,50.3,81.7,65.3,128.1c14.5,44.7,22.3,92.5,22.3,142h57.4
			C1666.7,1094,1657.9,1040.3,1641.6,989.9z M1860.1,918.9l-54.6,17.8l-54.6,17.8l-54.6,17.8c9.1,28,16,56.8,20.7,86.5
			s7.2,60.1,7.2,91.1h172.3C1896.4,1069.2,1883.7,991.6,1860.1,918.9z M1707.5,1555l-93-67.5c-35.5,48.7-78.4,91.7-127.1,127.1
			l33.8,46.5l33.8,46.5C1613.5,1665,1665,1613.5,1707.5,1555z M1754,710.7l46.5-33.8c-49.6-68.2-109.7-128.3-177.9-177.9l-33.8,46.5
			L1555,592c-57.9-42.1-122.6-75.4-192.2-98l-35.5,109.3c58,18.8,111.9,46.6,160.2,81.7c48.7,35.5,91.7,78.4,127.1,127.1L1754,710.7
			z M1398.3,1914.8l-17.8-54.6c-72.7,23.6-150.3,36.3-230.8,36.3v57.4C1236.5,1953.9,1320.1,1940.2,1398.3,1914.8z M1398.3,1914.8
			l-17.8-54.6c-72.7,23.6-150.3,36.3-230.8,36.3v57.4C1236.5,1953.9,1320.1,1940.2,1398.3,1914.8z M870.9,947.1
			c21.3-29.2,47-55,76.3-76.3c28.9-21.1,61.3-37.7,96.1-49l-0.1-0.2l-8.8-27.1l-8.9-27.3l-17.8-54.6h0
			c-46.4,15-89.5,37.2-128.1,65.3l33.8,46.5c-34.1,24.8-64.2,54.9-89,89l-46.5-33.8c-28.1,38.6-50.3,81.7-65.3,128.1l54.6,17.8
			l54.7,17.8C833.2,1008.4,849.8,976.1,870.9,947.1z M275.4,865.7c30.1-92.8,74.5-179.1,130.6-256.2l-46.5-33.8
			c-59.7,82-106.9,173.7-138.8,272.3c-30.8,95-47.5,196.5-47.5,301.8h57.4C230.8,1050.6,246.4,955.1,275.4,865.7z M710.7,545.5
			l33.8,46.5c57.9-42.1,122.6-75.4,192.2-98l-17.8-54.6l-17.8-54.6l-17.8-54.7l-17.8-54.6c-92.8,30.1-179.1,74.5-256.2,130.6
			c-78,56.7-146.6,125.4-203.4,203.4l46.5,33.8L499,677l46.5,33.8C591.6,647.4,647.4,591.6,710.7,545.5z M1641.6,989.9
			c-16.9-52.2-41.9-100.7-73.5-144.1c-31.9-43.9-70.5-82.5-114.4-114.4c-43.4-31.6-92-56.6-144.1-73.5l-17.8,54.7
			c46.4,15,89.5,37.2,128.1,65.3c39,28.4,73.3,62.7,101.7,101.7c28.1,38.6,50.3,81.7,65.3,128.1c14.5,44.7,22.3,92.5,22.3,142h57.4
			C1666.7,1094,1657.9,1040.3,1641.6,989.9z M1860.1,918.9l-54.6,17.8l-54.6,17.8l-54.6,17.8c9.1,28,16,56.8,20.7,86.5
			s7.2,60.1,7.2,91.1h172.3C1896.4,1069.2,1883.7,991.6,1860.1,918.9z M1707.5,1555l-93-67.5c-35.5,48.7-78.4,91.7-127.1,127.1
			l33.8,46.5l33.8,46.5C1613.5,1665,1665,1613.5,1707.5,1555z M1754,710.7l46.5-33.8c-49.6-68.2-109.7-128.3-177.9-177.9l-33.8,46.5
			L1555,592c-57.9-42.1-122.6-75.4-192.2-98l-35.5,109.3c58,18.8,111.9,46.6,160.2,81.7c48.7,35.5,91.7,78.4,127.1,127.1L1754,710.7
			z M870.9,947.1c21.3-29.2,47-55,76.3-76.3c28.9-21.1,61.3-37.7,96.1-49l-0.1-0.2l-8.8-27.1l-8.9-27.3l-17.8-54.6h0
			c-46.4,15-89.5,37.2-128.1,65.3l33.8,46.5c-34.1,24.8-64.2,54.9-89,89l-46.5-33.8c-28.1,38.6-50.3,81.7-65.3,128.1l54.6,17.8
			l54.7,17.8C833.2,1008.4,849.8,976.1,870.9,947.1z M1641.6,989.9c-16.9-52.2-41.9-100.7-73.5-144.1
			c-31.9-43.9-70.5-82.5-114.4-114.4c-43.4-31.6-92-56.6-144.1-73.5l-17.8,54.7c46.4,15,89.5,37.2,128.1,65.3
			c39,28.4,73.3,62.7,101.7,101.7c28.1,38.6,50.3,81.7,65.3,128.1c14.5,44.7,22.3,92.5,22.3,142h57.4
			C1666.7,1094,1657.9,1040.3,1641.6,989.9z M1568.1,845.8c-31.9-43.9-70.5-82.5-114.4-114.4c-43.4-31.6-92-56.6-144.1-73.5
			l-17.8,54.7c46.4,15,89.5,37.2,128.1,65.3c39,28.4,73.3,62.7,101.7,101.7L1568.1,845.8z M870.9,947.1c21.3-29.2,47-55,76.3-76.3
			c28.9-21.1,61.3-37.7,96.1-49l-0.1-0.2l-8.8-27.1l-8.9-27.3l-17.8-54.6h0c-46.4,15-89.5,37.2-128.1,65.3l33.8,46.5
			c-34.1,24.8-64.2,54.9-89,89l-46.5-33.8c-28.1,38.6-50.3,81.7-65.3,128.1l54.6,17.8l54.7,17.8
			C833.2,1008.4,849.8,976.1,870.9,947.1z"/>
		<path class="st1" d="M2068.8,1149.8h-114.9c0-86.8-13.7-170.3-39.1-248.6c-26.3-81.2-65.2-156.7-114.3-224.2l46.5-33.8l46.5-33.8
			c56.1,77.2,100.6,163.5,130.6,256.2C2053.1,955.1,2068.8,1050.6,2068.8,1149.8z"/>
		<path class="st1" d="M989.9,1641.6c50.3,16.3,104,25.1,159.8,25.1s109.5-8.8,159.8-25.1l-17.8-54.7l-17.8-54.6
			c40.6-13.2,78.3-32.6,112.1-57.2l33.8,46.5c39-28.4,73.3-62.7,101.7-101.7c28.1-38.6,50.3-81.7,65.3-128.1l-54.6-17.8
			c12.7-39.1,19.5-80.9,19.5-124.3h-57.4c0,37.2-5.9,73-16.8,106.5c-11.3,34.8-27.9,67.1-49,96.1c-21.3,29.2-47,55-76.3,76.3
			l-33.8-46.5c-24.1,17.5-51.1,31.4-80.1,40.8c-28,9.1-57.8,14-88.8,14v114.9c-43.4,0-85.2-6.9-124.3-19.5
			c-40.6-13.2-78.3-32.6-112.1-57.2l-67.5,93c-43.9-31.9-82.5-70.5-114.4-114.4c-31.6-43.4-56.6-92-73.5-144.1
			c-16.3-50.3-25.1-104-25.1-159.8s8.8-109.5,25.1-159.8c16.9-52.2,41.9-100.7,73.5-144.1c31.9-43.8,70.5-82.5,114.3-114.3l0.1-0.1
			L812,684.9c-48.7,35.5-91.7,78.4-127.1,127.1l-93-67.5c-42.1,57.9-75.4,122.6-98,192.2l54.6,17.8l54.6,17.8
			c-18.1,55.9-27.9,115.6-27.9,177.6s9.8,121.7,27.9,177.6c18.8,58,46.6,111.9,81.6,160.2c35.5,48.7,78.4,91.7,127.1,127.1
			c48.2,35.1,102.2,62.9,160.2,81.7L989.9,1641.6z"/>
		<path class="st1" d="M288.2,1149.8h-57.4c0-99.2,15.7-194.6,44.7-284.1c30.1-92.8,74.5-179.1,130.6-256.2l46.5,33.8L499,677
			l46.5,33.8c-45.6,62.7-81.7,132.8-106.1,208.2l-54.6-17.8L330,883.4C302.9,967.3,288.2,1056.8,288.2,1149.8z"/>
		<path class="st1" d="M1043.2,1477.6c-34.8-11.3-67.1-27.9-96.1-49l33.8-46.5c24.1,17.5,51.1,31.4,80.1,40.8L1043.2,1477.6z"/>
		<path class="st1" d="M777.9,1419.9c-28.1-38.6-50.3-81.7-65.3-128.1c-14.5-44.7-22.3-92.5-22.3-142h114.9
			c0,37.2,5.9,73,16.8,106.5c11.3,34.8,27.9,67.1,49,96.1L777.9,1419.9z"/>
		<path class="st1" d="M1352.4,870.9l-33.8,46.5c-24.1-17.5-51.1-31.4-80.1-40.8c-28-9.1-57.8-14-88.8-14V747.7
			c21.7,0,43,1.7,63.7,5c20.8,3.3,41,8.2,60.6,14.5c40.6,13.2,78.3,32.6,112.1,57.2c34.1,24.8,64.2,54.9,89,89
			c24.6,33.8,44,71.5,57.2,112.1l-54.7,17.8c-11.3-34.8-27.9-67.1-49-96.1C1407.4,917.9,1381.6,892.1,1352.4,870.9z"/>
		<path class="st1" d="M1382.2,1318.6l-46.5-33.8c14-19.3,25.1-40.9,32.7-64.1c7.2-22.4,11.2-46.2,11.2-71s-3.9-48.7-11.2-71
			l-54.7,17.8c-5.6-17.4-14-33.6-24.5-48l46.5-33.8l46.5-33.8c17.5,24.1,31.4,51.1,40.8,80.1c9.1,28,14,57.8,14,88.8
			s-4.9,60.8-14,88.8C1413.6,1267.5,1399.7,1294.5,1382.2,1318.6z"/>
		<path class="st1" d="M1149.8,1379.5v-172.3c6.2,0,12.2-1,17.8-2.8l17.8,54.6c11.6-3.8,22.4-9.3,32-16.3l-33.8-46.5
			c4.9-3.5,9.2-7.8,12.7-12.7l93,67.5l31,22.5l15.5,11.3c-14.2,19.5-31.3,36.7-50.8,50.8c-19.3,14-40.9,25.1-64.1,32.7
			C1198.4,1375.6,1174.5,1379.5,1149.8,1379.5z"/>
		<path class="st1" d="M917.3,1318.6c-17.5-24.1-31.4-51.1-40.8-80.1c-9.1-28-14-57.8-14-88.8s4.9-60.8,14-88.8
			c9.4-29,23.3-56,40.8-80.1c17.7-24.4,39.2-45.8,63.5-63.5c24.1-17.5,51.1-31.4,80.1-40.8l17.8,54.6l0.4,1.2l17.4,53.4l17.8,54.6
			l17.8,54.6c-5.8,1.9-11.2,4.7-16,8.2c-4.9,3.5-9.2,7.8-12.7,12.7c-3.5,4.8-6.3,10.2-8.2,16l-54.6-17.8l-54.6-17.8l-54.7-17.8
			c-7.2,22.4-11.2,46.2-11.2,71s3.9,48.7,11.2,71c7.5,23.2,18.6,44.8,32.7,64.1L917.3,1318.6z"/>
		<path class="st1" d="M1078.7,1368.3c-23.2-7.5-44.8-18.6-64.1-32.7l101.3-139.4c4.8,3.5,10.2,6.3,16,8.2l-17.8,54.6l-17.8,54.6
			L1078.7,1368.3z"/>
		<path class="st1" d="M1217.3,1056.8c-9.7-7-20.4-12.6-32-16.3c-5.6-1.8-11.4-3.2-17.3-4.2c-5.9-0.9-12-1.4-18.2-1.4V920
			c12.4,0,24.6,1,36.4,2.9c11.9,1.9,23.4,4.7,34.6,8.3c23.2,7.5,44.8,18.6,64.1,32.7L1217.3,1056.8z"/>
		<path class="st1" d="M1204.4,1132c-1.9-5.8-4.7-11.2-8.2-16c-3.5-4.9-7.8-9.2-12.7-12.7l33.8-46.5c9.7,7.1,18.3,15.7,25.4,25.4
			c7,9.7,12.6,20.4,16.3,32L1204.4,1132z"/>
		<path class="st1" d="M1313.7,1203l-54.6-17.8l-54.6-17.8c1.8-5.6,2.8-11.6,2.8-17.8h114.9
			C1322.1,1168.3,1319.1,1186.2,1313.7,1203z"/>
		<path class="st1" d="M1010.3,1251.1c-10.5-14.5-18.9-30.6-24.5-48l54.6-17.8c-3.6-11.2-5.6-23.1-5.6-35.5h57.4
			c0,6.2,1,12.2,2.8,17.8c1.9,5.8,4.7,11.2,8.2,16L1010.3,1251.1z"/>
	</g>
</g>
</svg>
