<?xml version="1.0" encoding="utf-8"?>
<!-- Generator: Adobe Illustrator 22.0.0, SVG Export Plug-In . SVG Version: 6.00 Build 0)  -->
<svg version="1.1" id="Layer_1" xmlns="http://www.w3.org/2000/svg" xmlns:xlink="http://www.w3.org/1999/xlink" x="0px" y="0px"
	 viewBox="0 0 383.3 122.3" style="enable-background:new 0 0 383.3 122.3;" xml:space="preserve">
<style type="text/css">
	.st0{fill:#FFFFFF;}
	.st1{opacity:0.5;}
	.st2{opacity:0.75;}
	.st3{opacity:0.85;}
	.st4{opacity:0.4;}
	.st5{clip-path:url(#SVGID_2_);fill:#FFFFFF;}
	.st6{clip-path:url(#SVGID_4_);fill:#FFFFFF;}
	.st7{clip-path:url(#SVGID_6_);fill:#FFFFFF;}
	.st8{clip-path:url(#SVGID_8_);fill:#FFFFFF;}
	.st9{opacity:0.8;}
	.st10{clip-path:url(#SVGID_10_);fill:#FFFFFF;}
</style>
<g>
	<path class="st0" d="M223.3,77.2c-4,0-7.2-3.2-7.2-7.2s3.2-7.2,7.2-7.2c4,0,7.2,3.2,7.2,7.2S227.3,77.2,223.3,77.2z M223.3,64
		c-3.4,0-6.1,2.7-6.1,6s2.7,6,6.1,6c3.4,0,6.1-2.7,6.1-6S226.7,64,223.3,64z"/>
	<path class="st0" d="M223.4,53.3c-0.5-1-0.7-2.1-0.7-3.2c0-4.1,3.4-7.5,7.6-7.5s7.6,3.4,7.6,7.5c0,0.8-0.1,1.6-0.4,2.4l-1.1-0.4
		c0.2-0.7,0.3-1.3,0.3-2c0-3.5-2.9-6.4-6.4-6.4s-6.4,2.9-6.4,6.4c0,0.9,0.2,1.8,0.6,2.7L223.4,53.3z"/>
	<path class="st0" d="M227.1,56.9c-1.6-0.7-2.9-2-3.7-3.6l1-0.5c0.6,1.4,1.8,2.5,3.1,3.1L227.1,56.9z"/>
	<path class="st0" d="M223.3,73.6c-2,0-3.6-1.6-3.6-3.6c0-2,1.6-3.6,3.6-3.6c2,0,3.6,1.6,3.6,3.6C226.9,72,225.3,73.6,223.3,73.6z
		 M223.3,67.6c-1.4,0-2.5,1.1-2.5,2.5c0,1.4,1.1,2.5,2.5,2.5s2.5-1.1,2.5-2.5C225.8,68.7,224.7,67.6,223.3,67.6z"/>
	<path class="st0" d="M223.3,72.1c-1.2,0-2.1-0.9-2.1-2.1s0.9-2.1,2.1-2.1c1.2,0,2.1,0.9,2.1,2.1S224.5,72.1,223.3,72.1z M223.3,69
		c-0.5,0-1,0.4-1,1s0.4,1,1,1c0.6,0,1-0.4,1-1S223.9,69,223.3,69z"/>
	<path class="st0" d="M223.8,70c0,0.3-0.2,0.5-0.5,0.5c-0.3,0-0.5-0.2-0.5-0.5c0-0.3,0.2-0.5,0.5-0.5
		C223.6,69.5,223.8,69.7,223.8,70"/>
	<g class="st1">
		<g>
			<path class="st0" d="M210.2,84.8c-1.9,0-3.7-0.7-5.1-2.1l0.8-0.8c1.1,1.1,2.7,1.7,4.3,1.7c3.4,0,6.1-2.7,6.1-6c0-3.3-2.7-6-6.1-6
				c-2.2,0-4.3,1.2-5.4,3.2l-1-0.5c1.3-2.3,3.7-3.7,6.3-3.7c4,0,7.2,3.2,7.2,7.2C217.4,81.6,214.1,84.8,210.2,84.8z"/>
			<path class="st0" d="M210.2,81.2c-2,0-3.6-1.6-3.6-3.6c0-2,1.6-3.6,3.6-3.6c2,0,3.6,1.6,3.6,3.6
				C213.8,79.6,212.2,81.2,210.2,81.2z M210.2,75.2c-1.4,0-2.5,1.1-2.5,2.5c0,1.4,1.1,2.5,2.5,2.5c1.4,0,2.5-1.1,2.5-2.5
				C212.7,76.3,211.5,75.2,210.2,75.2z"/>
			<path class="st0" d="M210.2,79.7c-1.2,0-2.1-0.9-2.1-2.1c0-1.2,0.9-2.1,2.1-2.1c1.2,0,2.1,0.9,2.1,2.1
				C212.3,78.8,211.3,79.7,210.2,79.7z M210.2,76.6c-0.6,0-1,0.4-1,1c0,0.5,0.4,1,1,1c0.5,0,1-0.4,1-1
				C211.2,77.1,210.7,76.6,210.2,76.6z"/>
			<path class="st0" d="M210.7,77.6c0,0.3-0.2,0.5-0.5,0.5c-0.3,0-0.5-0.2-0.5-0.5c0-0.3,0.2-0.5,0.5-0.5
				C210.4,77.1,210.7,77.3,210.7,77.6"/>
		</g>
	</g>
	<path class="st0" d="M201.3,58.3c-3.4,0-6.1-2.5-6.1-5.6c0-3.1,2.7-5.6,6.1-5.6c3.4,0,6.1,2.5,6.1,5.6
		C207.4,55.7,204.6,58.3,201.3,58.3z M201.3,48.1c-2.8,0-5,2-5,4.5c0,2.5,2.2,4.5,5,4.5c2.8,0,5-2,5-4.5
		C206.3,50.2,204,48.1,201.3,48.1z"/>
	<path class="st0" d="M201.3,57.8c-3.1,0-5.6-2.3-5.6-5.2c0-2.9,2.5-5.2,5.6-5.2c3.1,0,5.6,2.3,5.6,5.2
		C206.9,55.5,204.4,57.8,201.3,57.8z M201.3,48.6c-2.5,0-4.5,1.8-4.5,4.1c0,2.2,2,4.1,4.5,4.1c2.5,0,4.5-1.8,4.5-4.1
		C205.8,50.4,203.8,48.6,201.3,48.6z"/>
	<path class="st0" d="M205.4,59.3c-1.2,0-2.3-0.4-3.2-1.3l0.7-0.8c0.7,0.6,1.6,1,2.5,1c2.3,0,4.2-2.4,4.2-5.3c0-2.9-1.9-5.3-4.2-5.3
		c-0.8,0-1.5,0.3-2.2,0.8l-0.7-0.9c0.9-0.6,1.8-1,2.8-1c3,0,5.4,2.9,5.4,6.5C210.7,56.4,208.3,59.3,205.4,59.3z"/>
	<path class="st0" d="M206.1,66.8l-0.2-1.1c2.1-0.4,3.7-2.7,3.7-5.5c0-2.6-1.3-4.8-3.3-5.4l0.3-1.1c2.4,0.8,4,3.4,4,6.5
		C210.7,63.5,208.7,66.4,206.1,66.8z"/>
	<path class="st0" d="M206.1,76.6l-0.2-1.1c2.1-0.4,3.7-2.8,3.7-5.7c0-3.1-1.8-5.6-4.1-5.8l0.1-1.1c2.9,0.2,5.1,3.2,5.1,6.9
		C210.7,73.2,208.7,76.1,206.1,76.6z"/>
	<path class="st0" d="M206.6,93.9l-0.2-1.1c2.3-0.4,4-2.9,4-5.7c0-2.9-1.7-5.4-4.1-5.7l0.2-1.1c2.8,0.5,5,3.4,5,6.8
		C211.5,90.5,209.4,93.4,206.6,93.9z"/>
	<path class="st0" d="M206.9,103.6l-0.3-1.1c2.2-0.5,3.8-2.9,3.8-5.7c0-3.2-2.1-5.8-4.6-5.8l-0.2,0l0-1.1l0.2,0
		c3.2,0,5.8,3.1,5.8,6.9C211.5,100.2,209.6,103,206.9,103.6z"/>
	<path class="st0" d="M203.6,110.3c-1.5,0-2.9-0.7-4-2l0.8-0.7c0.9,1,2,1.6,3.2,1.6c2.6,0,4.6-2.6,4.6-5.8c0-2.2-1-4.2-2.6-5.2
		l0.6-0.9c1.9,1.2,3.1,3.5,3.1,6.1C209.3,107.2,206.7,110.3,203.6,110.3z"/>
	<path class="st0" d="M201.3,55.5c-1.7,0-3.1-1.3-3.1-2.9c0-1.6,1.4-2.9,3.1-2.9c1.7,0,3.1,1.3,3.1,2.9
		C204.4,54.2,203,55.5,201.3,55.5z M201.3,50.9c-1.1,0-2,0.8-2,1.8c0,1,0.9,1.8,2,1.8c1.1,0,2-0.8,2-1.8
		C203.2,51.7,202.4,50.9,201.3,50.9z"/>
	<path class="st0" d="M201.3,54.4c-1,0-1.9-0.8-1.9-1.7c0-1,0.8-1.7,1.9-1.7c1,0,1.9,0.8,1.9,1.7C203.1,53.6,202.3,54.4,201.3,54.4z
		 M201.3,52c-0.4,0-0.7,0.3-0.7,0.6c0,0.3,0.3,0.6,0.7,0.6c0.4,0,0.7-0.3,0.7-0.6C202,52.3,201.7,52,201.3,52z"/>
	<path class="st0" d="M201.7,52.6c0,0.2-0.2,0.4-0.4,0.4c-0.2,0-0.4-0.2-0.4-0.4c0-0.2,0.2-0.4,0.4-0.4
		C201.5,52.3,201.7,52.4,201.7,52.6"/>
	<g class="st2">
		<g>
			<path class="st0" d="M201.3,65.9c-3.4,0-6.1-2.5-6.1-5.6c0-3.1,2.7-5.6,6.1-5.6c3.4,0,6.1,2.5,6.1,5.6
				C207.4,63.3,204.6,65.9,201.3,65.9z M201.3,55.7c-2.8,0-5,2-5,4.5c0,2.5,2.2,4.5,5,4.5c2.8,0,5-2,5-4.5
				C206.3,57.8,204,55.7,201.3,55.7z"/>
		</g>
	</g>
	<g class="st2">
		<g>
			<path class="st0" d="M201.3,65.4c-3.1,0-5.6-2.3-5.6-5.2c0-2.9,2.5-5.2,5.6-5.2c3.1,0,5.6,2.3,5.6,5.2
				C206.9,63.1,204.4,65.4,201.3,65.4z M201.3,56.2c-2.5,0-4.5,1.8-4.5,4.1c0,2.2,2,4.1,4.5,4.1c2.5,0,4.5-1.8,4.5-4.1
				C205.8,58,203.8,56.2,201.3,56.2z"/>
		</g>
	</g>
	<g class="st2">
		<g>
			<path class="st0" d="M201.3,63.1c-1.7,0-3.1-1.3-3.1-2.9c0-1.6,1.4-2.9,3.1-2.9c1.7,0,3.1,1.3,3.1,2.9
				C204.4,61.8,203,63.1,201.3,63.1z M201.3,58.5c-1.1,0-2,0.8-2,1.8c0,1,0.9,1.8,2,1.8c1.1,0,2-0.8,2-1.8
				C203.2,59.3,202.4,58.5,201.3,58.5z"/>
		</g>
	</g>
	<g class="st2">
		<g>
			<path class="st0" d="M201.3,62c-1,0-1.9-0.8-1.9-1.7c0-1,0.8-1.7,1.9-1.7c1,0,1.9,0.8,1.9,1.7C203.1,61.2,202.3,62,201.3,62z
				 M201.3,59.6c-0.4,0-0.7,0.3-0.7,0.6c0,0.3,0.3,0.6,0.7,0.6c0.4,0,0.7-0.3,0.7-0.6C202,59.9,201.7,59.6,201.3,59.6z"/>
		</g>
	</g>
	<g class="st2">
		<g>
			<path class="st0" d="M201.7,60.2c0,0.2-0.2,0.4-0.4,0.4c-0.2,0-0.4-0.2-0.4-0.4c0-0.2,0.2-0.4,0.4-0.4
				C201.5,59.9,201.7,60,201.7,60.2"/>
		</g>
	</g>
	<g class="st1">
		<g>
			<path class="st0" d="M201.3,74.5c-3.4,0-6.1-2.5-6.1-5.6s2.7-5.6,6.1-5.6c3.4,0,6.1,2.5,6.1,5.6S204.6,74.5,201.3,74.5z
				 M201.3,64.4c-2.8,0-5,2-5,4.5s2.2,4.5,5,4.5c2.8,0,5-2,5-4.5S204,64.4,201.3,64.4z"/>
		</g>
	</g>
	<g class="st1">
		<g>
			<path class="st0" d="M201.3,74.1c-3.1,0-5.6-2.3-5.6-5.2s2.5-5.2,5.6-5.2c3.1,0,5.6,2.3,5.6,5.2S204.4,74.1,201.3,74.1z
				 M201.3,64.8c-2.5,0-4.5,1.8-4.5,4.1c0,2.2,2,4.1,4.5,4.1c2.5,0,4.5-1.8,4.5-4.1C205.8,66.7,203.8,64.8,201.3,64.8z"/>
		</g>
	</g>
	<g class="st1">
		<g>
			<path class="st0" d="M201.3,71.8c-1.7,0-3.1-1.3-3.1-2.9s1.4-2.9,3.1-2.9c1.7,0,3.1,1.3,3.1,2.9S203,71.8,201.3,71.8z
				 M201.3,67.2c-1.1,0-2,0.8-2,1.8s0.9,1.8,2,1.8c1.1,0,2-0.8,2-1.8S202.4,67.2,201.3,67.2z"/>
		</g>
	</g>
	<g class="st1">
		<g>
			<path class="st0" d="M201.3,70.7c-1,0-1.9-0.8-1.9-1.7s0.8-1.7,1.9-1.7c1,0,1.9,0.8,1.9,1.7S202.3,70.7,201.3,70.7z M201.3,68.3
				c-0.4,0-0.7,0.3-0.7,0.6s0.3,0.6,0.7,0.6c0.4,0,0.7-0.3,0.7-0.6S201.7,68.3,201.3,68.3z"/>
		</g>
	</g>
	<path class="st0" d="M201.7,68.9c0,0.2-0.2,0.4-0.4,0.4c-0.2,0-0.4-0.2-0.4-0.4c0-0.2,0.2-0.4,0.4-0.4
		C201.5,68.5,201.7,68.7,201.7,68.9"/>
	<g class="st1">
		<g>
			<path class="st0" d="M201.3,84.3c-3.4,0-6.1-2.5-6.1-5.6c0-3.1,2.7-5.6,6.1-5.6c3.4,0,6.1,2.5,6.1,5.6c0,0.9-0.2,1.7-0.6,2.5l0,0
				C205.7,83.1,203.6,84.3,201.3,84.3z M201.3,74.2c-2.8,0-5,2-5,4.5c0,2.5,2.2,4.5,5,4.5c1.9,0,3.7-1,4.5-2.6l0,0
				c0.3-0.6,0.5-1.3,0.5-1.9C206.3,76.2,204,74.2,201.3,74.2z"/>
		</g>
	</g>
	<g class="st1">
		<g>
			<path class="st0" d="M201.3,83.9c-3.1,0-5.6-2.3-5.6-5.2c0-2.9,2.5-5.2,5.6-5.2c3.1,0,5.6,2.3,5.6,5.2
				C206.9,81.6,204.4,83.9,201.3,83.9z M201.3,74.6c-2.5,0-4.5,1.8-4.5,4.1c0,2.2,2,4.1,4.5,4.1c2.5,0,4.5-1.8,4.5-4.1
				C205.8,76.4,203.8,74.6,201.3,74.6z"/>
		</g>
	</g>
	<g class="st1">
		<g>
			<path class="st0" d="M201.3,81.6c-1.7,0-3.1-1.3-3.1-2.9c0-1.6,1.4-2.9,3.1-2.9c1.7,0,3.1,1.3,3.1,2.9
				C204.4,80.3,203,81.6,201.3,81.6z M201.3,76.9c-1.1,0-2,0.8-2,1.8c0,1,0.9,1.8,2,1.8c1.1,0,2-0.8,2-1.8
				C203.2,77.7,202.4,76.9,201.3,76.9z"/>
		</g>
	</g>
	<g class="st1">
		<g>
			<path class="st0" d="M201.3,80.4c-1,0-1.9-0.8-1.9-1.7c0-1,0.8-1.7,1.9-1.7c1,0,1.9,0.8,1.9,1.7
				C203.1,79.7,202.3,80.4,201.3,80.4z M201.3,78.1c-0.4,0-0.7,0.3-0.7,0.6c0,0.3,0.3,0.6,0.7,0.6c0.4,0,0.7-0.3,0.7-0.6
				C202,78.4,201.7,78.1,201.3,78.1z"/>
		</g>
	</g>
	<g class="st1">
		<g>
			<path class="st0" d="M201.7,78.7c0,0.2-0.2,0.4-0.4,0.4c-0.2,0-0.4-0.2-0.4-0.4c0-0.2,0.2-0.4,0.4-0.4
				C201.5,78.3,201.7,78.5,201.7,78.7"/>
		</g>
	</g>
	<g class="st2">
		<g>
			<path class="st0" d="M201.3,93c-3.4,0-6.1-2.5-6.1-5.6s2.7-5.6,6.1-5.6c3.4,0,6.1,2.5,6.1,5.6S204.6,93,201.3,93z M201.3,82.9
				c-2.8,0-5,2-5,4.5s2.2,4.5,5,4.5c2.8,0,5-2,5-4.5S204,82.9,201.3,82.9z"/>
		</g>
	</g>
	<g class="st2">
		<g>
			<path class="st0" d="M201.3,92.6c-3.1,0-5.6-2.3-5.6-5.2s2.5-5.2,5.6-5.2c3.1,0,5.6,2.3,5.6,5.2S204.4,92.6,201.3,92.6z
				 M201.3,83.3c-2.5,0-4.5,1.8-4.5,4.1c0,2.2,2,4.1,4.5,4.1c2.5,0,4.5-1.8,4.5-4.1C205.8,85.1,203.8,83.3,201.3,83.3z"/>
		</g>
	</g>
	<g class="st2">
		<g>
			<path class="st0" d="M201.3,90.3c-1.7,0-3.1-1.3-3.1-2.9s1.4-2.9,3.1-2.9c1.7,0,3.1,1.3,3.1,2.9S203,90.3,201.3,90.3z
				 M201.3,85.6c-1.1,0-2,0.8-2,1.8s0.9,1.8,2,1.8c1.1,0,2-0.8,2-1.8S202.4,85.6,201.3,85.6z"/>
		</g>
	</g>
	<g class="st2">
		<g>
			<path class="st0" d="M201.3,89.1c-1,0-1.9-0.8-1.9-1.7s0.8-1.7,1.9-1.7c1,0,1.9,0.8,1.9,1.7S202.3,89.1,201.3,89.1z M201.3,86.8
				c-0.4,0-0.7,0.3-0.7,0.6s0.3,0.6,0.7,0.6c0.4,0,0.7-0.3,0.7-0.6S201.7,86.8,201.3,86.8z"/>
		</g>
	</g>
	<g class="st2">
		<g>
			<path class="st0" d="M201.7,87.4c0,0.2-0.2,0.4-0.4,0.4c-0.2,0-0.4-0.2-0.4-0.4c0-0.2,0.2-0.4,0.4-0.4
				C201.5,87,201.7,87.2,201.7,87.4"/>
		</g>
	</g>
	<path class="st0" d="M201.3,100.6c-3.4,0-6.1-2.5-6.1-5.6s2.7-5.6,6.1-5.6c2.6,0,5,1.5,5.8,3.8c0.2,0.6,0.3,1.2,0.3,1.8
		C207.4,98.1,204.6,100.6,201.3,100.6z M201.3,90.5c-2.8,0-5,2-5,4.5s2.2,4.5,5,4.5c2.8,0,5-2,5-4.5c0-0.5-0.1-1-0.2-1.4v0
		C205.3,91.7,203.4,90.5,201.3,90.5z"/>
	<path class="st0" d="M201.3,100.2c-3.1,0-5.6-2.3-5.6-5.2c0-2.9,2.5-5.2,5.6-5.2c3.1,0,5.6,2.3,5.6,5.2
		C206.9,97.8,204.4,100.2,201.3,100.2z M201.3,90.9c-2.5,0-4.5,1.8-4.5,4.1c0,2.2,2,4.1,4.5,4.1c2.5,0,4.5-1.8,4.5-4.1
		C205.8,92.7,203.8,90.9,201.3,90.9z"/>
	<path class="st0" d="M201.3,112.6c-2.7,0-5-1.7-5.5-4.1l1.1-0.2c0.4,1.9,2.3,3.3,4.4,3.3c1,0,1.9-0.3,2.6-0.8l0.6,0.9
		C203.6,112.3,202.4,112.6,201.3,112.6z"/>
	<path class="st0" d="M201.3,97.9c-1.7,0-3.1-1.3-3.1-2.9c0-1.6,1.4-2.9,3.1-2.9c1.7,0,3.1,1.3,3.1,2.9
		C204.4,96.6,203,97.9,201.3,97.9z M201.3,93.2c-1.1,0-2,0.8-2,1.8c0,1,0.9,1.8,2,1.8c1.1,0,2-0.8,2-1.8
		C203.2,94,202.4,93.2,201.3,93.2z"/>
	<path class="st0" d="M201.3,96.7c-1,0-1.9-0.8-1.9-1.7c0-1,0.8-1.7,1.9-1.7c1,0,1.9,0.8,1.9,1.7C203.1,95.9,202.3,96.7,201.3,96.7z
		 M201.3,94.4c-0.4,0-0.7,0.3-0.7,0.6c0,0.3,0.3,0.6,0.7,0.6c0.4,0,0.7-0.3,0.7-0.6C202,94.6,201.7,94.4,201.3,94.4z"/>
	<path class="st0" d="M201.7,95c0,0.2-0.2,0.4-0.4,0.4c-0.2,0-0.4-0.2-0.4-0.4c0-0.2,0.2-0.4,0.4-0.4
		C201.5,94.6,201.7,94.8,201.7,95"/>
	<path class="st0" d="M201.3,108.2c-3.4,0-6.1-2.5-6.1-5.6c0-3.1,2.7-5.6,6.1-5.6c3.4,0,6.1,2.5,6.1,5.6
		C207.4,105.7,204.6,108.2,201.3,108.2z M201.3,98.1c-2.8,0-5,2-5,4.5c0,2.5,2.2,4.5,5,4.5c2.8,0,5-2,5-4.5
		C206.3,100.1,204,98.1,201.3,98.1z"/>
	<path class="st0" d="M201.3,107.8c-3.1,0-5.6-2.3-5.6-5.2c0-2.9,2.5-5.2,5.6-5.2c3.1,0,5.6,2.3,5.6,5.2
		C206.9,105.5,204.4,107.8,201.3,107.8z M201.3,98.5c-2.5,0-4.5,1.8-4.5,4.1c0,2.2,2,4.1,4.5,4.1c2.5,0,4.5-1.8,4.5-4.1
		C205.8,100.3,203.8,98.5,201.3,98.5z"/>
	<path class="st0" d="M201.3,105.5c-1.7,0-3.1-1.3-3.1-2.9c0-1.6,1.4-2.9,3.1-2.9c1.7,0,3.1,1.3,3.1,2.9
		C204.4,104.2,203,105.5,201.3,105.5z M201.3,100.8c-1.1,0-2,0.8-2,1.8c0,1,0.9,1.8,2,1.8c1.1,0,2-0.8,2-1.8
		C203.2,101.6,202.4,100.8,201.3,100.8z"/>
	<path class="st0" d="M201.3,104.3c-1,0-1.9-0.8-1.9-1.7c0-1,0.8-1.7,1.9-1.7c1,0,1.9,0.8,1.9,1.7
		C203.1,103.5,202.3,104.3,201.3,104.3z M201.3,102c-0.4,0-0.7,0.3-0.7,0.6c0,0.3,0.3,0.6,0.7,0.6c0.4,0,0.7-0.3,0.7-0.6
		C202,102.2,201.7,102,201.3,102z"/>
	<path class="st0" d="M201.7,102.6c0,0.2-0.2,0.4-0.4,0.4c-0.2,0-0.4-0.2-0.4-0.4c0-0.2,0.2-0.4,0.4-0.4
		C201.5,102.2,201.7,102.4,201.7,102.6"/>
	<path class="st0" d="M217.1,81.5c-0.4,0-0.8,0-1.3-0.1l0.2-1.1c0.4,0.1,0.7,0.1,1.1,0.1c3.4,0,6.1-2.7,6.1-6c0-3.2-2.8-6-6.1-6
		v-1.1c3.9,0,7.2,3.3,7.2,7.2C224.3,78.3,221,81.5,217.1,81.5z"/>
	<path class="st0" d="M217.1,77.9c-2,0-3.6-1.6-3.6-3.6c0-2,1.6-3.6,3.6-3.6s3.6,1.6,3.6,3.6C220.7,76.3,219,77.9,217.1,77.9z
		 M217.1,71.9c-1.4,0-2.5,1.1-2.5,2.5c0,1.4,1.1,2.5,2.5,2.5s2.5-1.1,2.5-2.5C219.5,73,218.4,71.9,217.1,71.9z"/>
	<path class="st0" d="M217.1,76.4c-1.2,0-2.1-0.9-2.1-2.1c0-1.2,0.9-2.1,2.1-2.1c1.2,0,2.1,0.9,2.1,2.1
		C219.2,75.5,218.2,76.4,217.1,76.4z M217.1,73.4c-0.5,0-1,0.4-1,1c0,0.5,0.4,1,1,1s1-0.4,1-1C218.1,73.8,217.6,73.4,217.1,73.4z"/>
	<path class="st0" d="M217.6,74.3c0,0.3-0.2,0.5-0.5,0.5s-0.5-0.2-0.5-0.5c0-0.3,0.2-0.5,0.5-0.5S217.6,74.1,217.6,74.3"/>
	<path class="st0" d="M228.8,67.4c-4,0-7.2-3.2-7.2-7.2c0-1.5,0.4-2.9,1.3-4.1l0.9,0.6c-0.7,1-1.1,2.2-1.1,3.4c0,3.3,2.7,6,6.1,6
		c3.4,0,6.1-2.7,6.1-6c0-1.7-0.7-3.3-1.9-4.4l0.8-0.8c1.5,1.3,2.3,3.3,2.3,5.2C236,64.2,232.8,67.4,228.8,67.4z"/>
	<path class="st0" d="M228.8,63.8c-2,0-3.6-1.6-3.6-3.6c0-2,1.6-3.6,3.6-3.6c2,0,3.6,1.6,3.6,3.6C232.4,62.2,230.8,63.8,228.8,63.8z
		 M228.8,57.8c-1.4,0-2.5,1.1-2.5,2.5c0,1.4,1.1,2.5,2.5,2.5c1.4,0,2.5-1.1,2.5-2.5C231.3,58.9,230.2,57.8,228.8,57.8z"/>
	<path class="st0" d="M228.8,62.3c-1.2,0-2.1-0.9-2.1-2.1c0-1.2,0.9-2.1,2.1-2.1c1.2,0,2.1,0.9,2.1,2.1
		C230.9,61.4,230,62.3,228.8,62.3z M228.8,59.3c-0.5,0-1,0.4-1,1c0,0.5,0.4,1,1,1c0.5,0,1-0.4,1-1C229.8,59.7,229.3,59.3,228.8,59.3
		z"/>
	<path class="st0" d="M229.3,60.2c0,0.3-0.2,0.5-0.5,0.5s-0.5-0.2-0.5-0.5c0-0.3,0.2-0.5,0.5-0.5S229.3,60,229.3,60.2"/>
	<path class="st0" d="M229.9,54c-2,0-3.6-1.6-3.6-3.6c0-2,1.6-3.6,3.6-3.6c2,0,3.6,1.6,3.6,3.6C233.5,52.4,231.9,54,229.9,54z
		 M229.9,48c-1.4,0-2.5,1.1-2.5,2.5c0,1.4,1.1,2.5,2.5,2.5s2.5-1.1,2.5-2.5C232.4,49.1,231.3,48,229.9,48z"/>
	<path class="st0" d="M229.9,52.6c-1.2,0-2.1-0.9-2.1-2.1s0.9-2.1,2.1-2.1c1.2,0,2.1,0.9,2.1,2.1S231.1,52.6,229.9,52.6z
		 M229.9,49.5c-0.5,0-1,0.4-1,1s0.4,1,1,1s1-0.4,1-1S230.4,49.5,229.9,49.5z"/>
	<path class="st0" d="M230.4,50.5c0,0.3-0.2,0.5-0.5,0.5s-0.5-0.2-0.5-0.5c0-0.3,0.2-0.5,0.5-0.5S230.4,50.2,230.4,50.5"/>
	<path class="st0" d="M230.4,59.8c-2,0-3.6-1.6-3.6-3.6c0-2,1.6-3.6,3.6-3.6s3.6,1.6,3.6,3.6C234,58.2,232.4,59.8,230.4,59.8z
		 M230.4,53.8c-1.4,0-2.5,1.1-2.5,2.5c0,1.4,1.1,2.5,2.5,2.5s2.5-1.1,2.5-2.5C232.9,54.9,231.8,53.8,230.4,53.8z"/>
	<path class="st0" d="M230.4,58.3c-1.2,0-2.1-0.9-2.1-2.1c0-1.2,0.9-2.1,2.1-2.1s2.1,0.9,2.1,2.1C232.5,57.4,231.6,58.3,230.4,58.3z
		 M230.4,55.2c-0.5,0-1,0.4-1,1c0,0.5,0.4,1,1,1s1-0.4,1-1C231.4,55.7,230.9,55.2,230.4,55.2z"/>
	<path class="st0" d="M230.9,56.2c0,0.3-0.2,0.5-0.5,0.5c-0.3,0-0.5-0.2-0.5-0.5c0-0.3,0.2-0.5,0.5-0.5
		C230.7,55.7,230.9,55.9,230.9,56.2"/>
	<g class="st3">
		<g>
			
				<rect x="191.6" y="43.8" transform="matrix(0.9996 -2.733353e-02 2.733353e-02 0.9996 -1.1064 7.8526)" class="st0" width="190.1" height="1.1"/>
			
				<rect x="306.9" y="52.2" transform="matrix(0.9941 -0.1083 0.1083 0.9941 -4.0291 33.6108)" class="st0" width="1.1" height="3.5"/>
			
				<rect x="285.4" y="52.3" transform="matrix(0.9978 -6.638941e-02 6.638941e-02 0.9978 -2.8514 19.8337)" class="st0" width="23.1" height="1.1"/>
			<path class="st0" d="M265.9,55.5l-0.1-1.1l0.2,0l0.1,1.1L265.9,55.5z M266.7,55.4l-0.1-1.1l0.2,0l0.1,1.1L266.7,55.4z
				 M267.5,55.4l-0.1-1.1l0.2,0l0.1,1.1L267.5,55.4z M268.3,55.3l-0.1-1.1l0.2,0l0.1,1.1L268.3,55.3z M269,55.3l-0.1-1.1l0.2,0
				l0.1,1.1L269,55.3z M269.8,55.2l-0.1-1.1l0.2,0l0.1,1.1L269.8,55.2z M270.6,55.1l-0.1-1.1l0.2,0l0.1,1.1L270.6,55.1z M271.4,55.1
				l-0.1-1.1l0.2,0l0.1,1.1L271.4,55.1z M272.2,55l-0.1-1.1l0.2,0l0.1,1.1L272.2,55z M272.9,55l-0.1-1.1l0.2,0l0.1,1.1L272.9,55z
				 M273.7,54.9l-0.1-1.1l0.2,0l0.1,1.1L273.7,54.9z M274.5,54.9l-0.1-1.1l0.2,0l0.1,1.1L274.5,54.9z M275.3,54.8l-0.1-1.1l0.2,0
				l0.1,1.1L275.3,54.8z M276,54.8l-0.1-1.1l0.2,0l0.1,1.1L276,54.8z M276.8,54.7l-0.1-1.1l0.2,0l0.1,1.1L276.8,54.7z M277.6,54.7
				l-0.1-1.1l0.2,0l0.1,1.1L277.6,54.7z M278.4,54.6l-0.1-1.1l0.2,0l0.1,1.1L278.4,54.6z M279.2,54.6l-0.1-1.1l0.2,0l0.1,1.1
				L279.2,54.6z M279.9,54.5l-0.1-1.1l0.2,0l0.1,1.1L279.9,54.5z M280.7,54.5l-0.1-1.1l0.2,0l0.1,1.1L280.7,54.5z M281.5,54.4
				l-0.1-1.1l0.2,0l0.1,1.1L281.5,54.4z M282.3,54.4l-0.1-1.1l0.2,0l0.1,1.1L282.3,54.4z M283,54.3l-0.1-1.1l0.2,0l0.1,1.1L283,54.3
				z M283.8,54.3l-0.1-1.1l0.2,0l0.1,1.1L283.8,54.3z M284.6,54.2l-0.1-1.1l0.2,0l0.1,1.1L284.6,54.2z"/>
			
				<rect x="265.8" y="54.9" transform="matrix(0.9976 -6.870676e-02 6.870676e-02 0.9976 -3.343 18.4391)" class="st0" width="1.1" height="5.9"/>
			<rect x="335.3" y="44.8" transform="matrix(0.9941 -0.108 0.108 0.9941 -3.145 36.561)" class="st0" width="1.1" height="5"/>
			
				<rect x="254.7" y="50" transform="matrix(0.9984 -5.666030e-02 5.666030e-02 0.9984 -2.4297 15.467)" class="st0" width="33.7" height="1.1"/>
			<path class="st0" d="M342.8,51.4l-1.1-0.2l0.5,0.1l-0.6-0.1c0,0,0-0.4-0.2-0.7c-0.3-0.3-1-0.7-2.9-0.5c-0.6,0.1-1.2,0.1-1.8,0.2
				c-3.7,0.4-7.5,0.9-11.1,0.5c-1.3-0.1-2.5-0.4-3.6-0.7c-0.5-0.1-1.1-0.3-1.6-0.4c-3.1-0.7-6.5-1-10-0.8l-0.1-1.1
				c3.5-0.2,7.1,0.1,10.3,0.8c0.6,0.1,1.1,0.3,1.7,0.4c1.2,0.3,2.2,0.6,3.4,0.7c3.4,0.3,7.2-0.1,10.8-0.5c0.6-0.1,1.2-0.1,1.8-0.2
				c1.9-0.2,3.2,0.1,3.9,0.8C343,50.5,342.8,51.3,342.8,51.4z"/>
			<polygon class="st0" points="309.5,48.9 309.4,47.8 309.6,48.9 			"/>
			<path class="st0" d="M289.9,50.1l-0.1-1.1l0.2,0l0.1,1.1L289.9,50.1z M290.7,50l-0.1-1.1l0.2,0l0.1,1.1L290.7,50z M291.5,50
				l-0.1-1.1l0.2,0l0.1,1.1L291.5,50z M292.3,49.9l-0.1-1.1l0.2,0l0.1,1.1L292.3,49.9z M293.1,49.9l-0.1-1.1l0.2,0l0.1,1.1
				L293.1,49.9z M293.8,49.8l-0.1-1.1l0.2,0l0.1,1.1L293.8,49.8z M294.6,49.8l-0.1-1.1l0.2,0l0.1,1.1L294.6,49.8z M295.4,49.7
				l-0.1-1.1l0.2,0l0.1,1.1L295.4,49.7z M296.2,49.7l-0.1-1.1l0.2,0l0.1,1.1L296.2,49.7z M297,49.6l-0.1-1.1l0.2,0l0.1,1.1L297,49.6
				z M297.7,49.6l-0.1-1.1l0.2,0l0.1,1.1L297.7,49.6z M298.5,49.6l-0.1-1.1l0.2,0l0.1,1.1L298.5,49.6z M299.3,49.5l-0.1-1.1l0.2,0
				l0.1,1.1L299.3,49.5z M300.1,49.5l-0.1-1.1l0.2,0l0.1,1.1L300.1,49.5z M300.9,49.4l-0.1-1.1l0.2,0l0.1,1.1L300.9,49.4z
				 M301.7,49.4l-0.1-1.1l0.2,0l0.1,1.1L301.7,49.4z M302.4,49.3l-0.1-1.1l0.2,0l0.1,1.1L302.4,49.3z M303.2,49.3l-0.1-1.1l0.2,0
				l0.1,1.1L303.2,49.3z M304,49.2l-0.1-1.1l0.2,0l0.1,1.1L304,49.2z M304.8,49.2l-0.1-1.1l0.2,0l0.1,1.1L304.8,49.2z M305.6,49.1
				l-0.1-1.1l0.2,0l0.1,1.1L305.6,49.1z M306.3,49.1l-0.1-1.1l0.2,0l0.1,1.1L306.3,49.1z M307.1,49l-0.1-1.1l0.2,0l0.1,1.1L307.1,49
				z M307.9,49l-0.1-1.1l0.2,0l0.1,1.1L307.9,49z M308.7,48.9l-0.1-1.1l0.2,0l0.1,1.1L308.7,48.9z"/>
			<polygon class="st0" points="289.3,50.1 289.2,49 289.4,50.1 			"/>
			
				<rect x="205" y="55.4" transform="matrix(0.9994 -3.516885e-02 3.516885e-02 0.9994 -1.8358 7.6379)" class="st0" width="22.3" height="1.1"/>
			<path class="st0" d="M233.3,55.8l0-1.1l35.5-1.4c2-0.2,6.5-1,6.5-1l5-1.2l-0.1-0.9l1.1-0.1l0.2,1.9l-6,1.5c-0.2,0-4.6,0.9-6.7,1
				L233.3,55.8z"/>
			<polygon class="st0" points="257,48.5 255.9,48.5 255.9,46.5 375.6,41.3 370.3,44.8 348.8,46.3 348.7,45.2 369.9,43.7 
				371.6,42.6 257,47.6 			"/>
			<path class="st0" d="M335.8,47.2l-0.1-1.1l0.2,0l0.1,1.1L335.8,47.2z M336.6,47.1l-0.1-1.1l0.2,0l0.1,1.1L336.6,47.1z
				 M337.4,47.1l-0.1-1.1l0.2,0l0.1,1.1L337.4,47.1z M338.2,47l-0.1-1.1l0.2,0l0.1,1.1L338.2,47z M338.9,47l-0.1-1.1l0.2,0l0.1,1.1
				L338.9,47z M339.7,46.9l-0.1-1.1l0.2,0l0.1,1.1L339.7,46.9z M340.5,46.9l-0.1-1.1l0.2,0l0.1,1.1L340.5,46.9z M341.3,46.8
				l-0.1-1.1l0.2,0l0.1,1.1L341.3,46.8z M342,46.8l-0.1-1.1l0.2,0l0.1,1.1L342,46.8z M342.8,46.7l-0.1-1.1l0.2,0l0.1,1.1L342.8,46.7
				z M343.6,46.7l-0.1-1.1l0.2,0l0.1,1.1L343.6,46.7z M344.4,46.6l-0.1-1.1l0.2,0l0.1,1.1L344.4,46.6z M345.2,46.6l-0.1-1.1l0.2,0
				l0.1,1.1L345.2,46.6z M345.9,46.5l-0.1-1.1l0.2,0l0.1,1.1L345.9,46.5z M346.7,46.4l-0.1-1.1l0.2,0l0.1,1.1L346.7,46.4z
				 M347.5,46.4l-0.1-1.1l0.2,0l0.1,1.1L347.5,46.4z"/>
			
				<rect x="232.7" y="57.5" transform="matrix(0.9919 -0.1269 0.1269 0.9919 -5.0348 37.1761)" class="st0" width="113.1" height="1.1"/>
			<polygon class="st0" points="374.4,47.9 374.3,46.8 380,46.1 380.9,44.4 380.6,41.8 381.7,41.7 382,44.7 380.7,47.1 			"/>
			<path class="st0" d="M346.3,51.4l-0.1-1.1l0.2,0l0.1,1.1L346.3,51.4z M347.1,51.3l-0.1-1.1l0.2,0l0.1,1.1L347.1,51.3z
				 M347.9,51.2l-0.1-1.1l0.2,0l0.1,1.1L347.9,51.2z M348.7,51.1l-0.1-1.1l0.2,0l0.1,1.1L348.7,51.1z M349.4,51l-0.1-1.1l0.2,0
				l0.1,1.1L349.4,51z M350.2,50.9l-0.1-1.1l0.2,0l0.1,1.1L350.2,50.9z M351,50.8l-0.1-1.1l0.2,0l0.1,1.1L351,50.8z M351.8,50.7
				l-0.1-1.1l0.2,0l0.1,1.1L351.8,50.7z M352.5,50.6l-0.1-1.1l0.2,0l0.1,1.1L352.5,50.6z M353.3,50.5l-0.1-1.1l0.2,0l0.1,1.1
				L353.3,50.5z M354.1,50.4l-0.1-1.1l0.2,0l0.1,1.1L354.1,50.4z M354.9,50.3l-0.1-1.1l0.2,0l0.1,1.1L354.9,50.3z M355.6,50.2
				l-0.1-1.1l0.2,0l0.1,1.1L355.6,50.2z M356.4,50.1l-0.1-1.1l0.2,0l0.1,1.1L356.4,50.1z M357.2,50l-0.1-1.1l0.2,0l0.1,1.1L357.2,50
				z M358,49.9l-0.1-1.1l0.2,0l0.1,1.1L358,49.9z M358.7,49.8l-0.1-1.1l0.2,0l0.1,1.1L358.7,49.8z M359.5,49.7l-0.1-1.1l0.2,0
				l0.1,1.1L359.5,49.7z M360.3,49.6l-0.1-1.1l0.2,0l0.1,1.1L360.3,49.6z M361.1,49.5l-0.1-1.1l0.2,0l0.1,1.1L361.1,49.5z
				 M361.8,49.4l-0.1-1.1l0.2,0l0.1,1.1L361.8,49.4z M362.6,49.4l-0.1-1.1l0.2,0l0.1,1.1L362.6,49.4z M363.4,49.3l-0.1-1.1l0.2,0
				l0.1,1.1L363.4,49.3z M364.1,49.2l-0.1-1.1l0.2,0l0.1,1.1L364.1,49.2z M364.9,49.1l-0.1-1.1l0.2,0l0.1,1.1L364.9,49.1z M365.7,49
				l-0.1-1.1l0.2,0l0.1,1.1L365.7,49z M366.5,48.9l-0.1-1.1l0.2,0l0.1,1.1L366.5,48.9z M367.2,48.8l-0.1-1.1l0.2,0l0.1,1.1
				L367.2,48.8z M368,48.7l-0.1-1.1l0.2,0l0.1,1.1L368,48.7z M368.8,48.6l-0.1-1.1l0.2,0l0.1,1.1L368.8,48.6z M369.6,48.5l-0.1-1.1
				l0.2,0l0.1,1.1L369.6,48.5z M370.3,48.4l-0.1-1.1l0.2,0l0.1,1.1L370.3,48.4z M371.1,48.3l-0.1-1.1l0.2,0l0.1,1.1L371.1,48.3z
				 M371.9,48.2l-0.1-1.1l0.2,0l0.1,1.1L371.9,48.2z M372.7,48.1l-0.1-1.1l0.2,0l0.1,1.1L372.7,48.1z M373.4,48l-0.1-1.1l0.2,0
				l0.1,1.1L373.4,48z"/>
			<polygon class="st0" points="376.7,47 376.5,45.2 378,44.1 381.4,43.7 381.5,44.8 378.4,45.1 377.7,45.7 377.8,46.9 			"/>
			
				<rect x="377.1" y="44.7" transform="matrix(0.9944 -0.1055 0.1055 0.9944 -2.6539 40.2532)" class="st0" width="4.1" height="1.1"/>
			
				<rect x="235.2" y="57" transform="matrix(0.9979 -6.444501e-02 6.444501e-02 0.9979 -3.1893 16.275)" class="st0" width="31" height="1.1"/>
		</g>
	</g>
	<polygon class="st0" points="243.3,49.3 239.9,46.1 240.6,45.3 243.7,48.2 383.1,45.4 383.1,46.5 	"/>
	
		<rect x="309.5" y="53.3" transform="matrix(0.9977 -6.763077e-02 6.763077e-02 0.9977 -3.0114 21.0938)" class="st0" width="1.1" height="3.5"/>
	
		<rect x="288.5" y="52.9" transform="matrix(0.9997 -2.538244e-02 2.538244e-02 0.9997 -1.2614 7.6277)" class="st0" width="22.6" height="1.1"/>
	<path class="st0" d="M265.2,55.3l0-1.1l0.2,1.1L265.2,55.3z M265.8,55.2l0-1.1l0.2,0l0,1.1L265.8,55.2z M266.6,55.2l0-1.1l0.2,0
		l0,1.1L266.6,55.2z M267.4,55.2l0-1.1l0.2,0l0,1.1L267.4,55.2z M268.2,55.1l0-1.1l0.2,0l0,1.1L268.2,55.1z M269,55.1l0-1.1l0.2,0
		l0,1.1L269,55.1z M269.7,55.1l0-1.1l0.2,0l0,1.1L269.7,55.1z M270.5,55.1l0-1.1l0.2,0l0,1.1L270.5,55.1z M271.3,55l0-1.1l0.2,0
		l0,1.1L271.3,55z M272.1,55l0-1.1l0.2,0l0,1.1L272.1,55z M272.9,55l0-1.1l0.2,0l0,1.1L272.9,55z M273.6,54.9l0-1.1l0.2,0l0,1.1
		L273.6,54.9z M274.4,54.9l0-1.1l0.2,0l0,1.1L274.4,54.9z M275.2,54.9l0-1.1l0.2,0l0,1.1L275.2,54.9z M276,54.8l0-1.1l0.2,0l0,1.1
		L276,54.8z M276.7,54.8l0-1.1l0.2,0l0,1.1L276.7,54.8z M277.5,54.8l0-1.1l0.2,0l0,1.1L277.5,54.8z M278.3,54.7l0-1.1l0.2,0l0,1.1
		L278.3,54.7z M279.1,54.7l0-1.1l0.2,0l0,1.1L279.1,54.7z M279.9,54.7l0-1.1l0.2,0l0,1.1L279.9,54.7z M280.6,54.7l0-1.1l0.2,0l0,1.1
		L280.6,54.7z M281.4,54.6l0-1.1l0.2,0l0,1.1L281.4,54.6z M282.2,54.6l0-1.1l0.2,0l0,1.1L282.2,54.6z M283,54.6l0-1.1l0.2,0l0,1.1
		L283,54.6z M283.8,54.5l0-1.1l0.2,0l0,1.1L283.8,54.5z M284.5,54.5l0-1.1l0.2,0l0,1.1L284.5,54.5z M285.3,54.5l0-1.1l0.2,0l0,1.1
		L285.3,54.5z M286.1,54.4l0-1.1l0.2,0l0,1.1L286.1,54.4z M286.9,54.4l0-1.1l0.2,0l0,1.1L286.9,54.4z M287.7,54.4l0-1.1l0.2,0l0,1.1
		L287.7,54.4z"/>
	
		<rect x="269.1" y="54.3" transform="matrix(0.9996 -2.870516e-02 2.870516e-02 0.9996 -1.5315 7.7652)" class="st0" width="1.1" height="5.9"/>
	
		<rect x="337.5" y="47.1" transform="matrix(0.9977 -6.763769e-02 6.763769e-02 0.9977 -2.5812 22.9791)" class="st0" width="1.1" height="5"/>
	
		<rect x="206.8" y="51.2" transform="matrix(0.9991 -4.297103e-02 4.297103e-02 0.9991 -1.9955 10.7551)" class="st0" width="84.8" height="1.1"/>
	<path class="st0" d="M344.7,54l-1.1-0.2l0.5,0.1l-0.5-0.1c0,0,0.1-0.4-0.2-0.7c-0.4-0.5-1.4-0.7-2.8-0.6c-0.6,0-1.2,0.1-1.8,0.1
		c-3.6,0.3-7.4,0.5-10.9,0c-1.3-0.2-2.4-0.5-3.5-0.9c-0.5-0.2-1-0.3-1.6-0.5c-3-0.8-6.3-1.3-9.7-1.2l0-1.1c3.5,0,6.9,0.4,10,1.3
		c0.5,0.2,1.1,0.3,1.6,0.5c1.1,0.4,2.2,0.7,3.3,0.9c3.3,0.5,7,0.2,10.6,0c0.6,0,1.2-0.1,1.8-0.1c1.8-0.1,3.1,0.2,3.7,1
		C344.9,53.1,344.8,53.9,344.7,54z"/>
	<polygon class="st0" points="312.2,50.1 312.2,49 312.3,50.1 	"/>
	<path class="st0" d="M293,50.5l0-1.1l0.2,0l0,1.1L293,50.5z M293.8,50.5l0-1.1l0.2,0l0,1.1L293.8,50.5z M294.6,50.4l0-1.1l0.2,0
		l0,1.1L294.6,50.4z M295.3,50.4l0-1.1l0.2,0l0,1.1L295.3,50.4z M296.1,50.4l0-1.1l0.2,0l0,1.1L296.1,50.4z M296.9,50.4l0-1.1l0.2,0
		l0,1.1L296.9,50.4z M297.6,50.4l0-1.1l0.2,0l0,1.1L297.6,50.4z M298.4,50.4l0-1.1l0.2,0l0,1.1L298.4,50.4z M299.2,50.3l0-1.1l0.2,0
		l0,1.1L299.2,50.3z M299.9,50.3l0-1.1l0.2,0l0,1.1L299.9,50.3z M300.7,50.3l0-1.1l0.2,0l0,1.1L300.7,50.3z M301.5,50.3l0-1.1l0.2,0
		l0,1.1L301.5,50.3z M302.2,50.3l0-1.1l0.2,0l0,1.1L302.2,50.3z M303,50.3l0-1.1l0.2,0l0,1.1L303,50.3z M303.8,50.3l0-1.1l0.2,0
		l0,1.1L303.8,50.3z M304.5,50.2l0-1.1l0.2,0l0,1.1L304.5,50.2z M305.3,50.2l0-1.1l0.2,0l0,1.1L305.3,50.2z M306.1,50.2l0-1.1l0.2,0
		l0,1.1L306.1,50.2z M306.8,50.2l0-1.1l0.2,0l0,1.1L306.8,50.2z M307.6,50.2l0-1.1l0.2,0l0,1.1L307.6,50.2z M308.3,50.2l0-1.1l0.2,0
		l0,1.1L308.3,50.2z M309.1,50.2l0-1.1l0.2,0l0,1.1L309.1,50.2z M309.9,50.1l0-1.1l0.2,0l0,1.1L309.9,50.1z M310.6,50.1l0-1.1l0.2,0
		l0,1.1L310.6,50.1z M311.4,50.1l0-1.1l0.2,0l0,1.1L311.4,50.1z"/>
	<polygon class="st0" points="292.4,50.5 292.4,49.4 292.5,50.5 	"/>
	<path class="st0" d="M241.3,54.6l0-1.1l31-0.8c2-0.1,6.4-0.7,6.4-0.7l5-1l-0.1-0.9l1.1-0.1l0.1,1.9l-6,1.2c-0.2,0-4.5,0.7-6.6,0.8
		L241.3,54.6z"/>
	<polygon class="st0" points="350.8,49.1 350.7,48 371.5,47.4 374.3,45.7 374.9,46.6 371.9,48.5 	"/>
	<path class="st0" d="M338,49.5l0-1.1l0.2,0l0,1.1L338,49.5z M338.8,49.5l0-1.1l0.2,0l0,1.1L338.8,49.5z M339.6,49.5l0-1.1l0.2,0
		l0,1.1L339.6,49.5z M340.4,49.4l0-1.1l0.2,0l0,1.1L340.4,49.4z M341.1,49.4l0-1.1l0.2,0l0,1.1L341.1,49.4z M341.9,49.4l0-1.1l0.2,0
		l0,1.1L341.9,49.4z M342.7,49.4l0-1.1l0.2,0l0,1.1L342.7,49.4z M343.5,49.3l0-1.1l0.2,0l0,1.1L343.5,49.3z M344.3,49.3l0-1.1l0.2,0
		l0,1.1L344.3,49.3z M345,49.3l0-1.1l0.2,0l0,1.1L345,49.3z M345.8,49.3l0-1.1l0.2,0l0,1.1L345.8,49.3z M346.6,49.3l0-1.1l0.2,0
		l0,1.1L346.6,49.3z M347.4,49.2l0-1.1l0.2,0l0,1.1L347.4,49.2z M348.2,49.2l0-1.1l0.2,0l0,1.1L348.2,49.2z M348.9,49.2l0-1.1l0.2,0
		l0,1.1L348.9,49.2z M349.7,49.2l0-1.1l0.2,0l0,1.1L349.7,49.2z"/>
	
		<rect x="234.6" y="57.9" transform="matrix(0.9963 -8.595521e-02 8.595521e-02 0.9963 -3.9482 25.2254)" class="st0" width="112.8" height="1.1"/>
	<polygon class="st0" points="375.8,51.8 375.7,50.7 381.3,50.2 382.2,48.6 382,46 383.1,45.9 383.3,48.9 382,51.3 	"/>
	<path class="st0" d="M348.4,54.1l-0.1-1.1l0.2,0l0.1,1.1L348.4,54.1z M349.1,54l-0.1-1.1l0.2,0l0.1,1.1L349.1,54z M349.9,54
		l-0.1-1.1l0.2,0l0.1,1.1L349.9,54z M350.7,53.9l-0.1-1.1l0.2,0l0.1,1.1L350.7,53.9z M351.5,53.8l-0.1-1.1l0.2,0l0.1,1.1L351.5,53.8
		z M352.3,53.8l-0.1-1.1l0.2,0l0.1,1.1L352.3,53.8z M353,53.7l-0.1-1.1l0.2,0l0.1,1.1L353,53.7z M353.8,53.6l-0.1-1.1l0.2,0l0.1,1.1
		L353.8,53.6z M354.6,53.6l-0.1-1.1l0.2,0l0.1,1.1L354.6,53.6z M355.4,53.5l-0.1-1.1l0.2,0l0.1,1.1L355.4,53.5z M356.1,53.4
		l-0.1-1.1l0.2,0l0.1,1.1L356.1,53.4z M356.9,53.4l-0.1-1.1l0.2,0l0.1,1.1L356.9,53.4z M357.7,53.3l-0.1-1.1l0.2,0l0.1,1.1
		L357.7,53.3z M358.5,53.2l-0.1-1.1l0.2,0l0.1,1.1L358.5,53.2z M359.3,53.2l-0.1-1.1l0.2,0l0.1,1.1L359.3,53.2z M360,53.1l-0.1-1.1
		l0.2,0l0.1,1.1L360,53.1z M360.8,53l-0.1-1.1l0.2,0L361,53L360.8,53z M361.6,53l-0.1-1.1l0.2,0l0.1,1.1L361.6,53z M362.4,52.9
		l-0.1-1.1l0.2,0l0.1,1.1L362.4,52.9z M363.1,52.8l-0.1-1.1l0.2,0l0.1,1.1L363.1,52.8z M363.9,52.8l-0.1-1.1l0.2,0l0.1,1.1
		L363.9,52.8z M364.7,52.7l-0.1-1.1l0.2,0l0.1,1.1L364.7,52.7z M365.5,52.7l-0.1-1.1l0.2,0l0.1,1.1L365.5,52.7z M366.2,52.6
		l-0.1-1.1l0.2,0l0.1,1.1L366.2,52.6z M367,52.5l-0.1-1.1l0.2,0l0.1,1.1L367,52.5z M367.8,52.5l-0.1-1.1l0.2,0l0.1,1.1L367.8,52.5z
		 M368.6,52.4l-0.1-1.1l0.2,0l0.1,1.1L368.6,52.4z M369.4,52.3l-0.1-1.1l0.2,0l0.1,1.1L369.4,52.3z M370.1,52.3l-0.1-1.1l0.2,0
		l0.1,1.1L370.1,52.3z M370.9,52.2l-0.1-1.1l0.2,0l0.1,1.1L370.9,52.2z M371.7,52.1l-0.1-1.1l0.2,0l0.1,1.1L371.7,52.1z M372.5,52.1
		l-0.1-1.1l0.2,0l0.1,1.1L372.5,52.1z M373.2,52l-0.1-1.1l0.2,0l0.1,1.1L373.2,52z M374,51.9l-0.1-1.1l0.2,0l0.1,1.1L374,51.9z
		 M374.8,51.9l-0.1-1.1l0.2,0l0.1,1.1L374.8,51.9z"/>
	<polygon class="st0" points="378,51 377.9,49.2 379.4,48.1 382.7,47.9 382.8,49 379.8,49.2 379.1,49.7 379.1,50.9 	"/>
	
		<rect x="378.5" y="48.8" transform="matrix(0.9978 -6.638941e-02 6.638941e-02 0.9978 -2.4346 25.3703)" class="st0" width="4" height="1.1"/>
	
		<rect x="234.5" y="55.8" transform="matrix(0.9997 -2.343106e-02 2.343106e-02 0.9997 -1.252 5.9198)" class="st0" width="35" height="1.1"/>
	<polygon class="st0" points="219.2,122.3 193.4,115.5 194.5,110 191.3,109.9 191.4,108.8 195.9,108.9 194.7,114.7 218.1,120.9 
		218.1,116.8 191.5,107.3 191.9,106.2 219.2,116 	"/>
	<polygon class="st0" points="211.9,119.9 211.8,117.4 202.9,114.5 203,117.3 201.9,117.4 201.8,113 212.9,116.6 213,119.9 	"/>
	<rect x="205.4" y="111.9" class="st0" width="1.1" height="3.1"/>
	<rect x="204.7" y="114.6" class="st0" width="1.1" height="3.4"/>
	<polygon class="st0" points="211.8,109.5 211,108.7 213.2,106.3 218.1,106.3 218.1,103.7 213.7,103.7 213.7,102.6 219.2,102.6 
		219.2,107.4 213.6,107.4 	"/>
	<polygon class="st0" points="219.6,114.2 210.9,114.2 210.9,113 218.3,113 218.1,111.8 218.4,110.9 218.1,110.1 218.6,109.1 
		218.2,108.8 212.1,108.8 212.1,107.7 218.7,107.7 219.9,109 219.3,110.1 219.6,110.9 219.3,111.9 	"/>
	<rect x="205.8" y="111.3" class="st0" width="12.8" height="1.1"/>
	<polygon class="st0" points="200.5,113.6 199.4,113.6 199.4,101.6 206.6,101.6 206.6,109.5 218.7,109.5 218.7,110.7 205.4,110.7 
		205.4,102.7 200.5,102.7 	"/>
	<path class="st0" d="M197.1,23.7c-0.9,0-1.6-0.9-1.6-2c0-1.1,0.7-2,1.6-2c0.9,0,1.6,0.9,1.6,2C198.7,22.8,198,23.7,197.1,23.7z
		 M197.1,20.8c-0.2,0-0.5,0.4-0.5,0.9c0,0.5,0.3,0.9,0.5,0.9c0.2,0,0.5-0.4,0.5-0.9C197.6,21.2,197.3,20.8,197.1,20.8z"/>
	<path class="st0" d="M195.8,50.7c0,0-0.1,0-0.1,0c-0.3,0-0.5-0.2-0.7-0.4c-0.3-0.4-0.4-1.1-0.3-1.8c0.1-0.7,0.4-1.3,0.8-1.6
		c0.2-0.2,0.5-0.3,0.8-0.2c0.3,0,0.5,0.2,0.7,0.4c0.3,0.4,0.4,1.1,0.3,1.8C197.2,50,196.5,50.7,195.8,50.7z M196.1,47.8
		c0,0-0.2,0.4-0.3,0.9c-0.1,0.5,0.1,0.9,0.1,1c0,0,0.2-0.4,0.3-0.9v0C196.3,48.2,196.1,47.8,196.1,47.8z"/>
	<path class="st0" d="M197,36.2c-0.1,0-0.2,0-0.2,0c-0.3-0.1-0.6-0.3-0.8-0.6c-0.3-0.4-0.4-0.9-0.3-1.5c0.2-1,1-1.7,1.8-1.5
		c0.3,0.1,0.6,0.3,0.8,0.6c0.3,0.4,0.4,0.9,0.3,1.5C198.4,35.6,197.7,36.2,197,36.2z M197.2,33.7c-0.1,0-0.4,0.2-0.5,0.6
		c-0.1,0.3,0,0.5,0.1,0.7c0,0,0.1,0.1,0.1,0.1c0.1,0,0.4-0.2,0.5-0.6c0.1-0.3,0-0.5-0.1-0.7C197.3,33.8,197.3,33.7,197.2,33.7
		C197.2,33.7,197.2,33.7,197.2,33.7z"/>
	<path class="st0" d="M192.2,16.5h-1.1v-0.1h1.1V16.5z M192.2,15.8h-1.1v-0.2h1.1V15.8z M192.2,15h-1.1v-0.2h1.1V15z M192.2,14.3
		h-1.1V14h1.1V14.3z M192.2,13.5h-1.1v-0.2h1.1V13.5z M192.2,12.7h-1.1v-0.2h1.1V12.7z M192.2,11.9h-1.1v-0.2h1.1V11.9z M192.2,11.1
		h-1.1v-0.2h1.1V11.1z M192.2,10.4h-1.1v-0.2h1.1V10.4z M192.2,9.6h-1.1V9.4h1.1V9.6z M192.2,8.8h-1.1V8.6h1.1V8.8z M192.2,8h-1.1
		V7.8h1.1V8z M192.2,7.2h-1.1V7h1.1V7.2z M192.2,6.5h-1.1V6.2h1.1V6.5z M192.2,5.7h-1.1V5.5h1.1V5.7z M192.2,4.9h-1.1V4.7h1.1V4.9z
		 M192.2,4.1h-1.1V3.9h1.1V4.1z M192.2,3.3h-1.1V3.1h1.1V3.3z M192.2,2.6h-1.1V2.3h1.1V2.6z M192.2,1.8h-1.1V1.6h1.1V1.8z M192.2,1
		h-1.1V0.8h1.1V1z M192.2,0.2h-1.1V0h1.1V0.2z"/>
	<path class="st0" d="M192.1,49.5c-0.1,0-0.2,0-0.2,0l-0.2,0v-1.1l0.2,0c0.5,0,1,0,1.4-0.2c1-0.5,1.6-2.8,1.4-4l1.1-0.1
		c0.2,1.4-0.4,4.4-2.1,5.2C193.2,49.5,192.7,49.5,192.1,49.5z"/>
	<path class="st0" d="M192.1,45.1c-0.2,0-0.3,0-0.4,0l0-1.1c1.3,0,3.4-0.2,3.9-0.7c0,0,0.8-1,0.9-3.5c0-0.3,0-0.7,0-1l0-0.2l0.1-0.2
		c0.2-0.3,0.6-0.8,0.8-1.3c-1.2,0.6-3.1,1.4-5.8,1.4l0-1.1c4.2-0.1,6.3-2,6.3-2l0.9-0.8l0,1.2c0,1.1-0.9,2.6-1.3,3.1
		c0,0.3,0,0.6,0,0.9c-0.2,2.9-1.1,4.1-1.2,4.2C195.6,44.9,193.2,45.1,192.1,45.1z"/>
	<path class="st0" d="M198.9,35.7l-1.1,0l0.2-7.9c0-0.8,0.1-1.7,0.1-2.5l0.1-1.4c0.1-1,0.1-2-0.2-2.8c-0.8-2.1-4-2.1-6.1-2.2l-0.2,0
		l0-1.1l0.2,0c2.4,0,6.1,0.1,7.1,2.9c0.4,1.1,0.4,2.2,0.3,3.3l-0.1,1.4c0,0.8-0.1,1.6-0.1,2.5L198.9,35.7z"/>
	<path class="st0" d="M191.9,43.5c-0.1,0-0.1,0-0.2,0l0.1-1.1c0.4,0,0.7,0,0.8-0.2c0.2-0.2,0.2-0.7,0.2-0.7l0-6.8
		c0-1.8,0.6-3.3,0.6-3.4c0.4-0.7,0.4-1.9,0.4-2.4l0-6.2c0-0.7-0.1-1.2-0.4-1.4c-0.2-0.1-0.3-0.2-0.3-0.2l0,0l-1.4,0v-1.1h1.3
		c0,0,0.6,0,1.1,0.4c0.5,0.5,0.8,1.2,0.8,2.2v6.1c0,0.2,0.1,1.8-0.5,2.9l0,0c0,0-0.5,1.4-0.5,2.9v6.7c0,0,0.1,0.9-0.5,1.5
		C193,43.4,192.5,43.5,191.9,43.5z"/>
	<polygon class="st0" points="193.3,31.4 191.7,31.4 191.7,30.3 192.2,30.3 192.2,22.3 191.7,22.3 191.7,21.2 193.3,21.2 	"/>
	
		<rect x="201.3" y="35" transform="matrix(0.8298 -0.5581 0.5581 0.8298 11.2313 119.7238)" class="st0" width="1.1" height="12.8"/>
	<path class="st0" d="M199.3,37.1l-1-0.4c0.3-0.7,0.4-1.5,0.5-2.2c0.7-3.9,0.8-8,1-11.9l0-0.2c0.2-4.8,0.2-9.4-1.3-13.8
		c-1-2.9-2.5-5.1-4.4-6.3c-0.9-0.6-1.7-0.9-2.4-1l0.1-1.1c0.9,0.1,1.9,0.5,2.9,1.2c2.1,1.4,3.7,3.7,4.8,6.9
		c1.6,4.6,1.6,9.4,1.4,14.2l0,0.2c-0.1,4-0.3,8.1-1,12.1C199.8,35.4,199.6,36.3,199.3,37.1z"/>
	<g class="st4">
		<g>
			
				<rect x="208.9" y="85.1" transform="matrix(0.2677 -0.9635 0.9635 0.2677 77.5638 273.4019)" class="st0" width="19.5" height="1.1"/>
		</g>
	</g>
	<g class="st4">
		<g>
			<path class="st0" d="M213.2,104.6c-0.7-14-0.8-15.3-0.5-15.6c0.4-0.6,4.8-7,7.6-11.2l0.9,0.6c-5.6,8.3-7.1,10.5-7.6,11.2
				c0,1.2,0.4,9.4,0.7,14.9L213.2,104.6z"/>
		</g>
	</g>
	<rect x="202.7" y="102.1" class="st0" width="1.1" height="9.5"/>
	
		<rect x="165.8" y="77.3" transform="matrix(2.733353e-02 -0.9996 0.9996 2.733353e-02 112.8981 271.6488)" class="st0" width="60.4" height="1.1"/>
	<polygon class="st0" points="219.2,97.5 215.5,97.5 215.5,96.4 218.1,96.4 218.1,93.2 217.5,93.2 217.5,92.1 219.2,92.1 	"/>
	<g class="st4">
		<g>
			<defs>
				<rect id="SVGID_1_" x="206.6" y="96.4" width="8.9" height="1.1"/>
			</defs>
			<use xlink:href="#SVGID_1_"  style="overflow:visible;fill:#FFFFFF;"/>
			<clipPath id="SVGID_2_">
				<use xlink:href="#SVGID_1_"  style="overflow:visible;"/>
			</clipPath>
			<rect x="206.6" y="96.4" class="st5" width="8.9" height="1.1"/>
		</g>
	</g>
	<g class="st4">
		<g>
			<defs>
				<rect id="SVGID_3_" x="206.2" y="92.1" width="5.2" height="1.1"/>
			</defs>
			<use xlink:href="#SVGID_3_"  style="overflow:visible;fill:#FFFFFF;"/>
			<clipPath id="SVGID_4_">
				<use xlink:href="#SVGID_3_"  style="overflow:visible;"/>
			</clipPath>
			<rect x="206.2" y="92.1" class="st6" width="5.2" height="1.1"/>
		</g>
	</g>
	<path class="st0" d="M191.7,18.5l0-1.1c1.8-0.1,2-2.1,2-4.7c0-0.5,0-0.9,0-1.3c0-0.2,0-0.4,0-0.6c0.1-1.3,0.1-3,1.2-3.6
		c1.1-0.6,1.9,0.4,2.4,1.1c0.3,0.4,0.6,0.8,0.9,0.9c0.1,0,0.2,0,0.3-0.1c0.1-0.1,0.1-0.1,0.2-0.2l0.8,0.7c-0.1,0.1-0.2,0.2-0.4,0.4
		c-0.4,0.3-0.8,0.4-1.2,0.3c-0.7-0.1-1.2-0.7-1.6-1.3c-0.5-0.7-0.7-0.9-0.9-0.8c-0.6,0.3-0.7,1.8-0.7,2.7c0,0.3,0,0.5,0,0.7
		c0,0.3,0,0.8,0,1.2C194.8,15,194.7,18.4,191.7,18.5z"/>
	<path class="st0" d="M196.3,8.6c-1.1-6.8-4.4-6.4-4.6-6.4L191.6,1c0.2,0,4.6-0.6,5.8,7.4L196.3,8.6z"/>
	<path class="st0" d="M191.8,17.3c-0.1,0-0.1,0-0.2,0l0.1-1.1c0.1,0,0.2,0,0.3-0.1c1.2-1,1.6-6.1,1.6-9c0-0.9-0.1-1.5-0.5-1.8
		c-0.6-0.5-1.4-0.4-1.4-0.4l-0.1-1.1c0.1,0,1.4-0.2,2.3,0.7c0.6,0.6,1,1.5,0.9,2.7c0,0.8-0.1,8.1-2,9.8
		C192.5,17.2,192.1,17.3,191.8,17.3z"/>
	<path class="st0" d="M197.2,33.5l1.1-0.1l0,0.1L197.2,33.5z M197.2,32.9l0-0.2l1.1,0l0,0.2L197.2,32.9z M197.2,32.1l0-0.2l1.1,0
		l0,0.2L197.2,32.1z M197.2,31.3l0-0.2l1.1,0l0,0.2L197.2,31.3z M197.1,30.5l0-0.2l1.1,0l0,0.2L197.1,30.5z M197.1,29.8l0-0.2l1.1,0
		l0,0.2L197.1,29.8z M197.1,29l0-0.2l1.1,0l0,0.2L197.1,29z M197,28.2l0-0.2l1.1,0l0,0.2L197,28.2z M197,27.4l0-0.2l1.1,0l0,0.2
		L197,27.4z M197,26.6l0-0.2l1.1,0l0,0.2L197,26.6z M197,25.9l0-0.2l1.1,0l0,0.2L197,25.9z M196.9,25.1l0-0.2l1.1,0l0,0.2
		L196.9,25.1z M196.9,24.3l0-0.2l1.1,0l0,0.2L196.9,24.3z M196.9,23.5l0-0.2l1.1,0l0,0.2L196.9,23.5z M196.8,22.7l0-0.2l1.1,0l0,0.2
		L196.8,22.7z M196.8,22l0-0.2l1.1,0l0,0.2L196.8,22z M196.8,21.2l0-0.2l1.1,0l0,0.2L196.8,21.2z M196.8,20.4l0-0.2l1.1,0l0,0.2
		L196.8,20.4z M196.7,19.6l0-0.2l1.1,0l0,0.2L196.7,19.6z M196.7,18.8l0-0.2l1.1,0l0,0.2L196.7,18.8z M196.7,18.1l0-0.2l1.1,0l0,0.2
		L196.7,18.1z M196.6,17.3l0-0.2l1.1,0l0,0.2L196.6,17.3z M196.6,16.5l0-0.2l1.1,0l0,0.2L196.6,16.5z M196.6,15.7l0-0.2l1.1,0l0,0.2
		L196.6,15.7z M196.6,15l0-0.2l1.1,0l0,0.2L196.6,15z M196.5,14.2l0-0.2l1.1,0l0,0.2L196.5,14.2z M196.5,13.4l0-0.2l1.1,0l0,0.2
		L196.5,13.4z M196.5,12.6l0-0.2l1.1,0l0,0.2L196.5,12.6z M196.4,11.8l0-0.2l1.1,0l0,0.2L196.4,11.8z M196.4,11.1l0-0.2l1.1,0l0,0.2
		L196.4,11.1z M196.4,10.3l0-0.2l1.1,0l0,0.2L196.4,10.3z M196.3,9.5l0-0.2l1.1,0l0,0.2L196.3,9.5z M196.3,8.7l0-0.2l1.1,0l0,0.2
		L196.3,8.7z"/>
	<path class="st0" d="M197.4,47.4h-1.1v-0.2h1.1V47.4z M197.4,46.6h-1.1v-0.2h1.1V46.6z M197.4,45.8h-1.1v-0.2h1.1V45.8z M197.4,45
		h-1.1v-0.2h1.1V45z M197.4,44.2h-1.1V44h1.1V44.2z M197.4,43.5h-1.1v-0.2h1.1V43.5z M197.4,42.7h-1.1v-0.2h1.1V42.7z"/>
	<polygon class="st0" points="198.7,41.9 196.9,41.9 196.9,40.8 197.6,40.8 197.6,40.2 197.1,40.2 197.1,39.1 198.7,39.1 	"/>
	<rect x="192.2" y="54.5" class="st0" width="4.5" height="1.1"/>
	<rect x="192.2" y="62.9" class="st0" width="4.2" height="1.1"/>
	<rect x="192.2" y="80.5" class="st0" width="3.8" height="1.1"/>
	<polygon class="st0" points="206.7,67.9 206.4,66.9 211.9,65.2 218.5,47.7 216,46.9 216.3,45.8 219.9,47 212.7,66.1 	"/>
	<path class="st0" d="M222.7,56.6c0-0.2,0-0.4,0-0.7c0-1.1,0.2-2.1,0.7-3.1l1,0.5c-0.4,0.8-0.6,1.7-0.6,2.6c0,0.2,0,0.4,0,0.6
		L222.7,56.6z"/>
	<path class="st0" d="M235.8,60l-0.9-0.6c0.7-1,1.1-2.2,1.1-3.4c0-0.7-0.4-1.8-0.5-2.1l1.1-0.4c0.2,0.7,0.5,1.7,0.5,2.5
		C237.1,57.4,236.7,58.8,235.8,60z"/>
	<rect x="204.5" y="54.3" class="st0" width="1.1" height="27.5"/>
	<rect x="201.6" y="49.5" class="st0" width="1.1" height="32.9"/>
	<path class="st0" d="M211.9,109.6l-0.6,0c-1.9,0-5,0-5.4,0l-0.1-0.5l-0.3-0.6c0.2-0.1,0.2-0.1,5.2-0.1v-3.9h1.1V109.6z"/>
	<path class="st0" d="M201.3,114.3c-3.1,0-5.6-2.3-5.6-5.2c0-0.3,0-0.5,0.1-0.8l1.1,0.2c0,0.2-0.1,0.4-0.1,0.6c0,2.2,2,4.1,4.5,4.1
		c1.5,0,3-0.7,3.8-1.9l0.9,0.7C204.9,113.4,203.2,114.3,201.3,114.3z"/>
	<path class="st0" d="M160,77.2c-4,0-7.2-3.2-7.2-7.2s3.2-7.2,7.2-7.2c4,0,7.2,3.2,7.2,7.2S164,77.2,160,77.2z M160,64
		c-3.4,0-6.1,2.7-6.1,6s2.7,6,6.1,6s6.1-2.7,6.1-6S163.4,64,160,64z"/>
	<path class="st0" d="M160,53.3l-1-0.5c0.4-0.8,0.6-1.8,0.6-2.7c0-3.5-2.9-6.4-6.4-6.4c-3.6,0-6.4,2.9-6.4,6.4c0,0.7,0.1,1.4,0.3,2
		l-1.1,0.4c-0.3-0.8-0.4-1.6-0.4-2.4c0-4.1,3.4-7.5,7.6-7.5c4.2,0,7.6,3.4,7.6,7.5C160.7,51.2,160.4,52.3,160,53.3z"/>
	<path class="st0" d="M156.3,56.9l-0.5-1c1.4-0.6,2.5-1.7,3.1-3.1l1,0.5C159.2,54.9,157.9,56.2,156.3,56.9z"/>
	<path class="st0" d="M160,73.6c-2,0-3.6-1.6-3.6-3.6c0-2,1.6-3.6,3.6-3.6c2,0,3.6,1.6,3.6,3.6C163.6,72,162,73.6,160,73.6z
		 M160,67.6c-1.4,0-2.5,1.1-2.5,2.5c0,1.4,1.1,2.5,2.5,2.5c1.4,0,2.5-1.1,2.5-2.5C162.5,68.7,161.4,67.6,160,67.6z"/>
	<path class="st0" d="M160,72.1c-1.2,0-2.1-0.9-2.1-2.1s0.9-2.1,2.1-2.1c1.2,0,2.1,0.9,2.1,2.1S161.2,72.1,160,72.1z M160,69
		c-0.6,0-1,0.4-1,1s0.4,1,1,1c0.5,0,1-0.4,1-1S160.6,69,160,69z"/>
	<path class="st0" d="M159.5,70c0,0.3,0.2,0.5,0.5,0.5s0.5-0.2,0.5-0.5c0-0.3-0.2-0.5-0.5-0.5S159.5,69.7,159.5,70"/>
	<g class="st1">
		<g>
			<path class="st0" d="M173.2,84.8c-4,0-7.2-3.2-7.2-7.2c0-3.9,3.2-7.2,7.2-7.2c2.6,0,5.1,1.4,6.3,3.7l-1,0.5
				c-1.1-1.9-3.1-3.2-5.4-3.2c-3.4,0-6.1,2.7-6.1,6c0,3.3,2.7,6,6.1,6c1.6,0,3.1-0.6,4.3-1.8l0.8,0.8
				C176.9,84,175.1,84.8,173.2,84.8z"/>
			<path class="st0" d="M173.2,81.2c-2,0-3.6-1.6-3.6-3.6c0-2,1.6-3.6,3.6-3.6c2,0,3.6,1.6,3.6,3.6
				C176.8,79.6,175.2,81.2,173.2,81.2z M173.2,75.2c-1.4,0-2.5,1.1-2.5,2.5c0,1.4,1.1,2.5,2.5,2.5c1.4,0,2.5-1.1,2.5-2.5
				C175.7,76.3,174.5,75.2,173.2,75.2z"/>
			<path class="st0" d="M173.2,79.7c-1.2,0-2.1-0.9-2.1-2.1c0-1.2,0.9-2.1,2.1-2.1c1.2,0,2.1,0.9,2.1,2.1
				C175.3,78.8,174.3,79.7,173.2,79.7z M173.2,76.6c-0.6,0-1,0.4-1,1c0,0.5,0.4,1,1,1c0.5,0,1-0.4,1-1
				C174.2,77.1,173.7,76.6,173.2,76.6z"/>
			<path class="st0" d="M172.7,77.6c0,0.3,0.2,0.5,0.5,0.5s0.5-0.2,0.5-0.5c0-0.3-0.2-0.5-0.5-0.5S172.7,77.3,172.7,77.6"/>
		</g>
	</g>
	<path class="st0" d="M182.1,58.3c-3.4,0-6.1-2.5-6.1-5.6c0-3.1,2.7-5.6,6.1-5.6c3.4,0,6.1,2.5,6.1,5.6
		C188.2,55.7,185.5,58.3,182.1,58.3z M182.1,48.1c-2.8,0-5,2-5,4.5c0,2.5,2.2,4.5,5,4.5c2.8,0,5-2,5-4.5
		C187.1,50.2,184.8,48.1,182.1,48.1z"/>
	<path class="st0" d="M182.1,57.8c-3.1,0-5.6-2.3-5.6-5.2c0-2.9,2.5-5.2,5.6-5.2s5.6,2.3,5.6,5.2C187.7,55.5,185.2,57.8,182.1,57.8z
		 M182.1,48.6c-2.5,0-4.5,1.8-4.5,4.1c0,2.2,2,4.1,4.5,4.1s4.5-1.8,4.5-4.1C186.6,50.4,184.6,48.6,182.1,48.6z"/>
	<path class="st0" d="M178,59.3c-3,0-5.4-2.9-5.4-6.4c0-3.6,2.4-6.5,5.4-6.5c1,0,2,0.3,2.8,1l-0.7,0.9c-0.7-0.5-1.4-0.8-2.2-0.8
		c-2.3,0-4.2,2.4-4.2,5.3c0,2.9,1.9,5.3,4.2,5.3c0.9,0,1.7-0.3,2.5-1l0.7,0.8C180.3,58.8,179.1,59.3,178,59.3z"/>
	<path class="st0" d="M177.3,66.8c-2.6-0.4-4.6-3.3-4.6-6.6c0-3.1,1.7-5.7,4-6.5l0.3,1.1c-1.9,0.6-3.3,2.8-3.3,5.4
		c0,2.8,1.6,5.2,3.7,5.5L177.3,66.8z"/>
	<path class="st0" d="M177.3,76.6c-2.7-0.4-4.7-3.4-4.7-6.8c0-3.7,2.2-6.7,5.1-6.9l0.1,1.1c-2.3,0.1-4.1,2.7-4.1,5.8
		c0,2.9,1.6,5.4,3.7,5.7L177.3,76.6z"/>
	<path class="st0" d="M176.7,93.9c-2.8-0.5-4.9-3.4-4.9-6.8c0-3.4,2.1-6.4,5-6.8l0.2,1.1c-2.3,0.4-4.1,2.8-4.1,5.7
		c0,2.8,1.7,5.3,4,5.7L176.7,93.9z"/>
	<path class="st0" d="M176.4,103.6c-2.7-0.6-4.6-3.5-4.6-6.7c0-3.8,2.6-6.9,5.8-6.9l0.2,0l0,1.1l-0.2,0c-2.6,0-4.6,2.6-4.6,5.8
		c0,2.8,1.6,5.1,3.8,5.7L176.4,103.6z"/>
	<path class="st0" d="M179.8,110.3c-3.2,0-5.8-3.1-5.8-6.9c0-2.6,1.2-4.9,3.1-6.1l0.6,0.9c-1.6,1-2.6,3-2.6,5.2
		c0,3.2,2.1,5.8,4.6,5.8c1.2,0,2.3-0.6,3.2-1.6l0.8,0.7C182.7,109.6,181.3,110.3,179.8,110.3z"/>
	<path class="st0" d="M182.1,55.5c-1.7,0-3.1-1.3-3.1-2.9c0-1.6,1.4-2.9,3.1-2.9s3.1,1.3,3.1,2.9C185.2,54.2,183.8,55.5,182.1,55.5z
		 M182.1,50.9c-1.1,0-2,0.8-2,1.8c0,1,0.9,1.8,2,1.8c1.1,0,2-0.8,2-1.8C184.1,51.7,183.2,50.9,182.1,50.9z"/>
	<path class="st0" d="M182.1,54.4c-1,0-1.9-0.8-1.9-1.7c0-1,0.8-1.7,1.9-1.7s1.9,0.8,1.9,1.7C183.9,53.6,183.1,54.4,182.1,54.4z
		 M182.1,52c-0.4,0-0.7,0.3-0.7,0.6c0,0.3,0.3,0.6,0.7,0.6s0.7-0.3,0.7-0.6C182.8,52.3,182.5,52,182.1,52z"/>
	<path class="st0" d="M181.7,52.6c0,0.2,0.2,0.4,0.4,0.4c0.2,0,0.4-0.2,0.4-0.4c0-0.2-0.2-0.4-0.4-0.4
		C181.9,52.3,181.7,52.4,181.7,52.6"/>
	<g class="st2">
		<g>
			<path class="st0" d="M182.1,65.9c-3.4,0-6.1-2.5-6.1-5.6c0-3.1,2.7-5.6,6.1-5.6c3.4,0,6.1,2.5,6.1,5.6
				C188.2,63.3,185.5,65.9,182.1,65.9z M182.1,55.7c-2.8,0-5,2-5,4.5c0,2.5,2.2,4.5,5,4.5c2.8,0,5-2,5-4.5
				C187.1,57.8,184.8,55.7,182.1,55.7z"/>
		</g>
	</g>
	<g class="st2">
		<g>
			<path class="st0" d="M182.1,65.4c-3.1,0-5.6-2.3-5.6-5.2c0-2.9,2.5-5.2,5.6-5.2s5.6,2.3,5.6,5.2
				C187.7,63.1,185.2,65.4,182.1,65.4z M182.1,56.2c-2.5,0-4.5,1.8-4.5,4.1c0,2.2,2,4.1,4.5,4.1s4.5-1.8,4.5-4.1
				C186.6,58,184.6,56.2,182.1,56.2z"/>
		</g>
	</g>
	<g class="st2">
		<g>
			<path class="st0" d="M182.1,63.1c-1.7,0-3.1-1.3-3.1-2.9c0-1.6,1.4-2.9,3.1-2.9s3.1,1.3,3.1,2.9
				C185.2,61.8,183.8,63.1,182.1,63.1z M182.1,58.5c-1.1,0-2,0.8-2,1.8c0,1,0.9,1.8,2,1.8c1.1,0,2-0.8,2-1.8
				C184.1,59.3,183.2,58.5,182.1,58.5z"/>
		</g>
	</g>
	<g class="st2">
		<g>
			<path class="st0" d="M182.1,62c-1,0-1.9-0.8-1.9-1.7c0-1,0.8-1.7,1.9-1.7s1.9,0.8,1.9,1.7C183.9,61.2,183.1,62,182.1,62z
				 M182.1,59.6c-0.4,0-0.7,0.3-0.7,0.6c0,0.3,0.3,0.6,0.7,0.6s0.7-0.3,0.7-0.6C182.8,59.9,182.5,59.6,182.1,59.6z"/>
		</g>
	</g>
	<g class="st2">
		<g>
			<path class="st0" d="M181.7,60.2c0,0.2,0.2,0.4,0.4,0.4c0.2,0,0.4-0.2,0.4-0.4c0-0.2-0.2-0.4-0.4-0.4
				C181.9,59.9,181.7,60,181.7,60.2"/>
		</g>
	</g>
	<g class="st1">
		<g>
			<path class="st0" d="M182.1,74.5c-3.4,0-6.1-2.5-6.1-5.6s2.7-5.6,6.1-5.6c3.4,0,6.1,2.5,6.1,5.6S185.5,74.5,182.1,74.5z
				 M182.1,64.4c-2.8,0-5,2-5,4.5s2.2,4.5,5,4.5c2.8,0,5-2,5-4.5S184.8,64.4,182.1,64.4z"/>
		</g>
	</g>
	<g class="st1">
		<g>
			<path class="st0" d="M182.1,74.1c-3.1,0-5.6-2.3-5.6-5.2s2.5-5.2,5.6-5.2s5.6,2.3,5.6,5.2S185.2,74.1,182.1,74.1z M182.1,64.8
				c-2.5,0-4.5,1.8-4.5,4.1c0,2.2,2,4.1,4.5,4.1s4.5-1.8,4.5-4.1C186.6,66.7,184.6,64.8,182.1,64.8z"/>
		</g>
	</g>
	<g class="st1">
		<g>
			<path class="st0" d="M182.1,71.8c-1.7,0-3.1-1.3-3.1-2.9s1.4-2.9,3.1-2.9s3.1,1.3,3.1,2.9S183.8,71.8,182.1,71.8z M182.1,67.2
				c-1.1,0-2,0.8-2,1.8s0.9,1.8,2,1.8c1.1,0,2-0.8,2-1.8S183.2,67.2,182.1,67.2z"/>
		</g>
	</g>
	<g class="st1">
		<g>
			<path class="st0" d="M182.1,70.7c-1,0-1.9-0.8-1.9-1.7s0.8-1.7,1.9-1.7s1.9,0.8,1.9,1.7S183.1,70.7,182.1,70.7z M182.1,68.3
				c-0.4,0-0.7,0.3-0.7,0.6s0.3,0.6,0.7,0.6s0.7-0.3,0.7-0.6S182.5,68.3,182.1,68.3z"/>
		</g>
	</g>
	<path class="st0" d="M181.7,68.9c0,0.2,0.2,0.4,0.4,0.4c0.2,0,0.4-0.2,0.4-0.4c0-0.2-0.2-0.4-0.4-0.4
		C181.9,68.5,181.7,68.7,181.7,68.9"/>
	<g class="st1">
		<g>
			<path class="st0" d="M182.1,84.3c-2.4,0-4.5-1.2-5.5-3.2l0,0c-0.4-0.8-0.6-1.6-0.6-2.5c0-3.1,2.7-5.6,6.1-5.6
				c3.4,0,6.1,2.5,6.1,5.6C188.2,81.8,185.5,84.3,182.1,84.3z M177.6,80.6c0.8,1.6,2.6,2.6,4.5,2.6c2.8,0,5-2,5-4.5
				c0-2.5-2.2-4.5-5-4.5c-2.8,0-5,2-5,4.5C177.1,79.4,177.2,80,177.6,80.6L177.6,80.6z"/>
		</g>
	</g>
	<g class="st1">
		<g>
			<path class="st0" d="M182.1,83.9c-3.1,0-5.6-2.3-5.6-5.2c0-2.9,2.5-5.2,5.6-5.2s5.6,2.3,5.6,5.2
				C187.7,81.6,185.2,83.9,182.1,83.9z M182.1,74.6c-2.5,0-4.5,1.8-4.5,4.1c0,2.2,2,4.1,4.5,4.1s4.5-1.8,4.5-4.1
				C186.6,76.4,184.6,74.6,182.1,74.6z"/>
		</g>
	</g>
	<g class="st1">
		<g>
			<path class="st0" d="M182.1,81.6c-1.7,0-3.1-1.3-3.1-2.9c0-1.6,1.4-2.9,3.1-2.9s3.1,1.3,3.1,2.9
				C185.2,80.3,183.8,81.6,182.1,81.6z M182.1,76.9c-1.1,0-2,0.8-2,1.8c0,1,0.9,1.8,2,1.8c1.1,0,2-0.8,2-1.8
				C184.1,77.7,183.2,76.9,182.1,76.9z"/>
		</g>
	</g>
	<g class="st1">
		<g>
			<path class="st0" d="M182.1,80.4c-1,0-1.9-0.8-1.9-1.7c0-1,0.8-1.7,1.9-1.7s1.9,0.8,1.9,1.7C183.9,79.7,183.1,80.4,182.1,80.4z
				 M182.1,78.1c-0.4,0-0.7,0.3-0.7,0.6c0,0.3,0.3,0.6,0.7,0.6s0.7-0.3,0.7-0.6C182.8,78.4,182.5,78.1,182.1,78.1z"/>
		</g>
	</g>
	<g class="st1">
		<g>
			<path class="st0" d="M181.7,78.7c0,0.2,0.2,0.4,0.4,0.4c0.2,0,0.4-0.2,0.4-0.4c0-0.2-0.2-0.4-0.4-0.4
				C181.9,78.3,181.7,78.5,181.7,78.7"/>
		</g>
	</g>
	<g class="st2">
		<g>
			<path class="st0" d="M182.1,93c-3.4,0-6.1-2.5-6.1-5.6s2.7-5.6,6.1-5.6c3.4,0,6.1,2.5,6.1,5.6S185.5,93,182.1,93z M182.1,82.9
				c-2.8,0-5,2-5,4.5s2.2,4.5,5,4.5c2.8,0,5-2,5-4.5S184.8,82.9,182.1,82.9z"/>
		</g>
	</g>
	<g class="st2">
		<g>
			<path class="st0" d="M182.1,92.6c-3.1,0-5.6-2.3-5.6-5.2s2.5-5.2,5.6-5.2s5.6,2.3,5.6,5.2S185.2,92.6,182.1,92.6z M182.1,83.3
				c-2.5,0-4.5,1.8-4.5,4.1c0,2.2,2,4.1,4.5,4.1s4.5-1.8,4.5-4.1C186.6,85.1,184.6,83.3,182.1,83.3z"/>
		</g>
	</g>
	<g class="st2">
		<g>
			<path class="st0" d="M182.1,90.3c-1.7,0-3.1-1.3-3.1-2.9s1.4-2.9,3.1-2.9s3.1,1.3,3.1,2.9S183.8,90.3,182.1,90.3z M182.1,85.6
				c-1.1,0-2,0.8-2,1.8s0.9,1.8,2,1.8c1.1,0,2-0.8,2-1.8S183.2,85.6,182.1,85.6z"/>
		</g>
	</g>
	<g class="st2">
		<g>
			<path class="st0" d="M182.1,89.1c-1,0-1.9-0.8-1.9-1.7s0.8-1.7,1.9-1.7s1.9,0.8,1.9,1.7S183.1,89.1,182.1,89.1z M182.1,86.8
				c-0.4,0-0.7,0.3-0.7,0.6s0.3,0.6,0.7,0.6s0.7-0.3,0.7-0.6S182.5,86.8,182.1,86.8z"/>
		</g>
	</g>
	<g class="st2">
		<g>
			<path class="st0" d="M181.7,87.4c0,0.2,0.2,0.4,0.4,0.4c0.2,0,0.4-0.2,0.4-0.4c0-0.2-0.2-0.4-0.4-0.4
				C181.9,87,181.7,87.2,181.7,87.4"/>
		</g>
	</g>
	<path class="st0" d="M182.1,100.6c-3.4,0-6.1-2.5-6.1-5.6c0-0.6,0.1-1.2,0.3-1.8l0,0c0.8-2.3,3.2-3.8,5.8-3.8
		c3.4,0,6.1,2.5,6.1,5.6S185.5,100.6,182.1,100.6z M182.1,90.5c-2.2,0-4.1,1.2-4.7,3.1v0c-0.2,0.5-0.2,0.9-0.2,1.4
		c0,2.5,2.2,4.5,5,4.5c2.8,0,5-2,5-4.5S184.8,90.5,182.1,90.5z"/>
	<path class="st0" d="M182.1,100.2c-3.1,0-5.6-2.3-5.6-5.2c0-2.9,2.5-5.2,5.6-5.2s5.6,2.3,5.6,5.2
		C187.7,97.8,185.2,100.2,182.1,100.2z M182.1,90.9c-2.5,0-4.5,1.8-4.5,4.1c0,2.2,2,4.1,4.5,4.1s4.5-1.8,4.5-4.1
		C186.6,92.7,184.6,90.9,182.1,90.9z"/>
	<path class="st0" d="M182.1,112.6c-1.2,0-2.3-0.3-3.3-1l0.6-0.9c0.8,0.5,1.7,0.8,2.6,0.8c2.1,0,4-1.4,4.4-3.3l1.1,0.2
		C187.1,110.9,184.7,112.6,182.1,112.6z"/>
	<path class="st0" d="M182.1,97.9c-1.7,0-3.1-1.3-3.1-2.9c0-1.6,1.4-2.9,3.1-2.9s3.1,1.3,3.1,2.9C185.2,96.6,183.8,97.9,182.1,97.9z
		 M182.1,93.2c-1.1,0-2,0.8-2,1.8c0,1,0.9,1.8,2,1.8c1.1,0,2-0.8,2-1.8C184.1,94,183.2,93.2,182.1,93.2z"/>
	<path class="st0" d="M182.1,96.7c-1,0-1.9-0.8-1.9-1.7c0-1,0.8-1.7,1.9-1.7s1.9,0.8,1.9,1.7C183.9,95.9,183.1,96.7,182.1,96.7z
		 M182.1,94.4c-0.4,0-0.7,0.3-0.7,0.6c0,0.3,0.3,0.6,0.7,0.6s0.7-0.3,0.7-0.6C182.8,94.6,182.5,94.4,182.1,94.4z"/>
	<path class="st0" d="M181.7,95c0,0.2,0.2,0.4,0.4,0.4c0.2,0,0.4-0.2,0.4-0.4c0-0.2-0.2-0.4-0.4-0.4C181.9,94.6,181.7,94.8,181.7,95
		"/>
	<path class="st0" d="M182.1,108.2c-3.4,0-6.1-2.5-6.1-5.6c0-3.1,2.7-5.6,6.1-5.6c3.4,0,6.1,2.5,6.1,5.6
		C188.2,105.7,185.5,108.2,182.1,108.2z M182.1,98.1c-2.8,0-5,2-5,4.5c0,2.5,2.2,4.5,5,4.5c2.8,0,5-2,5-4.5
		C187.1,100.1,184.8,98.1,182.1,98.1z"/>
	<path class="st0" d="M182.1,107.8c-3.1,0-5.6-2.3-5.6-5.2c0-2.9,2.5-5.2,5.6-5.2s5.6,2.3,5.6,5.2
		C187.7,105.5,185.2,107.8,182.1,107.8z M182.1,98.5c-2.5,0-4.5,1.8-4.5,4.1c0,2.2,2,4.1,4.5,4.1s4.5-1.8,4.5-4.1
		C186.6,100.3,184.6,98.5,182.1,98.5z"/>
	<path class="st0" d="M182.1,105.5c-1.7,0-3.1-1.3-3.1-2.9c0-1.6,1.4-2.9,3.1-2.9s3.1,1.3,3.1,2.9
		C185.2,104.2,183.8,105.5,182.1,105.5z M182.1,100.8c-1.1,0-2,0.8-2,1.8c0,1,0.9,1.8,2,1.8c1.1,0,2-0.8,2-1.8
		C184.1,101.6,183.2,100.8,182.1,100.8z"/>
	<path class="st0" d="M182.1,104.3c-1,0-1.9-0.8-1.9-1.7c0-1,0.8-1.7,1.9-1.7s1.9,0.8,1.9,1.7C183.9,103.5,183.1,104.3,182.1,104.3z
		 M182.1,102c-0.4,0-0.7,0.3-0.7,0.6c0,0.3,0.3,0.6,0.7,0.6s0.7-0.3,0.7-0.6C182.8,102.2,182.5,102,182.1,102z"/>
	<path class="st0" d="M181.7,102.6c0,0.2,0.2,0.4,0.4,0.4c0.2,0,0.4-0.2,0.4-0.4c0-0.2-0.2-0.4-0.4-0.4
		C181.9,102.2,181.7,102.4,181.7,102.6"/>
	<path class="st0" d="M166.3,81.5c-4,0-7.2-3.2-7.2-7.2c0-3.9,3.3-7.2,7.2-7.2v1.1c-3.2,0-6.1,2.8-6.1,6c0,3.3,2.7,6,6.1,6
		c0.4,0,0.7,0,1.1-0.1l0.2,1.1C167.1,81.5,166.7,81.5,166.3,81.5z"/>
	<path class="st0" d="M166.3,77.9c-2,0-3.6-1.6-3.6-3.6c0-2,1.6-3.6,3.6-3.6c2,0,3.6,1.6,3.6,3.6C169.9,76.3,168.3,77.9,166.3,77.9z
		 M166.3,71.9c-1.4,0-2.5,1.1-2.5,2.5c0,1.4,1.1,2.5,2.5,2.5c1.4,0,2.5-1.1,2.5-2.5C168.8,73,167.6,71.9,166.3,71.9z"/>
	<path class="st0" d="M166.3,76.4c-1.2,0-2.1-0.9-2.1-2.1c0-1.2,0.9-2.1,2.1-2.1c1.2,0,2.1,0.9,2.1,2.1
		C168.4,75.5,167.4,76.4,166.3,76.4z M166.3,73.4c-0.6,0-1,0.4-1,1c0,0.5,0.4,1,1,1c0.5,0,1-0.4,1-1
		C167.3,73.8,166.8,73.4,166.3,73.4z"/>
	<path class="st0" d="M165.8,74.3c0,0.3,0.2,0.5,0.5,0.5s0.5-0.2,0.5-0.5c0-0.3-0.2-0.5-0.5-0.5S165.8,74.1,165.8,74.3"/>
	<path class="st0" d="M154.5,67.4c-4,0-7.2-3.2-7.2-7.2c0-2,0.8-3.9,2.3-5.2l0.8,0.8c-1.2,1.1-1.9,2.7-1.9,4.4c0,3.3,2.7,6,6.1,6
		s6.1-2.7,6.1-6c0-1.2-0.4-2.4-1.1-3.4l0.9-0.6c0.8,1.2,1.3,2.6,1.3,4.1C161.8,64.2,158.5,67.4,154.5,67.4z"/>
	<path class="st0" d="M154.5,63.8c-2,0-3.6-1.6-3.6-3.6c0-2,1.6-3.6,3.6-3.6c2,0,3.6,1.6,3.6,3.6C158.1,62.2,156.5,63.8,154.5,63.8z
		 M154.5,57.8c-1.4,0-2.5,1.1-2.5,2.5c0,1.4,1.1,2.5,2.5,2.5c1.4,0,2.5-1.1,2.5-2.5C157,58.9,155.9,57.8,154.5,57.8z"/>
	<path class="st0" d="M154.5,62.3c-1.2,0-2.1-0.9-2.1-2.1c0-1.2,0.9-2.1,2.1-2.1c1.2,0,2.1,0.9,2.1,2.1
		C156.7,61.4,155.7,62.3,154.5,62.3z M154.5,59.3c-0.6,0-1,0.4-1,1c0,0.5,0.4,1,1,1c0.5,0,1-0.4,1-1
		C155.5,59.7,155.1,59.3,154.5,59.3z"/>
	<path class="st0" d="M154,60.2c0,0.3,0.2,0.5,0.5,0.5s0.5-0.2,0.5-0.5c0-0.3-0.2-0.5-0.5-0.5S154,60,154,60.2"/>
	<path class="st0" d="M153.4,54c-2,0-3.6-1.6-3.6-3.6c0-2,1.6-3.6,3.6-3.6c2,0,3.6,1.6,3.6,3.6C157,52.4,155.4,54,153.4,54z
		 M153.4,48c-1.4,0-2.5,1.1-2.5,2.5c0,1.4,1.1,2.5,2.5,2.5c1.4,0,2.5-1.1,2.5-2.5C155.9,49.1,154.8,48,153.4,48z"/>
	<path class="st0" d="M153.4,52.6c-1.2,0-2.1-0.9-2.1-2.1s0.9-2.1,2.1-2.1c1.2,0,2.1,0.9,2.1,2.1S154.6,52.6,153.4,52.6z
		 M153.4,49.5c-0.6,0-1,0.4-1,1s0.4,1,1,1c0.5,0,1-0.4,1-1S154,49.5,153.4,49.5z"/>
	<path class="st0" d="M152.9,50.5c0,0.3,0.2,0.5,0.5,0.5s0.5-0.2,0.5-0.5c0-0.3-0.2-0.5-0.5-0.5S152.9,50.2,152.9,50.5"/>
	<path class="st0" d="M153,59.8c-2,0-3.6-1.6-3.6-3.6c0-2,1.6-3.6,3.6-3.6c2,0,3.6,1.6,3.6,3.6C156.5,58.2,154.9,59.8,153,59.8z
		 M153,53.8c-1.4,0-2.5,1.1-2.5,2.5c0,1.4,1.1,2.5,2.5,2.5c1.4,0,2.5-1.1,2.5-2.5C155.4,54.9,154.3,53.8,153,53.8z"/>
	<path class="st0" d="M153,58.3c-1.2,0-2.1-0.9-2.1-2.1c0-1.2,0.9-2.1,2.1-2.1c1.2,0,2.1,0.9,2.1,2.1
		C155.1,57.4,154.1,58.3,153,58.3z M153,55.2c-0.6,0-1,0.4-1,1c0,0.5,0.4,1,1,1c0.5,0,1-0.4,1-1C153.9,55.7,153.5,55.2,153,55.2z"/>
	<path class="st0" d="M152.5,56.2c0,0.3,0.2,0.5,0.5,0.5c0.3,0,0.5-0.2,0.5-0.5c0-0.3-0.2-0.5-0.5-0.5
		C152.7,55.7,152.5,55.9,152.5,56.2"/>
	<g class="st3">
		<g>
			
				<rect x="96.1" y="-50.7" transform="matrix(2.792448e-02 -0.9996 0.9996 2.792448e-02 49.5846 139.7793)" class="st0" width="1.1" height="190.1"/>
			
				<rect x="74.1" y="53.3" transform="matrix(0.1084 -0.9941 0.9941 0.1084 14.0656 123.4926)" class="st0" width="3.5" height="1.1"/>
			
				<rect x="85.8" y="41.3" transform="matrix(6.702720e-02 -0.9978 0.9978 6.702720e-02 27.8632 135.4372)" class="st0" width="1.1" height="23.1"/>
			<path class="st0" d="M117.4,55.5l-0.2,0l0.1-1.1l0.2,0L117.4,55.5z M116.6,55.4l-0.2,0l0.1-1.1l0.2,0L116.6,55.4z M115.9,55.4
				l-0.2,0l0.1-1.1l0.2,0L115.9,55.4z M115.1,55.3l-0.2,0l0.1-1.1l0.2,0L115.1,55.3z M114.3,55.3l-0.2,0l0.1-1.1l0.2,0L114.3,55.3z
				 M113.5,55.2l-0.2,0l0.1-1.1l0.2,0L113.5,55.2z M112.7,55.1l-0.2,0l0.1-1.1l0.2,0L112.7,55.1z M112,55.1l-0.2,0l0.1-1.1l0.2,0
				L112,55.1z M111.2,55l-0.2,0l0.1-1.1l0.2,0L111.2,55z M110.4,55l-0.2,0l0.1-1.1l0.2,0L110.4,55z M109.6,54.9l-0.2,0l0.1-1.1
				l0.2,0L109.6,54.9z M108.9,54.9l-0.2,0l0.1-1.1l0.2,0L108.9,54.9z M108.1,54.8l-0.2,0l0.1-1.1l0.2,0L108.1,54.8z M107.3,54.8
				l-0.2,0l0.1-1.1l0.2,0L107.3,54.8z M106.5,54.7l-0.2,0l0.1-1.1l0.2,0L106.5,54.7z M105.7,54.7l-0.2,0l0.1-1.1l0.2,0L105.7,54.7z
				 M105,54.6l-0.2,0l0.1-1.1l0.2,0L105,54.6z M104.2,54.6l-0.2,0l0.1-1.1l0.2,0L104.2,54.6z M103.4,54.5l-0.2,0l0.1-1.1l0.2,0
				L103.4,54.5z M102.6,54.5l-0.2,0l0.1-1.1l0.2,0L102.6,54.5z M101.9,54.4l-0.2,0l0.1-1.1l0.2,0L101.9,54.4z M101.1,54.4l-0.2,0
				l0.1-1.1l0.2,0L101.1,54.4z M100.3,54.3l-0.2,0l0.1-1.1l0.2,0L100.3,54.3z M99.5,54.3l-0.2,0l0.1-1.1l0.2,0L99.5,54.3z
				 M98.7,54.2l-0.2,0l0.1-1.1l0.2,0L98.7,54.2z"/>
			
				<rect x="114" y="57.3" transform="matrix(6.833305e-02 -0.9977 0.9977 6.833305e-02 51.2845 170.5535)" class="st0" width="5.9" height="1.1"/>
			<rect x="45" y="46.7" transform="matrix(0.1084 -0.9941 0.9941 0.1084 -4.6836 89.3903)" class="st0" width="5" height="1.1"/>
			
				<rect x="111.2" y="33.7" transform="matrix(5.755760e-02 -0.9983 0.9983 5.755760e-02 54.8685 159.2849)" class="st0" width="1.1" height="33.7"/>
			<path class="st0" d="M40.5,51.4c0-0.1-0.1-0.9,0.5-1.6c0.7-0.8,2-1,3.9-0.8c0.6,0.1,1.2,0.1,1.8,0.2c3.6,0.4,7.4,0.8,10.8,0.5
				c1.2-0.1,2.3-0.4,3.4-0.7c0.6-0.1,1.1-0.3,1.7-0.4c3.2-0.7,6.7-1,10.3-0.8l-0.1,1.1c-3.4-0.2-6.9,0.1-10,0.8
				c-0.6,0.1-1.1,0.3-1.6,0.4c-1.1,0.3-2.3,0.6-3.6,0.7c-3.6,0.4-7.4-0.1-11.1-0.5c-0.6-0.1-1.2-0.1-1.8-0.2
				c-1.9-0.2-2.7,0.2-2.9,0.5c-0.3,0.3-0.2,0.6-0.2,0.7L40.5,51.4z"/>
			
				<rect x="73.3" y="48.3" transform="matrix(5.759653e-02 -0.9983 0.9983 5.759653e-02 21.3603 119.2892)" class="st0" width="1.1" height="0.1"/>
			<path class="st0" d="M93.4,50.1l-0.2,0l0.1-1.1l0.2,0L93.4,50.1z M92.6,50l-0.2,0l0.1-1.1l0.2,0L92.6,50z M91.8,50l-0.2,0
				l0.1-1.1l0.2,0L91.8,50z M91.1,49.9l-0.2,0l0.1-1.1l0.2,0L91.1,49.9z M90.3,49.9l-0.2,0l0.1-1.1l0.2,0L90.3,49.9z M89.5,49.8
				l-0.2,0l0.1-1.1l0.2,0L89.5,49.8z M88.7,49.8l-0.2,0l0.1-1.1l0.2,0L88.7,49.8z M87.9,49.7l-0.2,0l0.1-1.1l0.2,0L87.9,49.7z
				 M87.2,49.7l-0.2,0l0.1-1.1l0.2,0L87.2,49.7z M86.4,49.6l-0.2,0l0.1-1.1l0.2,0L86.4,49.6z M85.6,49.6l-0.2,0l0.1-1.1l0.2,0
				L85.6,49.6z M84.8,49.6l-0.2,0l0.1-1.1l0.2,0L84.8,49.6z M84,49.5l-0.2,0l0.1-1.1l0.2,0L84,49.5z M83.3,49.5l-0.2,0l0.1-1.1
				l0.2,0L83.3,49.5z M82.5,49.4l-0.2,0l0.1-1.1l0.2,0L82.5,49.4z M81.7,49.4l-0.2,0l0.1-1.1l0.2,0L81.7,49.4z M80.9,49.3l-0.2,0
				l0.1-1.1l0.2,0L80.9,49.3z M80.1,49.3l-0.2,0l0.1-1.1l0.2,0L80.1,49.3z M79.4,49.2l-0.2,0l0.1-1.1l0.2,0L79.4,49.2z M78.6,49.2
				l-0.2,0l0.1-1.1l0.2,0L78.6,49.2z M77.8,49.1l-0.2,0l0.1-1.1l0.2,0L77.8,49.1z M77,49.1l-0.2,0l0.1-1.1l0.2,0L77,49.1z M76.2,49
				L76,49l0.1-1.1l0.2,0L76.2,49z M75.4,49l-0.2,0l0.1-1.1l0.2,0L75.4,49z M74.7,48.9l-0.2,0l0.1-1.1l0.2,0L74.7,48.9z"/>
			
				<rect x="93.5" y="49.5" transform="matrix(5.815384e-02 -0.9983 0.9983 5.815384e-02 39.1053 140.5585)" class="st0" width="1.1" height="0.1"/>
			
				<rect x="166.6" y="44.9" transform="matrix(3.437070e-02 -0.9994 0.9994 3.437070e-02 105.4376 221.1301)" class="st0" width="1.1" height="22.3"/>
			<path class="st0" d="M150,55.8l-35.5-1.4c-2.1-0.2-6.5-1-6.7-1l-6-1.5L102,50l1.1,0.1L103,51l5.1,1.2c0,0,4.5,0.8,6.5,1l35.5,1.4
				L150,55.8z"/>
			<polygon class="st0" points="127.4,48.5 126.3,48.5 126.3,47.6 11.7,42.6 13.4,43.7 34.6,45.2 34.5,46.3 13,44.8 7.8,41.3 
				127.4,46.5 			"/>
			<path class="st0" d="M47.5,47.2l-0.2,0l0.1-1.1l0.2,0L47.5,47.2z M46.7,47.1l-0.2,0l0.1-1.1l0.2,0L46.7,47.1z M46,47.1l-0.2,0
				l0.1-1.1l0.2,0L46,47.1z M45.2,47L45,47l0.1-1.1l0.2,0L45.2,47z M44.4,47l-0.2,0l0.1-1.1l0.2,0L44.4,47z M43.6,46.9l-0.2,0
				l0.1-1.1l0.2,0L43.6,46.9z M42.9,46.9l-0.2,0l0.1-1.1l0.2,0L42.9,46.9z M42.1,46.8l-0.2,0l0.1-1.1l0.2,0L42.1,46.8z M41.3,46.8
				l-0.2,0l0.1-1.1l0.2,0L41.3,46.8z M40.5,46.7l-0.2,0l0.1-1.1l0.2,0L40.5,46.7z M39.7,46.7l-0.2,0l0.1-1.1l0.2,0L39.7,46.7z
				 M39,46.6l-0.2,0l0.1-1.1l0.2,0L39,46.6z M38.2,46.6l-0.2,0l0.1-1.1l0.2,0L38.2,46.6z M37.4,46.5l-0.2,0l0.1-1.1l0.2,0L37.4,46.5
				z M36.6,46.4l-0.2,0l0.1-1.1l0.2,0L36.6,46.4z M35.9,46.4l-0.2,0l0.1-1.1l0.2,0L35.9,46.4z"/>
			
				<rect x="93.6" y="1.6" transform="matrix(0.1263 -0.992 0.992 0.1263 24.6116 144.1383)" class="st0" width="1.1" height="113.1"/>
			<polygon class="st0" points="8.9,47.9 2.6,47.1 1.3,44.7 1.6,41.7 2.7,41.8 2.5,44.4 3.3,46.1 9.1,46.8 			"/>
			<path class="st0" d="M37,51.4l-0.2,0l0.1-1.1l0.2,0L37,51.4z M36.2,51.3l-0.2,0l0.1-1.1l0.2,0L36.2,51.3z M35.4,51.2l-0.2,0
				l0.1-1.1l0.2,0L35.4,51.2z M34.7,51.1l-0.2,0l0.1-1.1l0.2,0L34.7,51.1z M33.9,51l-0.2,0l0.1-1.1l0.2,0L33.9,51z M33.1,50.9
				l-0.2,0l0.1-1.1l0.2,0L33.1,50.9z M32.4,50.8l-0.2,0l0.1-1.1l0.2,0L32.4,50.8z M31.6,50.7l-0.2,0l0.1-1.1l0.2,0L31.6,50.7z
				 M30.8,50.6l-0.2,0l0.1-1.1l0.2,0L30.8,50.6z M30,50.5l-0.2,0l0.1-1.1l0.2,0L30,50.5z M29.3,50.4l-0.2,0l0.1-1.1l0.2,0L29.3,50.4
				z M28.5,50.3l-0.2,0l0.1-1.1l0.2,0L28.5,50.3z M27.7,50.2l-0.2,0l0.1-1.1l0.2,0L27.7,50.2z M26.9,50.1l-0.2,0l0.1-1.1l0.2,0
				L26.9,50.1z M26.2,50l-0.2,0l0.1-1.1l0.2,0L26.2,50z M25.4,49.9l-0.2,0l0.1-1.1l0.2,0L25.4,49.9z M24.6,49.8l-0.2,0l0.1-1.1
				l0.2,0L24.6,49.8z M23.8,49.7l-0.2,0l0.1-1.1l0.2,0L23.8,49.7z M23.1,49.6l-0.2,0l0.1-1.1l0.2,0L23.1,49.6z M22.3,49.5l-0.2,0
				l0.1-1.1l0.2,0L22.3,49.5z M21.5,49.4l-0.2,0l0.1-1.1l0.2,0L21.5,49.4z M20.7,49.4l-0.2,0l0.1-1.1l0.2,0L20.7,49.4z M20,49.3
				l-0.2,0l0.1-1.1l0.2,0L20,49.3z M19.2,49.2l-0.2,0l0.1-1.1l0.2,0L19.2,49.2z M18.4,49.1l-0.2,0l0.1-1.1l0.2,0L18.4,49.1z
				 M17.6,49l-0.2,0l0.1-1.1l0.2,0L17.6,49z M16.9,48.9l-0.2,0l0.1-1.1l0.2,0L16.9,48.9z M16.1,48.8l-0.2,0l0.1-1.1l0.2,0L16.1,48.8
				z M15.3,48.7l-0.2,0l0.1-1.1l0.2,0L15.3,48.7z M14.6,48.6l-0.2,0l0.1-1.1l0.2,0L14.6,48.6z M13.8,48.5l-0.2,0l0.1-1.1l0.2,0
				L13.8,48.5z M13,48.4l-0.2,0l0.1-1.1l0.2,0L13,48.4z M12.2,48.3l-0.2,0l0.1-1.1l0.2,0L12.2,48.3z M11.5,48.2l-0.2,0l0.1-1.1
				l0.2,0L11.5,48.2z M10.7,48.1l-0.2,0l0.1-1.1l0.2,0L10.7,48.1z M9.9,48l-0.2,0l0.1-1.1l0.2,0L9.9,48z"/>
			<polygon class="st0" points="6.6,47 5.5,46.9 5.6,45.7 4.9,45.1 1.9,44.8 2,43.7 5.4,44.1 6.8,45.2 			"/>
			
				<rect x="3.6" y="43.1" transform="matrix(0.1064 -0.9943 0.9943 0.1064 -41.2174 44.5624)" class="st0" width="1.1" height="4.1"/>
			
				<rect x="132.1" y="42.1" transform="matrix(6.476723e-02 -0.9979 0.9979 6.476723e-02 66.615 186.2275)" class="st0" width="1.1" height="31"/>
		</g>
	</g>
	<polygon class="st0" points="140,49.3 139.8,49.3 0.2,46.5 0.2,45.4 139.6,48.2 142.7,45.3 143.5,46.1 	"/>
	
		<rect x="71.6" y="54.5" transform="matrix(6.736133e-02 -0.9977 0.9977 6.736133e-02 13.4729 124.46)" class="st0" width="3.5" height="1.1"/>
	
		<rect x="83" y="42.2" transform="matrix(2.596870e-02 -0.9997 0.9997 2.596870e-02 27.861 135.599)" class="st0" width="1.1" height="22.6"/>
	<path class="st0" d="M118.2,55.3l-0.1-1.1l0.1,0L118.2,55.3z M117.5,55.2l-0.2,0l0-1.1l0.2,0L117.5,55.2z M116.7,55.2l-0.2,0l0-1.1
		l0.2,0L116.7,55.2z M115.9,55.2l-0.2,0l0-1.1l0.2,0L115.9,55.2z M115.2,55.1l-0.2,0l0-1.1l0.2,0L115.2,55.1z M114.4,55.1l-0.2,0
		l0-1.1l0.2,0L114.4,55.1z M113.6,55.1l-0.2,0l0-1.1l0.2,0L113.6,55.1z M112.8,55.1l-0.2,0l0-1.1l0.2,0L112.8,55.1z M112,55l-0.2,0
		l0-1.1l0.2,0L112,55z M111.3,55l-0.2,0l0-1.1l0.2,0L111.3,55z M110.5,55l-0.2,0l0-1.1l0.2,0L110.5,55z M109.7,54.9l-0.2,0l0-1.1
		l0.2,0L109.7,54.9z M108.9,54.9l-0.2,0l0-1.1l0.2,0L108.9,54.9z M108.2,54.9l-0.2,0l0-1.1l0.2,0L108.2,54.9z M107.4,54.8l-0.2,0
		l0-1.1l0.2,0L107.4,54.8z M106.6,54.8l-0.2,0l0-1.1l0.2,0L106.6,54.8z M105.8,54.8l-0.2,0l0-1.1l0.2,0L105.8,54.8z M105,54.7
		l-0.2,0l0-1.1l0.2,0L105,54.7z M104.3,54.7l-0.2,0l0-1.1l0.2,0L104.3,54.7z M103.5,54.7l-0.2,0l0-1.1l0.2,0L103.5,54.7z
		 M102.7,54.7l-0.2,0l0-1.1l0.2,0L102.7,54.7z M101.9,54.6l-0.2,0l0-1.1l0.2,0L101.9,54.6z M101.1,54.6l-0.2,0l0-1.1l0.2,0
		L101.1,54.6z M100.4,54.6l-0.2,0l0-1.1l0.2,0L100.4,54.6z M99.6,54.5l-0.2,0l0-1.1l0.2,0L99.6,54.5z M98.8,54.5l-0.2,0l0-1.1l0.2,0
		L98.8,54.5z M98,54.5l-0.2,0l0-1.1l0.2,0L98,54.5z M97.2,54.4l-0.2,0l0-1.1l0.2,0L97.2,54.4z M96.5,54.4l-0.2,0l0-1.1l0.2,0
		L96.5,54.4z M95.7,54.4l-0.2,0l0-1.1l0.2,0L95.7,54.4z"/>
	
		<rect x="110.7" y="56.7" transform="matrix(2.928431e-02 -0.9996 0.9996 2.928431e-02 53.1211 169.1499)" class="st0" width="5.9" height="1.1"/>
	
		<rect x="42.8" y="49.1" transform="matrix(6.736133e-02 -0.9977 0.9977 6.736133e-02 -7.2603 91.4496)" class="st0" width="5" height="1.1"/>
	
		<rect x="133.6" y="9.4" transform="matrix(4.376181e-02 -0.999 0.999 4.376181e-02 76.5537 183.5685)" class="st0" width="1.1" height="84.8"/>
	<path class="st0" d="M38.6,54c0-0.1-0.2-0.9,0.5-1.6c0.7-0.8,1.9-1.1,3.7-1c0.6,0,1.2,0.1,1.8,0.1c3.6,0.3,7.3,0.5,10.6,0
		c1.2-0.2,2.2-0.5,3.3-0.9c0.5-0.2,1.1-0.3,1.6-0.5c3.1-0.9,6.5-1.3,10-1.3l0,1.1c-3.4,0-6.7,0.4-9.7,1.2c-0.5,0.1-1.1,0.3-1.6,0.5
		c-1.1,0.4-2.3,0.7-3.5,0.9c-3.5,0.5-7.2,0.2-10.9,0c-0.6,0-1.2-0.1-1.8-0.1c-1.4-0.1-2.4,0.1-2.8,0.6c-0.3,0.3-0.2,0.6-0.2,0.7
		L38.6,54z"/>
	
		<rect x="70.6" y="49.5" transform="matrix(1.941382e-02 -0.9998 0.9998 1.941382e-02 20.2185 119.6891)" class="st0" width="1.1" height="0.1"/>
	<path class="st0" d="M90.3,50.5l-0.2,0l0-1.1l0.2,0L90.3,50.5z M89.5,50.5l-0.2,0l0-1.1l0.2,0L89.5,50.5z M88.8,50.4l-0.2,0l0-1.1
		l0.2,0L88.8,50.4z M88,50.4l-0.2,0l0-1.1l0.2,0L88,50.4z M87.2,50.4l-0.2,0l0-1.1l0.2,0L87.2,50.4z M86.5,50.4l-0.2,0l0-1.1l0.2,0
		L86.5,50.4z M85.7,50.4l-0.2,0l0-1.1l0.2,0L85.7,50.4z M84.9,50.4l-0.2,0l0-1.1l0.2,0L84.9,50.4z M84.2,50.3l-0.2,0l0-1.1l0.2,0
		L84.2,50.3z M83.4,50.3l-0.2,0l0-1.1l0.2,0L83.4,50.3z M82.6,50.3l-0.2,0l0-1.1l0.2,0L82.6,50.3z M81.9,50.3l-0.2,0l0-1.1l0.2,0
		L81.9,50.3z M81.1,50.3l-0.2,0l0-1.1l0.2,0L81.1,50.3z M80.4,50.3l-0.2,0l0-1.1l0.2,0L80.4,50.3z M79.6,50.3l-0.2,0l0-1.1l0.2,0
		L79.6,50.3z M78.8,50.2l-0.2,0l0-1.1l0.2,0L78.8,50.2z M78.1,50.2l-0.2,0l0-1.1l0.2,0L78.1,50.2z M77.3,50.2l-0.2,0l0-1.1l0.2,0
		L77.3,50.2z M76.5,50.2l-0.2,0l0-1.1l0.2,0L76.5,50.2z M75.8,50.2l-0.2,0l0-1.1l0.2,0L75.8,50.2z M75,50.2l-0.2,0l0-1.1l0.2,0
		L75,50.2z M74.2,50.2l-0.2,0l0-1.1l0.2,0L74.2,50.2z M73.5,50.1l-0.2,0l0-1.1l0.2,0L73.5,50.1z M72.7,50.1l-0.2,0l0-1.1l0.2,0
		L72.7,50.1z M71.9,50.1l-0.2,0l0-1.1l0.2,0L71.9,50.1z"/>
	
		<rect x="90.4" y="49.9" transform="matrix(1.941382e-02 -0.9998 0.9998 1.941382e-02 39.2361 139.8476)" class="st0" width="1.1" height="0.1"/>
	<path class="st0" d="M142.1,54.6l-31-0.8c-2.1-0.1-6.4-0.7-6.6-0.8l-6-1.2l0.1-1.9l1.1,0.1L99.7,51l5,1c0,0,4.4,0.7,6.4,0.7l31,0.8
		L142.1,54.6z"/>
	<polygon class="st0" points="32.6,49.1 11.5,48.5 8.4,46.6 9,45.7 11.8,47.4 32.6,48 	"/>
	<path class="st0" d="M45.3,49.5l-0.2,0l0-1.1l0.2,0L45.3,49.5z M44.5,49.5l-0.2,0l0-1.1l0.2,0L44.5,49.5z M43.8,49.5l-0.2,0l0-1.1
		l0.2,0L43.8,49.5z M43,49.4l-0.2,0l0-1.1l0.2,0L43,49.4z M42.2,49.4l-0.2,0l0-1.1l0.2,0L42.2,49.4z M41.4,49.4l-0.2,0l0-1.1l0.2,0
		L41.4,49.4z M40.6,49.4l-0.2,0l0-1.1l0.2,0L40.6,49.4z M39.9,49.3l-0.2,0l0-1.1l0.2,0L39.9,49.3z M39.1,49.3l-0.2,0l0-1.1l0.2,0
		L39.1,49.3z M38.3,49.3l-0.2,0l0-1.1l0.2,0L38.3,49.3z M37.5,49.3l-0.2,0l0-1.1l0.2,0L37.5,49.3z M36.7,49.3l-0.2,0l0-1.1l0.2,0
		L36.7,49.3z M36,49.2l-0.2,0l0-1.1l0.2,0L36,49.2z M35.2,49.2l-0.2,0l0-1.1l0.2,0L35.2,49.2z M34.4,49.2l-0.2,0l0-1.1l0.2,0
		L34.4,49.2z M33.6,49.2l-0.2,0l0-1.1l0.2,0L33.6,49.2z"/>
	
		<rect x="91.8" y="2.1" transform="matrix(8.531237e-02 -0.9964 0.9964 8.531237e-02 26.26 145.5262)" class="st0" width="1.1" height="112.8"/>
	<polygon class="st0" points="7.6,51.8 1.4,51.3 0,48.9 0.2,45.9 1.3,46 1.1,48.6 2.1,50.2 7.7,50.7 	"/>
	<path class="st0" d="M35,54.1l-0.2,0l0.1-1.1l0.2,0L35,54.1z M34.2,54L34,54l0.1-1.1l0.2,0L34.2,54z M33.4,54l-0.2,0l0.1-1.1l0.2,0
		L33.4,54z M32.6,53.9l-0.2,0l0.1-1.1l0.2,0L32.6,53.9z M31.9,53.8l-0.2,0l0.1-1.1l0.2,0L31.9,53.8z M31.1,53.8l-0.2,0l0.1-1.1
		l0.2,0L31.1,53.8z M30.3,53.7l-0.2,0l0.1-1.1l0.2,0L30.3,53.7z M29.5,53.6l-0.2,0l0.1-1.1l0.2,0L29.5,53.6z M28.8,53.6l-0.2,0
		l0.1-1.1l0.2,0L28.8,53.6z M28,53.5l-0.2,0l0.1-1.1l0.2,0L28,53.5z M27.2,53.4l-0.2,0l0.1-1.1l0.2,0L27.2,53.4z M26.4,53.4l-0.2,0
		l0.1-1.1l0.2,0L26.4,53.4z M25.6,53.3l-0.2,0l0.1-1.1l0.2,0L25.6,53.3z M24.9,53.2l-0.2,0l0.1-1.1l0.2,0L24.9,53.2z M24.1,53.2
		l-0.2,0L24,52l0.2,0L24.1,53.2z M23.3,53.1l-0.2,0l0.1-1.1l0.2,0L23.3,53.1z M22.5,53l-0.2,0l0.1-1.1l0.2,0L22.5,53z M21.8,53
		l-0.2,0l0.1-1.1l0.2,0L21.8,53z M21,52.9l-0.2,0l0.1-1.1l0.2,0L21,52.9z M20.2,52.8l-0.2,0l0.1-1.1l0.2,0L20.2,52.8z M19.4,52.8
		l-0.2,0l0.1-1.1l0.2,0L19.4,52.8z M18.7,52.7l-0.2,0l0.1-1.1l0.2,0L18.7,52.7z M17.9,52.7l-0.2,0l0.1-1.1l0.2,0L17.9,52.7z
		 M17.1,52.6l-0.2,0l0.1-1.1l0.2,0L17.1,52.6z M16.3,52.5l-0.2,0l0.1-1.1l0.2,0L16.3,52.5z M15.5,52.5l-0.2,0l0.1-1.1l0.2,0
		L15.5,52.5z M14.8,52.4l-0.2,0l0.1-1.1l0.2,0L14.8,52.4z M14,52.3l-0.2,0l0.1-1.1l0.2,0L14,52.3z M13.2,52.3l-0.2,0l0.1-1.1l0.2,0
		L13.2,52.3z M12.4,52.2l-0.2,0l0.1-1.1l0.2,0L12.4,52.2z M11.7,52.1l-0.2,0l0.1-1.1l0.2,0L11.7,52.1z M10.9,52.1l-0.2,0l0.1-1.1
		l0.2,0L10.9,52.1z M10.1,52l-0.2,0l0.1-1.1l0.2,0L10.1,52z M9.3,51.9l-0.2,0l0.1-1.1l0.2,0L9.3,51.9z M8.6,51.9l-0.2,0l0.1-1.1
		l0.2,0L8.6,51.9z"/>
	<polygon class="st0" points="5.3,51 4.2,50.9 4.3,49.7 3.6,49.2 0.6,49 0.6,47.9 4,48.1 5.4,49.2 	"/>
	
		<rect x="2.3" y="47.3" transform="matrix(6.625089e-02 -0.9978 0.9978 6.625089e-02 -46.5558 48.8807)" class="st0" width="1.1" height="4"/>
	
		<rect x="130.8" y="38.9" transform="matrix(2.375917e-02 -0.9997 0.9997 2.375917e-02 71.8675 186.3684)" class="st0" width="1.1" height="35"/>
	<path class="st0" d="M188.9,121.2l-0.2-6.5l3.6-0.9l-0.1,5.3L188.9,121.2z M189.8,115.5l0.1,3.7l1.1-0.7l0.1-3.3L189.8,115.5z"/>
	<path class="st0" d="M194.4,121.2l-3.4-2l0.1-5.3l3.5,0.9L194.4,121.2z M192.1,118.5l1.2,0.7l0.1-3.7l-1.2-0.3L192.1,118.5z"/>
	<polygon class="st0" points="164.1,122.3 164.1,116 191.5,106.2 191.9,107.3 165.2,116.8 165.2,120.9 188.6,114.7 187.5,108.9 
		191.3,108.8 191.4,109.9 188.8,109.9 189.9,115.5 	"/>
	<polygon class="st0" points="171.5,119.9 170.4,119.9 170.4,116.6 181.5,113 181.5,117.4 180.4,117.3 180.4,114.5 171.5,117.4 	"/>
	<rect x="176.8" y="111.9" class="st0" width="1.1" height="3.1"/>
	<rect x="177.6" y="114.6" class="st0" width="1.1" height="3.4"/>
	<polygon class="st0" points="171.6,109.5 169.7,107.4 164.1,107.4 164.1,102.6 169.6,102.6 169.6,103.7 165.2,103.7 165.2,106.3 
		170.2,106.3 172.4,108.7 	"/>
	<polygon class="st0" points="172.4,114.2 163.7,114.2 164.1,111.9 163.7,110.9 164,110.1 163.4,109 164.7,107.7 171.3,107.7 
		171.3,108.8 165.1,108.8 164.8,109.1 165.3,110.1 164.9,110.9 165.2,111.8 165,113 172.4,113 	"/>
	<rect x="164.7" y="111.3" class="st0" width="12.8" height="1.1"/>
	<polygon class="st0" points="183.9,113.6 182.8,113.6 182.8,102.7 177.9,102.7 177.9,110.7 164.7,110.7 164.7,109.5 176.8,109.5 
		176.8,101.6 183.9,101.6 	"/>
	<path class="st0" d="M186.2,23.7c-0.9,0-1.6-0.9-1.6-2c0-1.1,0.7-2,1.6-2s1.6,0.9,1.6,2C187.9,22.8,187.2,23.7,186.2,23.7z
		 M186.2,20.8c-0.2,0-0.5,0.4-0.5,0.9c0,0.5,0.3,0.9,0.5,0.9s0.5-0.4,0.5-0.9C186.8,21.2,186.5,20.8,186.2,20.8z"/>
	<path class="st0" d="M187.5,50.7c-0.7,0-1.3-0.8-1.5-1.8v0c-0.1-0.7,0-1.4,0.3-1.8c0.2-0.2,0.4-0.4,0.7-0.4
		c0.4-0.1,0.8,0.2,1.1,0.6c0.2,0.3,0.4,0.8,0.5,1.3c0.1,0.5,0,1-0.1,1.3c-0.2,0.5-0.5,0.8-0.9,0.9C187.6,50.7,187.6,50.7,187.5,50.7
		z M187.1,48.7c0.1,0.6,0.3,0.9,0.4,0.9c0,0,0.1-0.4,0.1-1c-0.1-0.5-0.3-0.9-0.4-0.9C187.2,47.8,187.1,48.2,187.1,48.7z"/>
	<path class="st0" d="M186.4,36.2c-0.7,0-1.4-0.6-1.6-1.5c-0.1-0.5,0-1.1,0.3-1.5c0.2-0.3,0.5-0.5,0.8-0.6c0.8-0.2,1.6,0.5,1.8,1.5
		c0.1,0.5,0,1.1-0.3,1.5c-0.2,0.3-0.5,0.5-0.8,0.6C186.5,36.2,186.4,36.2,186.4,36.2z M186.1,33.7C186.1,33.7,186.1,33.7,186.1,33.7
		c-0.1,0-0.1,0.1-0.1,0.1c-0.1,0.1-0.1,0.4-0.1,0.6c0.1,0.4,0.3,0.7,0.5,0.6c0,0,0.1-0.1,0.1-0.1c0.1-0.1,0.1-0.4,0.1-0.7
		C186.5,33.9,186.3,33.7,186.1,33.7z"/>
	<path class="st0" d="M191.2,49.5c-0.5,0-1.1,0-1.7-0.3c-1.7-0.8-2.2-3.7-2.1-5.2l1.1,0.1c-0.1,1.3,0.5,3.6,1.4,4
		c0.4,0.2,0.9,0.2,1.4,0.2l0.2,0v1.1l-0.2,0C191.4,49.5,191.3,49.5,191.2,49.5z"/>
	<path class="st0" d="M191.3,45.1c-1.1,0-3.6-0.1-4.4-1.2c0,0-1-1.3-1.2-4.2c0-0.3,0-0.6,0-0.9c-0.3-0.5-1.3-2-1.3-3.1l0-1.2
		l0.9,0.8c0,0,2.2,1.9,6.3,2l0,1.1c-2.7-0.1-4.6-0.8-5.8-1.4c0.2,0.5,0.6,1,0.8,1.3l0.1,0.2l0,0.2c0,0.4,0,0.7,0,1
		c0.1,2.5,0.9,3.5,0.9,3.5c0.5,0.6,2.6,0.8,3.9,0.8l0,1.1C191.6,45.1,191.5,45.1,191.3,45.1z"/>
	<path class="st0" d="M184.4,35.7l-0.2-7.9c0-0.8-0.1-1.7-0.1-2.5l-0.1-1.4c-0.1-1-0.1-2.2,0.3-3.3c1.1-2.8,4.7-2.9,7.1-2.9l0.2,0
		l0,1.1l-0.2,0c-2.1,0-5.3,0.1-6.1,2.2c-0.3,0.9-0.3,1.9-0.2,2.8l0.1,1.4c0,0.8,0.1,1.7,0.1,2.5l0.2,7.9L184.4,35.7z"/>
	<path class="st0" d="M191.5,43.5c-0.6,0-1.1-0.2-1.5-0.6c-0.6-0.6-0.5-1.5-0.5-1.6l0-6.7c0-1.6-0.6-3-0.6-3c-0.6-1-0.5-2.6-0.5-2.8
		l0-6.1c0-1,0.3-1.8,0.8-2.2c0.5-0.5,1.1-0.5,1.2-0.4l1.3,0v2.2h-0.5v8h1.1v13.2l-0.5,0C191.6,43.5,191.6,43.5,191.5,43.5z
		 M190,21.3C190,21.3,190,21.4,190,21.3c-0.3,0.2-0.5,0.6-0.5,1.4v6.1c0,0.4,0,1.7,0.4,2.3c0.1,0.1,0.6,1.6,0.7,3.5v6.8
		c0,0.2,0,0.5,0.2,0.8c0.1,0.1,0.2,0.1,0.3,0.2v-11H190V21.3z"/>
	
		<rect x="175" y="40.9" transform="matrix(0.5576 -0.8301 0.8301 0.5576 45.8631 168.9582)" class="st0" width="12.8" height="1.1"/>
	<path class="st0" d="M184,37.1c-0.3-0.8-0.4-1.6-0.6-2.4c-0.7-4-0.8-8.1-1-12.1l0-0.1c-0.2-4.9-0.2-9.6,1.4-14.2
		c1.1-3.2,2.7-5.5,4.8-6.9c1-0.7,2-1.1,2.9-1.2l0.1,1.1c-0.7,0.1-1.6,0.4-2.4,1c-1.9,1.3-3.4,3.4-4.4,6.3c-1.5,4.4-1.5,9.1-1.3,13.8
		l0,0.1c0.1,4,0.3,8,1,12c0.1,0.7,0.3,1.5,0.5,2.2L184,37.1z"/>
	<g class="st4">
		<g>
			
				<rect x="164.1" y="75.9" transform="matrix(0.9636 -0.2675 0.2675 0.9636 -16.9156 47.178)" class="st0" width="1.1" height="19.5"/>
		</g>
	</g>
	<g class="st4">
		<g>
			<path class="st0" d="M170.2,104.6l-1.1-0.1c0.3-5.5,0.7-13.8,0.7-14.9c-0.5-0.6-2-2.9-7.6-11.2l0.9-0.6
				c2.9,4.3,7.4,10.9,7.7,11.3v0C171,89.4,170.9,91,170.2,104.6z"/>
		</g>
	</g>
	<rect x="179.5" y="102.1" class="st0" width="1.1" height="9.5"/>
	
		<rect x="186.7" y="47.6" transform="matrix(0.9996 -2.750847e-02 2.750847e-02 0.9996 -2.0696 5.182)" class="st0" width="1.1" height="60.4"/>
	<polygon class="st0" points="167.8,97.5 164.2,97.5 164.2,92.1 165.8,92.1 165.8,93.2 165.3,93.2 165.3,96.4 167.8,96.4 	"/>
	<g class="st4">
		<g>
			<defs>
				<rect id="SVGID_5_" x="167.8" y="96.4" width="8.9" height="1.1"/>
			</defs>
			<use xlink:href="#SVGID_5_"  style="overflow:visible;fill:#FFFFFF;"/>
			<clipPath id="SVGID_6_">
				<use xlink:href="#SVGID_5_"  style="overflow:visible;"/>
			</clipPath>
			<rect x="167.8" y="96.4" class="st7" width="8.9" height="1.1"/>
		</g>
	</g>
	<g class="st4">
		<g>
			<defs>
				<rect id="SVGID_7_" x="172" y="92.1" width="5.2" height="1.1"/>
			</defs>
			<use xlink:href="#SVGID_7_"  style="overflow:visible;fill:#FFFFFF;"/>
			<clipPath id="SVGID_8_">
				<use xlink:href="#SVGID_7_"  style="overflow:visible;"/>
			</clipPath>
			<rect x="172" y="92.1" class="st8" width="5.2" height="1.1"/>
		</g>
	</g>
	<path class="st0" d="M191.7,18.5c-3-0.1-3.1-3.6-3.1-5.8c0-0.5,0-0.9,0-1.2c0-0.2,0-0.4,0-0.7c0-0.9-0.1-2.4-0.7-2.7
		c-0.2-0.1-0.4,0.1-0.9,0.8c-0.4,0.6-0.9,1.2-1.6,1.3c-0.4,0.1-0.8-0.1-1.2-0.3c-0.1-0.1-0.3-0.2-0.4-0.4l0.8-0.7
		c0.1,0.1,0.1,0.1,0.2,0.2c0.1,0.1,0.2,0.1,0.3,0.1c0.3,0,0.6-0.5,0.9-0.9c0.5-0.7,1.3-1.7,2.4-1.1c1.1,0.6,1.2,2.4,1.2,3.6
		c0,0.2,0,0.4,0,0.6c0,0.4,0,0.8,0,1.3c0,2.5,0.2,4.6,2,4.7L191.7,18.5z"/>
	<path class="st0" d="M187,8.6l-1.1-0.2c1.2-8,5.7-7.4,5.8-7.4l-0.2,1.1C191.5,2.1,188.1,1.8,187,8.6z"/>
	<path class="st0" d="M191.6,17.3c-0.4,0-0.7-0.1-1-0.4c-1.9-1.7-2-9-2-9.8c-0.1-1.2,0.3-2.1,0.9-2.7c1-0.9,2.3-0.7,2.3-0.7
		l-0.1,1.1l0.1-0.6l-0.1,0.6c0,0-0.9-0.1-1.4,0.4c-0.4,0.4-0.6,1-0.5,1.8c0,3,0.5,8,1.6,9c0.2,0.1,0.3,0.2,0.3,0.1l0.1,1.1
		C191.7,17.3,191.6,17.3,191.6,17.3z"/>
	<path class="st0" d="M186.1,33.5l-1.1,0L186.1,33.5L186.1,33.5z M186.1,32.9l-1.1,0l0-0.2l1.1,0L186.1,32.9z M186.2,32.1l-1.1,0
		l0-0.2l1.1,0L186.2,32.1z M186.2,31.3l-1.1,0l0-0.2l1.1,0L186.2,31.3z M186.2,30.5l-1.1,0l0-0.2l1.1,0L186.2,30.5z M186.2,29.8
		l-1.1,0l0-0.2l1.1,0L186.2,29.8z M186.3,29l-1.1,0l0-0.2l1.1,0L186.3,29z M186.3,28.2l-1.1,0l0-0.2l1.1,0L186.3,28.2z M186.3,27.4
		l-1.1,0l0-0.2l1.1,0L186.3,27.4z M186.4,26.6l-1.1,0l0-0.2l1.1,0L186.4,26.6z M186.4,25.9l-1.1,0l0-0.2l1.1,0L186.4,25.9z
		 M186.4,25.1l-1.1,0l0-0.2l1.1,0L186.4,25.1z M186.4,24.3l-1.1,0l0-0.2l1.1,0L186.4,24.3z M186.5,23.5l-1.1,0l0-0.2l1.1,0
		L186.5,23.5z M186.5,22.7l-1.1,0l0-0.2l1.1,0L186.5,22.7z M186.5,22l-1.1,0l0-0.2l1.1,0L186.5,22z M186.6,21.2l-1.1,0l0-0.2l1.1,0
		L186.6,21.2z M186.6,20.4l-1.1,0l0-0.2l1.1,0L186.6,20.4z M186.6,19.6l-1.1,0l0-0.2l1.1,0L186.6,19.6z M186.6,18.8l-1.1,0l0-0.2
		l1.1,0L186.6,18.8z M186.7,18.1l-1.1,0l0-0.2l1.1,0L186.7,18.1z M186.7,17.3l-1.1,0l0-0.2l1.1,0L186.7,17.3z M186.7,16.5l-1.1,0
		l0-0.2l1.1,0L186.7,16.5z M186.8,15.7l-1.1,0l0-0.2l1.1,0L186.8,15.7z M186.8,14.9l-1.1,0l0-0.2l1.1,0L186.8,14.9z M186.8,14.2
		l-1.1,0l0-0.2l1.1,0L186.8,14.2z M186.9,13.4l-1.1,0l0-0.2l1.1,0L186.9,13.4z M186.9,12.6l-1.1,0l0-0.2l1.1,0L186.9,12.6z
		 M186.9,11.8l-1.1,0l0-0.2l1.1,0L186.9,11.8z M186.9,11.1l-1.1,0l0-0.2l1.1,0L186.9,11.1z M187,10.3l-1.1,0l0-0.2l1.1,0L187,10.3z
		 M187,9.5l-1.1,0l0-0.2l1.1,0L187,9.5z M187,8.7l-1.1,0l0-0.2l1.1,0L187,8.7z"/>
	<path class="st0" d="M187,47.4h-1.1v-0.2h1.1V47.4z M187,46.6h-1.1v-0.2h1.1V46.6z M187,45.8h-1.1v-0.2h1.1V45.8z M187,45h-1.1
		v-0.2h1.1V45z M187,44.2h-1.1V44h1.1V44.2z M187,43.5h-1.1v-0.2h1.1V43.5z M187,42.7h-1.1v-0.2h1.1V42.7z"/>
	<polygon class="st0" points="186.5,41.9 184.6,41.9 184.6,39.1 186.3,39.1 186.3,40.2 185.7,40.2 185.7,40.8 186.5,40.8 	"/>
	<rect x="186.7" y="54.5" class="st0" width="6.3" height="1.1"/>
	<rect x="186.9" y="62.9" class="st0" width="6.1" height="1.1"/>
	<rect x="187.3" y="80.5" class="st0" width="5.4" height="1.1"/>
	<polygon class="st0" points="176.6,67.9 170.6,66.1 163.4,47 167,45.8 167.3,46.9 164.9,47.7 171.5,65.2 176.9,66.9 	"/>
	<path class="st0" d="M160.6,56.6l-1.1-0.1c0-0.2,0-0.4,0-0.6c0-0.9-0.2-1.8-0.6-2.6l1-0.5c0.5,1,0.7,2,0.7,3.1
		C160.7,56.1,160.7,56.3,160.6,56.6z"/>
	<path class="st0" d="M147.5,60c-0.8-1.2-1.3-2.6-1.3-4.1c0-0.8,0.3-1.8,0.5-2.5l1.1,0.4c-0.1,0.3-0.5,1.4-0.5,2.1
		c0,1.2,0.4,2.4,1.1,3.4L147.5,60z"/>
	<rect x="177.7" y="54.3" class="st0" width="1.1" height="27.5"/>
	<rect x="180.6" y="49.5" class="st0" width="1.1" height="32.9"/>
	<path class="st0" d="M171.4,109.6v-5.1h1.1v3.9c5-0.1,5,0,5.2,0.1l-0.6,1l0.3-0.5l-0.1,0.5c-0.3,0-3.5,0-5.4,0L171.4,109.6z"/>
	<path class="st0" d="M182.1,114.3c-1.9,0-3.6-0.9-4.7-2.3l0.9-0.7c0.8,1.2,2.3,1.9,3.8,1.9c2.5,0,4.5-1.8,4.5-4.1
		c0-0.2,0-0.4-0.1-0.6l1.1-0.2c0,0.3,0.1,0.5,0.1,0.8C187.7,112,185.2,114.3,182.1,114.3z"/>
	<rect x="183.2" y="27.5" class="st0" width="16.9" height="1.1"/>
	<g class="st9">
		<g>
			<defs>
				<rect id="SVGID_9_" x="191.1" y="49" width="1.1" height="65.7"/>
			</defs>
			<use xlink:href="#SVGID_9_"  style="overflow:visible;fill:#FFFFFF;"/>
			<clipPath id="SVGID_10_">
				<use xlink:href="#SVGID_9_"  style="overflow:visible;"/>
			</clipPath>
			<rect x="191.1" y="49" class="st10" width="1.1" height="65.7"/>
		</g>
	</g>
</g>
</svg>
